<?xml version="1.0" encoding="utf-8" standalone="no"?>
<!DOCTYPE svg PUBLIC "-//W3C//DTD SVG 1.1//EN"
  "http://www.w3.org/Graphics/SVG/1.1/DTD/svg11.dtd">
<svg xmlns:xlink="http://www.w3.org/1999/xlink" width="1065.321063pt" height="452.326875pt" viewBox="0 0 1065.321063 452.326875" xmlns="http://www.w3.org/2000/svg" version="1.1">
 <metadata>
  <rdf:RDF xmlns:dc="http://purl.org/dc/elements/1.1/" xmlns:cc="http://creativecommons.org/ns#" xmlns:rdf="http://www.w3.org/1999/02/22-rdf-syntax-ns#">
   <cc:Work>
    <dc:type rdf:resource="http://purl.org/dc/dcmitype/StillImage"/>
    <dc:date>2026-06-16T10:22:19.170470</dc:date>
    <dc:format>image/svg+xml</dc:format>
    <dc:creator>
     <cc:Agent>
      <dc:title>Matplotlib v3.10.8, https://matplotlib.org/</dc:title>
     </cc:Agent>
    </dc:creator>
   </cc:Work>
  </rdf:RDF>
 </metadata>
 <defs>
  <style type="text/css">*{stroke-linejoin: round; stroke-linecap: butt}</style>
 </defs>
 <g id="figure_1">
  <g id="patch_1">
   <path d="M 0 452.326875 
L 1065.321063 452.326875 
L 1065.321063 0 
L 0 0 
z
" style="fill: #ffffff"/>
  </g>
  <g id="axes_1">
   <g id="patch_2">
    <path d="M 141.2225 401.979375 
L 810.8225 401.979375 
L 810.8225 27.759375 
L 141.2225 27.759375 
z
" style="fill: #ffffff"/>
   </g>
   <g id="matplotlib.axis_1">
    <g id="xtick_1">
     <g id="line2d_1">
      <path d="M 141.2225 401.979375 
L 141.2225 27.759375 
" clip-path="url(#p8cafbc673a)" style="fill: none; stroke-dasharray: 3.7,1.6; stroke-dashoffset: 0; stroke: #cccccc; stroke-opacity: 0.5"/>
     </g>
     <g id="text_1">
      <!-- 0 -->
      <g style="fill: #262626" transform="translate(136.77375 422.931875) scale(0.16 -0.16)">
       <defs>
        <path id="ArialMT-30" d="M 266 2259 
Q 266 3072 433 3567 
Q 600 4063 929 4331 
Q 1259 4600 1759 4600 
Q 2128 4600 2406 4451 
Q 2684 4303 2865 4023 
Q 3047 3744 3150 3342 
Q 3253 2941 3253 2259 
Q 3253 1453 3087 958 
Q 2922 463 2592 192 
Q 2263 -78 1759 -78 
Q 1097 -78 719 397 
Q 266 969 266 2259 
z
M 844 2259 
Q 844 1131 1108 757 
Q 1372 384 1759 384 
Q 2147 384 2411 759 
Q 2675 1134 2675 2259 
Q 2675 3391 2411 3762 
Q 2147 4134 1753 4134 
Q 1366 4134 1134 3806 
Q 844 3388 844 2259 
z
" transform="scale(0.015625)"/>
       </defs>
       <use xlink:href="#ArialMT-30"/>
      </g>
     </g>
    </g>
    <g id="xtick_2">
     <g id="line2d_2">
      <path d="M 275.1425 401.979375 
L 275.1425 27.759375 
" clip-path="url(#p8cafbc673a)" style="fill: none; stroke-dasharray: 3.7,1.6; stroke-dashoffset: 0; stroke: #cccccc; stroke-opacity: 0.5"/>
     </g>
     <g id="text_2">
      <!-- 20 -->
      <g style="fill: #262626" transform="translate(266.245 422.931875) scale(0.16 -0.16)">
       <defs>
        <path id="ArialMT-32" d="M 3222 541 
L 3222 0 
L 194 0 
Q 188 203 259 391 
Q 375 700 629 1000 
Q 884 1300 1366 1694 
Q 2113 2306 2375 2664 
Q 2638 3022 2638 3341 
Q 2638 3675 2398 3904 
Q 2159 4134 1775 4134 
Q 1369 4134 1125 3890 
Q 881 3647 878 3216 
L 300 3275 
Q 359 3922 746 4261 
Q 1134 4600 1788 4600 
Q 2447 4600 2831 4234 
Q 3216 3869 3216 3328 
Q 3216 3053 3103 2787 
Q 2991 2522 2730 2228 
Q 2469 1934 1863 1422 
Q 1356 997 1212 845 
Q 1069 694 975 541 
L 3222 541 
z
" transform="scale(0.015625)"/>
       </defs>
       <use xlink:href="#ArialMT-32"/>
       <use xlink:href="#ArialMT-30" transform="translate(55.615234 0)"/>
      </g>
     </g>
    </g>
    <g id="xtick_3">
     <g id="line2d_3">
      <path d="M 409.0625 401.979375 
L 409.0625 27.759375 
" clip-path="url(#p8cafbc673a)" style="fill: none; stroke-dasharray: 3.7,1.6; stroke-dashoffset: 0; stroke: #cccccc; stroke-opacity: 0.5"/>
     </g>
     <g id="text_3">
      <!-- 40 -->
      <g style="fill: #262626" transform="translate(400.165 422.931875) scale(0.16 -0.16)">
       <defs>
        <path id="ArialMT-34" d="M 2069 0 
L 2069 1097 
L 81 1097 
L 81 1613 
L 2172 4581 
L 2631 4581 
L 2631 1613 
L 3250 1613 
L 3250 1097 
L 2631 1097 
L 2631 0 
L 2069 0 
z
M 2069 1613 
L 2069 3678 
L 634 1613 
L 2069 1613 
z
" transform="scale(0.015625)"/>
       </defs>
       <use xlink:href="#ArialMT-34"/>
       <use xlink:href="#ArialMT-30" transform="translate(55.615234 0)"/>
      </g>
     </g>
    </g>
    <g id="xtick_4">
     <g id="line2d_4">
      <path d="M 542.9825 401.979375 
L 542.9825 27.759375 
" clip-path="url(#p8cafbc673a)" style="fill: none; stroke-dasharray: 3.7,1.6; stroke-dashoffset: 0; stroke: #cccccc; stroke-opacity: 0.5"/>
     </g>
     <g id="text_4">
      <!-- 60 -->
      <g style="fill: #262626" transform="translate(534.085 422.931875) scale(0.16 -0.16)">
       <defs>
        <path id="ArialMT-36" d="M 3184 3459 
L 2625 3416 
Q 2550 3747 2413 3897 
Q 2184 4138 1850 4138 
Q 1581 4138 1378 3988 
Q 1113 3794 959 3422 
Q 806 3050 800 2363 
Q 1003 2672 1297 2822 
Q 1591 2972 1913 2972 
Q 2475 2972 2870 2558 
Q 3266 2144 3266 1488 
Q 3266 1056 3080 686 
Q 2894 316 2569 119 
Q 2244 -78 1831 -78 
Q 1128 -78 684 439 
Q 241 956 241 2144 
Q 241 3472 731 4075 
Q 1159 4600 1884 4600 
Q 2425 4600 2770 4297 
Q 3116 3994 3184 3459 
z
M 888 1484 
Q 888 1194 1011 928 
Q 1134 663 1356 523 
Q 1578 384 1822 384 
Q 2178 384 2434 671 
Q 2691 959 2691 1453 
Q 2691 1928 2437 2201 
Q 2184 2475 1800 2475 
Q 1419 2475 1153 2201 
Q 888 1928 888 1484 
z
" transform="scale(0.015625)"/>
       </defs>
       <use xlink:href="#ArialMT-36"/>
       <use xlink:href="#ArialMT-30" transform="translate(55.615234 0)"/>
      </g>
     </g>
    </g>
    <g id="xtick_5">
     <g id="line2d_5">
      <path d="M 676.9025 401.979375 
L 676.9025 27.759375 
" clip-path="url(#p8cafbc673a)" style="fill: none; stroke-dasharray: 3.7,1.6; stroke-dashoffset: 0; stroke: #cccccc; stroke-opacity: 0.5"/>
     </g>
     <g id="text_5">
      <!-- 80 -->
      <g style="fill: #262626" transform="translate(668.005 422.931875) scale(0.16 -0.16)">
       <defs>
        <path id="ArialMT-38" d="M 1131 2484 
Q 781 2613 612 2850 
Q 444 3088 444 3419 
Q 444 3919 803 4259 
Q 1163 4600 1759 4600 
Q 2359 4600 2725 4251 
Q 3091 3903 3091 3403 
Q 3091 3084 2923 2848 
Q 2756 2613 2416 2484 
Q 2838 2347 3058 2040 
Q 3278 1734 3278 1309 
Q 3278 722 2862 322 
Q 2447 -78 1769 -78 
Q 1091 -78 675 323 
Q 259 725 259 1325 
Q 259 1772 486 2073 
Q 713 2375 1131 2484 
z
M 1019 3438 
Q 1019 3113 1228 2906 
Q 1438 2700 1772 2700 
Q 2097 2700 2305 2904 
Q 2513 3109 2513 3406 
Q 2513 3716 2298 3927 
Q 2084 4138 1766 4138 
Q 1444 4138 1231 3931 
Q 1019 3725 1019 3438 
z
M 838 1322 
Q 838 1081 952 856 
Q 1066 631 1291 507 
Q 1516 384 1775 384 
Q 2178 384 2440 643 
Q 2703 903 2703 1303 
Q 2703 1709 2433 1975 
Q 2163 2241 1756 2241 
Q 1359 2241 1098 1978 
Q 838 1716 838 1322 
z
" transform="scale(0.015625)"/>
       </defs>
       <use xlink:href="#ArialMT-38"/>
       <use xlink:href="#ArialMT-30" transform="translate(55.615234 0)"/>
      </g>
     </g>
    </g>
    <g id="xtick_6">
     <g id="line2d_6">
      <path d="M 810.8225 401.979375 
L 810.8225 27.759375 
" clip-path="url(#p8cafbc673a)" style="fill: none; stroke-dasharray: 3.7,1.6; stroke-dashoffset: 0; stroke: #cccccc; stroke-opacity: 0.5"/>
     </g>
     <g id="text_6">
      <!-- 100 -->
      <g style="fill: #262626" transform="translate(797.47625 422.931875) scale(0.16 -0.16)">
       <defs>
        <path id="ArialMT-31" d="M 2384 0 
L 1822 0 
L 1822 3584 
Q 1619 3391 1289 3197 
Q 959 3003 697 2906 
L 697 3450 
Q 1169 3672 1522 3987 
Q 1875 4303 2022 4600 
L 2384 4600 
L 2384 0 
z
" transform="scale(0.015625)"/>
       </defs>
       <use xlink:href="#ArialMT-31"/>
       <use xlink:href="#ArialMT-30" transform="translate(55.615234 0)"/>
       <use xlink:href="#ArialMT-30" transform="translate(111.230469 0)"/>
      </g>
     </g>
    </g>
    <g id="text_7">
     <!-- Porcentaje de Predicciones (%) -->
     <g style="fill: #262626" transform="translate(363.97375 441.759375) scale(0.16 -0.16)">
      <defs>
       <path id="ArialMT-50" d="M 494 0 
L 494 4581 
L 2222 4581 
Q 2678 4581 2919 4538 
Q 3256 4481 3484 4323 
Q 3713 4166 3852 3881 
Q 3991 3597 3991 3256 
Q 3991 2672 3619 2267 
Q 3247 1863 2275 1863 
L 1100 1863 
L 1100 0 
L 494 0 
z
M 1100 2403 
L 2284 2403 
Q 2872 2403 3119 2622 
Q 3366 2841 3366 3238 
Q 3366 3525 3220 3729 
Q 3075 3934 2838 4000 
Q 2684 4041 2272 4041 
L 1100 4041 
L 1100 2403 
z
" transform="scale(0.015625)"/>
       <path id="ArialMT-6f" d="M 213 1659 
Q 213 2581 725 3025 
Q 1153 3394 1769 3394 
Q 2453 3394 2887 2945 
Q 3322 2497 3322 1706 
Q 3322 1066 3130 698 
Q 2938 331 2570 128 
Q 2203 -75 1769 -75 
Q 1072 -75 642 372 
Q 213 819 213 1659 
z
M 791 1659 
Q 791 1022 1069 705 
Q 1347 388 1769 388 
Q 2188 388 2466 706 
Q 2744 1025 2744 1678 
Q 2744 2294 2464 2611 
Q 2184 2928 1769 2928 
Q 1347 2928 1069 2612 
Q 791 2297 791 1659 
z
" transform="scale(0.015625)"/>
       <path id="ArialMT-72" d="M 416 0 
L 416 3319 
L 922 3319 
L 922 2816 
Q 1116 3169 1280 3281 
Q 1444 3394 1641 3394 
Q 1925 3394 2219 3213 
L 2025 2691 
Q 1819 2813 1613 2813 
Q 1428 2813 1281 2702 
Q 1134 2591 1072 2394 
Q 978 2094 978 1738 
L 978 0 
L 416 0 
z
" transform="scale(0.015625)"/>
       <path id="ArialMT-63" d="M 2588 1216 
L 3141 1144 
Q 3050 572 2676 248 
Q 2303 -75 1759 -75 
Q 1078 -75 664 370 
Q 250 816 250 1647 
Q 250 2184 428 2587 
Q 606 2991 970 3192 
Q 1334 3394 1763 3394 
Q 2303 3394 2647 3120 
Q 2991 2847 3088 2344 
L 2541 2259 
Q 2463 2594 2264 2762 
Q 2066 2931 1784 2931 
Q 1359 2931 1093 2626 
Q 828 2322 828 1663 
Q 828 994 1084 691 
Q 1341 388 1753 388 
Q 2084 388 2306 591 
Q 2528 794 2588 1216 
z
" transform="scale(0.015625)"/>
       <path id="ArialMT-65" d="M 2694 1069 
L 3275 997 
Q 3138 488 2766 206 
Q 2394 -75 1816 -75 
Q 1088 -75 661 373 
Q 234 822 234 1631 
Q 234 2469 665 2931 
Q 1097 3394 1784 3394 
Q 2450 3394 2872 2941 
Q 3294 2488 3294 1666 
Q 3294 1616 3291 1516 
L 816 1516 
Q 847 969 1125 678 
Q 1403 388 1819 388 
Q 2128 388 2347 550 
Q 2566 713 2694 1069 
z
M 847 1978 
L 2700 1978 
Q 2663 2397 2488 2606 
Q 2219 2931 1791 2931 
Q 1403 2931 1139 2672 
Q 875 2413 847 1978 
z
" transform="scale(0.015625)"/>
       <path id="ArialMT-6e" d="M 422 0 
L 422 3319 
L 928 3319 
L 928 2847 
Q 1294 3394 1984 3394 
Q 2284 3394 2536 3286 
Q 2788 3178 2913 3003 
Q 3038 2828 3088 2588 
Q 3119 2431 3119 2041 
L 3119 0 
L 2556 0 
L 2556 2019 
Q 2556 2363 2490 2533 
Q 2425 2703 2258 2804 
Q 2091 2906 1866 2906 
Q 1506 2906 1245 2678 
Q 984 2450 984 1813 
L 984 0 
L 422 0 
z
" transform="scale(0.015625)"/>
       <path id="ArialMT-74" d="M 1650 503 
L 1731 6 
Q 1494 -44 1306 -44 
Q 1000 -44 831 53 
Q 663 150 594 308 
Q 525 466 525 972 
L 525 2881 
L 113 2881 
L 113 3319 
L 525 3319 
L 525 4141 
L 1084 4478 
L 1084 3319 
L 1650 3319 
L 1650 2881 
L 1084 2881 
L 1084 941 
Q 1084 700 1114 631 
Q 1144 563 1211 522 
Q 1278 481 1403 481 
Q 1497 481 1650 503 
z
" transform="scale(0.015625)"/>
       <path id="ArialMT-61" d="M 2588 409 
Q 2275 144 1986 34 
Q 1697 -75 1366 -75 
Q 819 -75 525 192 
Q 231 459 231 875 
Q 231 1119 342 1320 
Q 453 1522 633 1644 
Q 813 1766 1038 1828 
Q 1203 1872 1538 1913 
Q 2219 1994 2541 2106 
Q 2544 2222 2544 2253 
Q 2544 2597 2384 2738 
Q 2169 2928 1744 2928 
Q 1347 2928 1158 2789 
Q 969 2650 878 2297 
L 328 2372 
Q 403 2725 575 2942 
Q 747 3159 1072 3276 
Q 1397 3394 1825 3394 
Q 2250 3394 2515 3294 
Q 2781 3194 2906 3042 
Q 3031 2891 3081 2659 
Q 3109 2516 3109 2141 
L 3109 1391 
Q 3109 606 3145 398 
Q 3181 191 3288 0 
L 2700 0 
Q 2613 175 2588 409 
z
M 2541 1666 
Q 2234 1541 1622 1453 
Q 1275 1403 1131 1340 
Q 988 1278 909 1158 
Q 831 1038 831 891 
Q 831 666 1001 516 
Q 1172 366 1500 366 
Q 1825 366 2078 508 
Q 2331 650 2450 897 
Q 2541 1088 2541 1459 
L 2541 1666 
z
" transform="scale(0.015625)"/>
       <path id="ArialMT-6a" d="M 419 3928 
L 419 4581 
L 981 4581 
L 981 3928 
L 419 3928 
z
M -294 -1288 
L -188 -809 
Q -19 -853 78 -853 
Q 250 -853 334 -739 
Q 419 -625 419 -169 
L 419 3319 
L 981 3319 
L 981 -181 
Q 981 -794 822 -1034 
Q 619 -1347 147 -1347 
Q -81 -1347 -294 -1288 
z
" transform="scale(0.015625)"/>
       <path id="ArialMT-20" transform="scale(0.015625)"/>
       <path id="ArialMT-64" d="M 2575 0 
L 2575 419 
Q 2259 -75 1647 -75 
Q 1250 -75 917 144 
Q 584 363 401 755 
Q 219 1147 219 1656 
Q 219 2153 384 2558 
Q 550 2963 881 3178 
Q 1213 3394 1622 3394 
Q 1922 3394 2156 3267 
Q 2391 3141 2538 2938 
L 2538 4581 
L 3097 4581 
L 3097 0 
L 2575 0 
z
M 797 1656 
Q 797 1019 1065 703 
Q 1334 388 1700 388 
Q 2069 388 2326 689 
Q 2584 991 2584 1609 
Q 2584 2291 2321 2609 
Q 2059 2928 1675 2928 
Q 1300 2928 1048 2622 
Q 797 2316 797 1656 
z
" transform="scale(0.015625)"/>
       <path id="ArialMT-69" d="M 425 3934 
L 425 4581 
L 988 4581 
L 988 3934 
L 425 3934 
z
M 425 0 
L 425 3319 
L 988 3319 
L 988 0 
L 425 0 
z
" transform="scale(0.015625)"/>
       <path id="ArialMT-73" d="M 197 991 
L 753 1078 
Q 800 744 1014 566 
Q 1228 388 1613 388 
Q 2000 388 2187 545 
Q 2375 703 2375 916 
Q 2375 1106 2209 1216 
Q 2094 1291 1634 1406 
Q 1016 1563 777 1677 
Q 538 1791 414 1992 
Q 291 2194 291 2438 
Q 291 2659 392 2848 
Q 494 3038 669 3163 
Q 800 3259 1026 3326 
Q 1253 3394 1513 3394 
Q 1903 3394 2198 3281 
Q 2494 3169 2634 2976 
Q 2775 2784 2828 2463 
L 2278 2388 
Q 2241 2644 2061 2787 
Q 1881 2931 1553 2931 
Q 1166 2931 1000 2803 
Q 834 2675 834 2503 
Q 834 2394 903 2306 
Q 972 2216 1119 2156 
Q 1203 2125 1616 2013 
Q 2213 1853 2448 1751 
Q 2684 1650 2818 1456 
Q 2953 1263 2953 975 
Q 2953 694 2789 445 
Q 2625 197 2315 61 
Q 2006 -75 1616 -75 
Q 969 -75 630 194 
Q 291 463 197 991 
z
" transform="scale(0.015625)"/>
       <path id="ArialMT-28" d="M 1497 -1347 
Q 1031 -759 709 28 
Q 388 816 388 1659 
Q 388 2403 628 3084 
Q 909 3875 1497 4659 
L 1900 4659 
Q 1522 4009 1400 3731 
Q 1209 3300 1100 2831 
Q 966 2247 966 1656 
Q 966 153 1900 -1347 
L 1497 -1347 
z
" transform="scale(0.015625)"/>
       <path id="ArialMT-25" d="M 372 3481 
Q 372 3972 619 4315 
Q 866 4659 1334 4659 
Q 1766 4659 2048 4351 
Q 2331 4044 2331 3447 
Q 2331 2866 2045 2552 
Q 1759 2238 1341 2238 
Q 925 2238 648 2547 
Q 372 2856 372 3481 
z
M 1350 4272 
Q 1141 4272 1002 4090 
Q 863 3909 863 3425 
Q 863 2984 1003 2804 
Q 1144 2625 1350 2625 
Q 1563 2625 1702 2806 
Q 1841 2988 1841 3469 
Q 1841 3913 1700 4092 
Q 1559 4272 1350 4272 
z
M 1353 -169 
L 3859 4659 
L 4316 4659 
L 1819 -169 
L 1353 -169 
z
M 3334 1075 
Q 3334 1569 3581 1911 
Q 3828 2253 4300 2253 
Q 4731 2253 5014 1945 
Q 5297 1638 5297 1041 
Q 5297 459 5011 145 
Q 4725 -169 4303 -169 
Q 3888 -169 3611 142 
Q 3334 453 3334 1075 
z
M 4316 1866 
Q 4103 1866 3964 1684 
Q 3825 1503 3825 1019 
Q 3825 581 3965 400 
Q 4106 219 4313 219 
Q 4528 219 4667 400 
Q 4806 581 4806 1063 
Q 4806 1506 4665 1686 
Q 4525 1866 4316 1866 
z
" transform="scale(0.015625)"/>
       <path id="ArialMT-29" d="M 791 -1347 
L 388 -1347 
Q 1322 153 1322 1656 
Q 1322 2244 1188 2822 
Q 1081 3291 891 3722 
Q 769 4003 388 4659 
L 791 4659 
Q 1378 3875 1659 3084 
Q 1900 2403 1900 1659 
Q 1900 816 1576 28 
Q 1253 -759 791 -1347 
z
" transform="scale(0.015625)"/>
      </defs>
      <use xlink:href="#ArialMT-50"/>
      <use xlink:href="#ArialMT-6f" transform="translate(66.699219 0)"/>
      <use xlink:href="#ArialMT-72" transform="translate(122.314453 0)"/>
      <use xlink:href="#ArialMT-63" transform="translate(155.615234 0)"/>
      <use xlink:href="#ArialMT-65" transform="translate(205.615234 0)"/>
      <use xlink:href="#ArialMT-6e" transform="translate(261.230469 0)"/>
      <use xlink:href="#ArialMT-74" transform="translate(316.845703 0)"/>
      <use xlink:href="#ArialMT-61" transform="translate(344.628906 0)"/>
      <use xlink:href="#ArialMT-6a" transform="translate(400.244141 0)"/>
      <use xlink:href="#ArialMT-65" transform="translate(422.460938 0)"/>
      <use xlink:href="#ArialMT-20" transform="translate(478.076172 0)"/>
      <use xlink:href="#ArialMT-64" transform="translate(505.859375 0)"/>
      <use xlink:href="#ArialMT-65" transform="translate(561.474609 0)"/>
      <use xlink:href="#ArialMT-20" transform="translate(617.089844 0)"/>
      <use xlink:href="#ArialMT-50" transform="translate(644.873047 0)"/>
      <use xlink:href="#ArialMT-72" transform="translate(711.572266 0)"/>
      <use xlink:href="#ArialMT-65" transform="translate(744.873047 0)"/>
      <use xlink:href="#ArialMT-64" transform="translate(800.488281 0)"/>
      <use xlink:href="#ArialMT-69" transform="translate(856.103516 0)"/>
      <use xlink:href="#ArialMT-63" transform="translate(878.320312 0)"/>
      <use xlink:href="#ArialMT-63" transform="translate(928.320312 0)"/>
      <use xlink:href="#ArialMT-69" transform="translate(978.320312 0)"/>
      <use xlink:href="#ArialMT-6f" transform="translate(1000.537109 0)"/>
      <use xlink:href="#ArialMT-6e" transform="translate(1056.152344 0)"/>
      <use xlink:href="#ArialMT-65" transform="translate(1111.767578 0)"/>
      <use xlink:href="#ArialMT-73" transform="translate(1167.382812 0)"/>
      <use xlink:href="#ArialMT-20" transform="translate(1217.382812 0)"/>
      <use xlink:href="#ArialMT-28" transform="translate(1245.166016 0)"/>
      <use xlink:href="#ArialMT-25" transform="translate(1278.466797 0)"/>
      <use xlink:href="#ArialMT-29" transform="translate(1367.382812 0)"/>
     </g>
    </g>
   </g>
   <g id="matplotlib.axis_2">
    <g id="ytick_1">
     <g id="line2d_7">
      <path d="M 141.2225 375.77478 
L 810.8225 375.77478 
" clip-path="url(#p8cafbc673a)" style="fill: none; stroke: #cccccc; stroke-linecap: round"/>
     </g>
     <g id="text_8">
      <!-- resnet50 -->
      <g style="fill: #262626" transform="translate(69.4625 381.50103) scale(0.16 -0.16)">
       <defs>
        <path id="ArialMT-35" d="M 266 1200 
L 856 1250 
Q 922 819 1161 601 
Q 1400 384 1738 384 
Q 2144 384 2425 690 
Q 2706 997 2706 1503 
Q 2706 1984 2436 2262 
Q 2166 2541 1728 2541 
Q 1456 2541 1237 2417 
Q 1019 2294 894 2097 
L 366 2166 
L 809 4519 
L 3088 4519 
L 3088 3981 
L 1259 3981 
L 1013 2750 
Q 1425 3038 1878 3038 
Q 2478 3038 2890 2622 
Q 3303 2206 3303 1553 
Q 3303 931 2941 478 
Q 2500 -78 1738 -78 
Q 1113 -78 717 272 
Q 322 622 266 1200 
z
" transform="scale(0.015625)"/>
       </defs>
       <use xlink:href="#ArialMT-72"/>
       <use xlink:href="#ArialMT-65" transform="translate(33.300781 0)"/>
       <use xlink:href="#ArialMT-73" transform="translate(88.916016 0)"/>
       <use xlink:href="#ArialMT-6e" transform="translate(138.916016 0)"/>
       <use xlink:href="#ArialMT-65" transform="translate(194.53125 0)"/>
       <use xlink:href="#ArialMT-74" transform="translate(250.146484 0)"/>
       <use xlink:href="#ArialMT-35" transform="translate(277.929688 0)"/>
       <use xlink:href="#ArialMT-30" transform="translate(333.544922 0)"/>
      </g>
     </g>
    </g>
    <g id="ytick_2">
     <g id="line2d_8">
      <path d="M 141.2225 352.788294 
L 810.8225 352.788294 
" clip-path="url(#p8cafbc673a)" style="fill: none; stroke: #cccccc; stroke-linecap: round"/>
     </g>
     <g id="text_9">
      <!-- convnextv2_tiny -->
      <g style="fill: #262626" transform="translate(16.995 358.538294) scale(0.16 -0.16)">
       <defs>
        <path id="ArialMT-76" d="M 1344 0 
L 81 3319 
L 675 3319 
L 1388 1331 
Q 1503 1009 1600 663 
Q 1675 925 1809 1294 
L 2547 3319 
L 3125 3319 
L 1869 0 
L 1344 0 
z
" transform="scale(0.015625)"/>
        <path id="ArialMT-78" d="M 47 0 
L 1259 1725 
L 138 3319 
L 841 3319 
L 1350 2541 
Q 1494 2319 1581 2169 
Q 1719 2375 1834 2534 
L 2394 3319 
L 3066 3319 
L 1919 1756 
L 3153 0 
L 2463 0 
L 1781 1031 
L 1600 1309 
L 728 0 
L 47 0 
z
" transform="scale(0.015625)"/>
        <path id="ArialMT-5f" d="M -97 -1272 
L -97 -866 
L 3631 -866 
L 3631 -1272 
L -97 -1272 
z
" transform="scale(0.015625)"/>
        <path id="ArialMT-79" d="M 397 -1278 
L 334 -750 
Q 519 -800 656 -800 
Q 844 -800 956 -737 
Q 1069 -675 1141 -563 
Q 1194 -478 1313 -144 
Q 1328 -97 1363 -6 
L 103 3319 
L 709 3319 
L 1400 1397 
Q 1534 1031 1641 628 
Q 1738 1016 1872 1384 
L 2581 3319 
L 3144 3319 
L 1881 -56 
Q 1678 -603 1566 -809 
Q 1416 -1088 1222 -1217 
Q 1028 -1347 759 -1347 
Q 597 -1347 397 -1278 
z
" transform="scale(0.015625)"/>
       </defs>
       <use xlink:href="#ArialMT-63"/>
       <use xlink:href="#ArialMT-6f" transform="translate(50 0)"/>
       <use xlink:href="#ArialMT-6e" transform="translate(105.615234 0)"/>
       <use xlink:href="#ArialMT-76" transform="translate(161.230469 0)"/>
       <use xlink:href="#ArialMT-6e" transform="translate(211.230469 0)"/>
       <use xlink:href="#ArialMT-65" transform="translate(266.845703 0)"/>
       <use xlink:href="#ArialMT-78" transform="translate(322.460938 0)"/>
       <use xlink:href="#ArialMT-74" transform="translate(372.460938 0)"/>
       <use xlink:href="#ArialMT-76" transform="translate(400.244141 0)"/>
       <use xlink:href="#ArialMT-32" transform="translate(450.244141 0)"/>
       <use xlink:href="#ArialMT-5f" transform="translate(505.859375 0)"/>
       <use xlink:href="#ArialMT-74" transform="translate(561.474609 0)"/>
       <use xlink:href="#ArialMT-69" transform="translate(589.257812 0)"/>
       <use xlink:href="#ArialMT-6e" transform="translate(611.474609 0)"/>
       <use xlink:href="#ArialMT-79" transform="translate(667.089844 0)"/>
      </g>
     </g>
    </g>
    <g id="ytick_3">
     <g id="line2d_9">
      <path d="M 141.2225 329.801807 
L 810.8225 329.801807 
" clip-path="url(#p8cafbc673a)" style="fill: none; stroke: #cccccc; stroke-linecap: round"/>
     </g>
     <g id="text_10">
      <!-- siglip_base -->
      <g style="fill: #262626" transform="translate(51.6725 335.528057) scale(0.16 -0.16)">
       <defs>
        <path id="ArialMT-67" d="M 319 -275 
L 866 -356 
Q 900 -609 1056 -725 
Q 1266 -881 1628 -881 
Q 2019 -881 2231 -725 
Q 2444 -569 2519 -288 
Q 2563 -116 2559 434 
Q 2191 0 1641 0 
Q 956 0 581 494 
Q 206 988 206 1678 
Q 206 2153 378 2554 
Q 550 2956 876 3175 
Q 1203 3394 1644 3394 
Q 2231 3394 2613 2919 
L 2613 3319 
L 3131 3319 
L 3131 450 
Q 3131 -325 2973 -648 
Q 2816 -972 2473 -1159 
Q 2131 -1347 1631 -1347 
Q 1038 -1347 672 -1080 
Q 306 -813 319 -275 
z
M 784 1719 
Q 784 1066 1043 766 
Q 1303 466 1694 466 
Q 2081 466 2343 764 
Q 2606 1063 2606 1700 
Q 2606 2309 2336 2618 
Q 2066 2928 1684 2928 
Q 1309 2928 1046 2623 
Q 784 2319 784 1719 
z
" transform="scale(0.015625)"/>
        <path id="ArialMT-6c" d="M 409 0 
L 409 4581 
L 972 4581 
L 972 0 
L 409 0 
z
" transform="scale(0.015625)"/>
        <path id="ArialMT-70" d="M 422 -1272 
L 422 3319 
L 934 3319 
L 934 2888 
Q 1116 3141 1344 3267 
Q 1572 3394 1897 3394 
Q 2322 3394 2647 3175 
Q 2972 2956 3137 2557 
Q 3303 2159 3303 1684 
Q 3303 1175 3120 767 
Q 2938 359 2589 142 
Q 2241 -75 1856 -75 
Q 1575 -75 1351 44 
Q 1128 163 984 344 
L 984 -1272 
L 422 -1272 
z
M 931 1641 
Q 931 1000 1190 694 
Q 1450 388 1819 388 
Q 2194 388 2461 705 
Q 2728 1022 2728 1688 
Q 2728 2322 2467 2637 
Q 2206 2953 1844 2953 
Q 1484 2953 1207 2617 
Q 931 2281 931 1641 
z
" transform="scale(0.015625)"/>
        <path id="ArialMT-62" d="M 941 0 
L 419 0 
L 419 4581 
L 981 4581 
L 981 2947 
Q 1338 3394 1891 3394 
Q 2197 3394 2470 3270 
Q 2744 3147 2920 2923 
Q 3097 2700 3197 2384 
Q 3297 2069 3297 1709 
Q 3297 856 2875 390 
Q 2453 -75 1863 -75 
Q 1275 -75 941 416 
L 941 0 
z
M 934 1684 
Q 934 1088 1097 822 
Q 1363 388 1816 388 
Q 2184 388 2453 708 
Q 2722 1028 2722 1663 
Q 2722 2313 2464 2622 
Q 2206 2931 1841 2931 
Q 1472 2931 1203 2611 
Q 934 2291 934 1684 
z
" transform="scale(0.015625)"/>
       </defs>
       <use xlink:href="#ArialMT-73"/>
       <use xlink:href="#ArialMT-69" transform="translate(50 0)"/>
       <use xlink:href="#ArialMT-67" transform="translate(72.216797 0)"/>
       <use xlink:href="#ArialMT-6c" transform="translate(127.832031 0)"/>
       <use xlink:href="#ArialMT-69" transform="translate(150.048828 0)"/>
       <use xlink:href="#ArialMT-70" transform="translate(172.265625 0)"/>
       <use xlink:href="#ArialMT-5f" transform="translate(227.880859 0)"/>
       <use xlink:href="#ArialMT-62" transform="translate(283.496094 0)"/>
       <use xlink:href="#ArialMT-61" transform="translate(339.111328 0)"/>
       <use xlink:href="#ArialMT-73" transform="translate(394.726562 0)"/>
       <use xlink:href="#ArialMT-65" transform="translate(444.726562 0)"/>
      </g>
     </g>
    </g>
    <g id="ytick_4">
     <g id="line2d_10">
      <path d="M 141.2225 306.815321 
L 810.8225 306.815321 
" clip-path="url(#p8cafbc673a)" style="fill: none; stroke: #cccccc; stroke-linecap: round"/>
     </g>
     <g id="text_11">
      <!-- convnextv2_base -->
      <g style="fill: #262626" transform="translate(7.2 312.565321) scale(0.16 -0.16)">
       <use xlink:href="#ArialMT-63"/>
       <use xlink:href="#ArialMT-6f" transform="translate(50 0)"/>
       <use xlink:href="#ArialMT-6e" transform="translate(105.615234 0)"/>
       <use xlink:href="#ArialMT-76" transform="translate(161.230469 0)"/>
       <use xlink:href="#ArialMT-6e" transform="translate(211.230469 0)"/>
       <use xlink:href="#ArialMT-65" transform="translate(266.845703 0)"/>
       <use xlink:href="#ArialMT-78" transform="translate(322.460938 0)"/>
       <use xlink:href="#ArialMT-74" transform="translate(372.460938 0)"/>
       <use xlink:href="#ArialMT-76" transform="translate(400.244141 0)"/>
       <use xlink:href="#ArialMT-32" transform="translate(450.244141 0)"/>
       <use xlink:href="#ArialMT-5f" transform="translate(505.859375 0)"/>
       <use xlink:href="#ArialMT-62" transform="translate(561.474609 0)"/>
       <use xlink:href="#ArialMT-61" transform="translate(617.089844 0)"/>
       <use xlink:href="#ArialMT-73" transform="translate(672.705078 0)"/>
       <use xlink:href="#ArialMT-65" transform="translate(722.705078 0)"/>
      </g>
     </g>
    </g>
    <g id="ytick_5">
     <g id="line2d_11">
      <path d="M 141.2225 283.828834 
L 810.8225 283.828834 
" clip-path="url(#p8cafbc673a)" style="fill: none; stroke: #cccccc; stroke-linecap: round"/>
     </g>
     <g id="text_12">
      <!-- siglip2_base -->
      <g style="fill: #262626" transform="translate(42.775 289.578834) scale(0.16 -0.16)">
       <use xlink:href="#ArialMT-73"/>
       <use xlink:href="#ArialMT-69" transform="translate(50 0)"/>
       <use xlink:href="#ArialMT-67" transform="translate(72.216797 0)"/>
       <use xlink:href="#ArialMT-6c" transform="translate(127.832031 0)"/>
       <use xlink:href="#ArialMT-69" transform="translate(150.048828 0)"/>
       <use xlink:href="#ArialMT-70" transform="translate(172.265625 0)"/>
       <use xlink:href="#ArialMT-32" transform="translate(227.880859 0)"/>
       <use xlink:href="#ArialMT-5f" transform="translate(283.496094 0)"/>
       <use xlink:href="#ArialMT-62" transform="translate(339.111328 0)"/>
       <use xlink:href="#ArialMT-61" transform="translate(394.726562 0)"/>
       <use xlink:href="#ArialMT-73" transform="translate(450.341797 0)"/>
       <use xlink:href="#ArialMT-65" transform="translate(500.341797 0)"/>
      </g>
     </g>
    </g>
    <g id="ytick_6">
     <g id="line2d_12">
      <path d="M 141.2225 260.842348 
L 810.8225 260.842348 
" clip-path="url(#p8cafbc673a)" style="fill: none; stroke: #cccccc; stroke-linecap: round"/>
     </g>
     <g id="text_13">
      <!-- clip_base -->
      <g style="fill: #262626" transform="translate(64.125 266.568598) scale(0.16 -0.16)">
       <use xlink:href="#ArialMT-63"/>
       <use xlink:href="#ArialMT-6c" transform="translate(50 0)"/>
       <use xlink:href="#ArialMT-69" transform="translate(72.216797 0)"/>
       <use xlink:href="#ArialMT-70" transform="translate(94.433594 0)"/>
       <use xlink:href="#ArialMT-5f" transform="translate(150.048828 0)"/>
       <use xlink:href="#ArialMT-62" transform="translate(205.664062 0)"/>
       <use xlink:href="#ArialMT-61" transform="translate(261.279297 0)"/>
       <use xlink:href="#ArialMT-73" transform="translate(316.894531 0)"/>
       <use xlink:href="#ArialMT-65" transform="translate(366.894531 0)"/>
      </g>
     </g>
    </g>
    <g id="ytick_7">
     <g id="line2d_13">
      <path d="M 141.2225 237.855861 
L 810.8225 237.855861 
" clip-path="url(#p8cafbc673a)" style="fill: none; stroke: #cccccc; stroke-linecap: round"/>
     </g>
     <g id="text_14">
      <!-- dinov3_small -->
      <g style="fill: #262626" transform="translate(38.345 243.605861) scale(0.16 -0.16)">
       <defs>
        <path id="ArialMT-33" d="M 269 1209 
L 831 1284 
Q 928 806 1161 595 
Q 1394 384 1728 384 
Q 2125 384 2398 659 
Q 2672 934 2672 1341 
Q 2672 1728 2419 1979 
Q 2166 2231 1775 2231 
Q 1616 2231 1378 2169 
L 1441 2663 
Q 1497 2656 1531 2656 
Q 1891 2656 2178 2843 
Q 2466 3031 2466 3422 
Q 2466 3731 2256 3934 
Q 2047 4138 1716 4138 
Q 1388 4138 1169 3931 
Q 950 3725 888 3313 
L 325 3413 
Q 428 3978 793 4289 
Q 1159 4600 1703 4600 
Q 2078 4600 2393 4439 
Q 2709 4278 2876 4000 
Q 3044 3722 3044 3409 
Q 3044 3113 2884 2869 
Q 2725 2625 2413 2481 
Q 2819 2388 3044 2092 
Q 3269 1797 3269 1353 
Q 3269 753 2831 336 
Q 2394 -81 1725 -81 
Q 1122 -81 723 278 
Q 325 638 269 1209 
z
" transform="scale(0.015625)"/>
        <path id="ArialMT-6d" d="M 422 0 
L 422 3319 
L 925 3319 
L 925 2853 
Q 1081 3097 1340 3245 
Q 1600 3394 1931 3394 
Q 2300 3394 2536 3241 
Q 2772 3088 2869 2813 
Q 3263 3394 3894 3394 
Q 4388 3394 4653 3120 
Q 4919 2847 4919 2278 
L 4919 0 
L 4359 0 
L 4359 2091 
Q 4359 2428 4304 2576 
Q 4250 2725 4106 2815 
Q 3963 2906 3769 2906 
Q 3419 2906 3187 2673 
Q 2956 2441 2956 1928 
L 2956 0 
L 2394 0 
L 2394 2156 
Q 2394 2531 2256 2718 
Q 2119 2906 1806 2906 
Q 1569 2906 1367 2781 
Q 1166 2656 1075 2415 
Q 984 2175 984 1722 
L 984 0 
L 422 0 
z
" transform="scale(0.015625)"/>
       </defs>
       <use xlink:href="#ArialMT-64"/>
       <use xlink:href="#ArialMT-69" transform="translate(55.615234 0)"/>
       <use xlink:href="#ArialMT-6e" transform="translate(77.832031 0)"/>
       <use xlink:href="#ArialMT-6f" transform="translate(133.447266 0)"/>
       <use xlink:href="#ArialMT-76" transform="translate(189.0625 0)"/>
       <use xlink:href="#ArialMT-33" transform="translate(239.0625 0)"/>
       <use xlink:href="#ArialMT-5f" transform="translate(294.677734 0)"/>
       <use xlink:href="#ArialMT-73" transform="translate(350.292969 0)"/>
       <use xlink:href="#ArialMT-6d" transform="translate(400.292969 0)"/>
       <use xlink:href="#ArialMT-61" transform="translate(483.59375 0)"/>
       <use xlink:href="#ArialMT-6c" transform="translate(539.208984 0)"/>
       <use xlink:href="#ArialMT-6c" transform="translate(561.425781 0)"/>
      </g>
     </g>
    </g>
    <g id="ytick_8">
     <g id="line2d_14">
      <path d="M 141.2225 214.869375 
L 810.8225 214.869375 
" clip-path="url(#p8cafbc673a)" style="fill: none; stroke: #cccccc; stroke-linecap: round"/>
     </g>
     <g id="text_15">
      <!-- clip_large -->
      <g style="fill: #262626" transform="translate(63.2425 220.595625) scale(0.16 -0.16)">
       <use xlink:href="#ArialMT-63"/>
       <use xlink:href="#ArialMT-6c" transform="translate(50 0)"/>
       <use xlink:href="#ArialMT-69" transform="translate(72.216797 0)"/>
       <use xlink:href="#ArialMT-70" transform="translate(94.433594 0)"/>
       <use xlink:href="#ArialMT-5f" transform="translate(150.048828 0)"/>
       <use xlink:href="#ArialMT-6c" transform="translate(205.664062 0)"/>
       <use xlink:href="#ArialMT-61" transform="translate(227.880859 0)"/>
       <use xlink:href="#ArialMT-72" transform="translate(283.496094 0)"/>
       <use xlink:href="#ArialMT-67" transform="translate(316.796875 0)"/>
       <use xlink:href="#ArialMT-65" transform="translate(372.412109 0)"/>
      </g>
     </g>
    </g>
    <g id="ytick_9">
     <g id="line2d_15">
      <path d="M 141.2225 191.882889 
L 810.8225 191.882889 
" clip-path="url(#p8cafbc673a)" style="fill: none; stroke: #cccccc; stroke-linecap: round"/>
     </g>
     <g id="text_16">
      <!-- bioclip_v1 -->
      <g style="fill: #262626" transform="translate(60.57 197.632889) scale(0.16 -0.16)">
       <use xlink:href="#ArialMT-62"/>
       <use xlink:href="#ArialMT-69" transform="translate(55.615234 0)"/>
       <use xlink:href="#ArialMT-6f" transform="translate(77.832031 0)"/>
       <use xlink:href="#ArialMT-63" transform="translate(133.447266 0)"/>
       <use xlink:href="#ArialMT-6c" transform="translate(183.447266 0)"/>
       <use xlink:href="#ArialMT-69" transform="translate(205.664062 0)"/>
       <use xlink:href="#ArialMT-70" transform="translate(227.880859 0)"/>
       <use xlink:href="#ArialMT-5f" transform="translate(283.496094 0)"/>
       <use xlink:href="#ArialMT-76" transform="translate(339.111328 0)"/>
       <use xlink:href="#ArialMT-31" transform="translate(389.111328 0)"/>
      </g>
     </g>
    </g>
    <g id="ytick_10">
     <g id="line2d_16">
      <path d="M 141.2225 168.896402 
L 810.8225 168.896402 
" clip-path="url(#p8cafbc673a)" style="fill: none; stroke: #cccccc; stroke-linecap: round"/>
     </g>
     <g id="text_17">
      <!-- siglip_so400m -->
      <g style="fill: #262626" transform="translate(29.4475 174.646402) scale(0.16 -0.16)">
       <use xlink:href="#ArialMT-73"/>
       <use xlink:href="#ArialMT-69" transform="translate(50 0)"/>
       <use xlink:href="#ArialMT-67" transform="translate(72.216797 0)"/>
       <use xlink:href="#ArialMT-6c" transform="translate(127.832031 0)"/>
       <use xlink:href="#ArialMT-69" transform="translate(150.048828 0)"/>
       <use xlink:href="#ArialMT-70" transform="translate(172.265625 0)"/>
       <use xlink:href="#ArialMT-5f" transform="translate(227.880859 0)"/>
       <use xlink:href="#ArialMT-73" transform="translate(283.496094 0)"/>
       <use xlink:href="#ArialMT-6f" transform="translate(333.496094 0)"/>
       <use xlink:href="#ArialMT-34" transform="translate(389.111328 0)"/>
       <use xlink:href="#ArialMT-30" transform="translate(444.726562 0)"/>
       <use xlink:href="#ArialMT-30" transform="translate(500.341797 0)"/>
       <use xlink:href="#ArialMT-6d" transform="translate(555.957031 0)"/>
      </g>
     </g>
    </g>
    <g id="ytick_11">
     <g id="line2d_17">
      <path d="M 141.2225 145.909916 
L 810.8225 145.909916 
" clip-path="url(#p8cafbc673a)" style="fill: none; stroke: #cccccc; stroke-linecap: round"/>
     </g>
     <g id="text_18">
      <!-- dinov2_small -->
      <g style="fill: #262626" transform="translate(38.345 151.659916) scale(0.16 -0.16)">
       <use xlink:href="#ArialMT-64"/>
       <use xlink:href="#ArialMT-69" transform="translate(55.615234 0)"/>
       <use xlink:href="#ArialMT-6e" transform="translate(77.832031 0)"/>
       <use xlink:href="#ArialMT-6f" transform="translate(133.447266 0)"/>
       <use xlink:href="#ArialMT-76" transform="translate(189.0625 0)"/>
       <use xlink:href="#ArialMT-32" transform="translate(239.0625 0)"/>
       <use xlink:href="#ArialMT-5f" transform="translate(294.677734 0)"/>
       <use xlink:href="#ArialMT-73" transform="translate(350.292969 0)"/>
       <use xlink:href="#ArialMT-6d" transform="translate(400.292969 0)"/>
       <use xlink:href="#ArialMT-61" transform="translate(483.59375 0)"/>
       <use xlink:href="#ArialMT-6c" transform="translate(539.208984 0)"/>
       <use xlink:href="#ArialMT-6c" transform="translate(561.425781 0)"/>
      </g>
     </g>
    </g>
    <g id="ytick_12">
     <g id="line2d_18">
      <path d="M 141.2225 122.923429 
L 810.8225 122.923429 
" clip-path="url(#p8cafbc673a)" style="fill: none; stroke: #cccccc; stroke-linecap: round"/>
     </g>
     <g id="text_19">
      <!-- siglip2_so400m -->
      <g style="fill: #262626" transform="translate(20.55 128.673429) scale(0.16 -0.16)">
       <use xlink:href="#ArialMT-73"/>
       <use xlink:href="#ArialMT-69" transform="translate(50 0)"/>
       <use xlink:href="#ArialMT-67" transform="translate(72.216797 0)"/>
       <use xlink:href="#ArialMT-6c" transform="translate(127.832031 0)"/>
       <use xlink:href="#ArialMT-69" transform="translate(150.048828 0)"/>
       <use xlink:href="#ArialMT-70" transform="translate(172.265625 0)"/>
       <use xlink:href="#ArialMT-32" transform="translate(227.880859 0)"/>
       <use xlink:href="#ArialMT-5f" transform="translate(283.496094 0)"/>
       <use xlink:href="#ArialMT-73" transform="translate(339.111328 0)"/>
       <use xlink:href="#ArialMT-6f" transform="translate(389.111328 0)"/>
       <use xlink:href="#ArialMT-34" transform="translate(444.726562 0)"/>
       <use xlink:href="#ArialMT-30" transform="translate(500.341797 0)"/>
       <use xlink:href="#ArialMT-30" transform="translate(555.957031 0)"/>
       <use xlink:href="#ArialMT-6d" transform="translate(611.572266 0)"/>
      </g>
     </g>
    </g>
    <g id="ytick_13">
     <g id="line2d_19">
      <path d="M 141.2225 99.936943 
L 810.8225 99.936943 
" clip-path="url(#p8cafbc673a)" style="fill: none; stroke: #cccccc; stroke-linecap: round"/>
     </g>
     <g id="text_20">
      <!-- dinov3_base -->
      <g style="fill: #262626" transform="translate(40.9875 105.686943) scale(0.16 -0.16)">
       <use xlink:href="#ArialMT-64"/>
       <use xlink:href="#ArialMT-69" transform="translate(55.615234 0)"/>
       <use xlink:href="#ArialMT-6e" transform="translate(77.832031 0)"/>
       <use xlink:href="#ArialMT-6f" transform="translate(133.447266 0)"/>
       <use xlink:href="#ArialMT-76" transform="translate(189.0625 0)"/>
       <use xlink:href="#ArialMT-33" transform="translate(239.0625 0)"/>
       <use xlink:href="#ArialMT-5f" transform="translate(294.677734 0)"/>
       <use xlink:href="#ArialMT-62" transform="translate(350.292969 0)"/>
       <use xlink:href="#ArialMT-61" transform="translate(405.908203 0)"/>
       <use xlink:href="#ArialMT-73" transform="translate(461.523438 0)"/>
       <use xlink:href="#ArialMT-65" transform="translate(511.523438 0)"/>
      </g>
     </g>
    </g>
    <g id="ytick_14">
     <g id="line2d_20">
      <path d="M 141.2225 76.950456 
L 810.8225 76.950456 
" clip-path="url(#p8cafbc673a)" style="fill: none; stroke: #cccccc; stroke-linecap: round"/>
     </g>
     <g id="text_21">
      <!-- dinov2_base -->
      <g style="fill: #262626" transform="translate(40.9875 82.700456) scale(0.16 -0.16)">
       <use xlink:href="#ArialMT-64"/>
       <use xlink:href="#ArialMT-69" transform="translate(55.615234 0)"/>
       <use xlink:href="#ArialMT-6e" transform="translate(77.832031 0)"/>
       <use xlink:href="#ArialMT-6f" transform="translate(133.447266 0)"/>
       <use xlink:href="#ArialMT-76" transform="translate(189.0625 0)"/>
       <use xlink:href="#ArialMT-32" transform="translate(239.0625 0)"/>
       <use xlink:href="#ArialMT-5f" transform="translate(294.677734 0)"/>
       <use xlink:href="#ArialMT-62" transform="translate(350.292969 0)"/>
       <use xlink:href="#ArialMT-61" transform="translate(405.908203 0)"/>
       <use xlink:href="#ArialMT-73" transform="translate(461.523438 0)"/>
       <use xlink:href="#ArialMT-65" transform="translate(511.523438 0)"/>
      </g>
     </g>
    </g>
    <g id="ytick_15">
     <g id="line2d_21">
      <path d="M 141.2225 53.96397 
L 810.8225 53.96397 
" clip-path="url(#p8cafbc673a)" style="fill: none; stroke: #cccccc; stroke-linecap: round"/>
     </g>
     <g id="text_22">
      <!-- bioclip_v2 -->
      <g style="fill: #262626" transform="translate(60.57 59.71397) scale(0.16 -0.16)">
       <use xlink:href="#ArialMT-62"/>
       <use xlink:href="#ArialMT-69" transform="translate(55.615234 0)"/>
       <use xlink:href="#ArialMT-6f" transform="translate(77.832031 0)"/>
       <use xlink:href="#ArialMT-63" transform="translate(133.447266 0)"/>
       <use xlink:href="#ArialMT-6c" transform="translate(183.447266 0)"/>
       <use xlink:href="#ArialMT-69" transform="translate(205.664062 0)"/>
       <use xlink:href="#ArialMT-70" transform="translate(227.880859 0)"/>
       <use xlink:href="#ArialMT-5f" transform="translate(283.496094 0)"/>
       <use xlink:href="#ArialMT-76" transform="translate(339.111328 0)"/>
       <use xlink:href="#ArialMT-32" transform="translate(389.111328 0)"/>
      </g>
     </g>
    </g>
   </g>
   <g id="patch_3">
    <path d="M 141.2225 384.969375 
L 487.79088 384.969375 
L 487.79088 366.580186 
L 141.2225 366.580186 
z
" clip-path="url(#p8cafbc673a)" style="fill: #1b5e20; stroke: #000000; stroke-width: 0.4; stroke-linejoin: miter"/>
   </g>
   <g id="patch_4">
    <path d="M 141.2225 361.982889 
L 516.066236 361.982889 
L 516.066236 343.593699 
L 141.2225 343.593699 
z
" clip-path="url(#p8cafbc673a)" style="fill: #1b5e20; stroke: #000000; stroke-width: 0.4; stroke-linejoin: miter"/>
   </g>
   <g id="patch_5">
    <path d="M 141.2225 338.996402 
L 533.744842 338.996402 
L 533.744842 320.607213 
L 141.2225 320.607213 
z
" clip-path="url(#p8cafbc673a)" style="fill: #1b5e20; stroke: #000000; stroke-width: 0.4; stroke-linejoin: miter"/>
   </g>
   <g id="patch_6">
    <path d="M 141.2225 316.009916 
L 536.999372 316.009916 
L 536.999372 297.620726 
L 141.2225 297.620726 
z
" clip-path="url(#p8cafbc673a)" style="fill: #1b5e20; stroke: #000000; stroke-width: 0.4; stroke-linejoin: miter"/>
   </g>
   <g id="patch_7">
    <path d="M 141.2225 293.023429 
L 539.472815 293.023429 
L 539.472815 274.63424 
L 141.2225 274.63424 
z
" clip-path="url(#p8cafbc673a)" style="fill: #1b5e20; stroke: #000000; stroke-width: 0.4; stroke-linejoin: miter"/>
   </g>
   <g id="patch_8">
    <path d="M 141.2225 270.036943 
L 539.733177 270.036943 
L 539.733177 251.647753 
L 141.2225 251.647753 
z
" clip-path="url(#p8cafbc673a)" style="fill: #1b5e20; stroke: #000000; stroke-width: 0.4; stroke-linejoin: miter"/>
   </g>
   <g id="patch_9">
    <path d="M 141.2225 247.050456 
L 553.688602 247.050456 
L 553.688602 228.661267 
L 141.2225 228.661267 
z
" clip-path="url(#p8cafbc673a)" style="fill: #1b5e20; stroke: #000000; stroke-width: 0.4; stroke-linejoin: miter"/>
   </g>
   <g id="patch_10">
    <path d="M 141.2225 224.06397 
L 593.081431 224.06397 
L 593.081431 205.67478 
L 141.2225 205.67478 
z
" clip-path="url(#p8cafbc673a)" style="fill: #1b5e20; stroke: #000000; stroke-width: 0.4; stroke-linejoin: miter"/>
   </g>
   <g id="patch_11">
    <path d="M 141.2225 201.077483 
L 636.093299 201.077483 
L 636.093299 182.688294 
L 141.2225 182.688294 
z
" clip-path="url(#p8cafbc673a)" style="fill: #1b5e20; stroke: #000000; stroke-width: 0.4; stroke-linejoin: miter"/>
   </g>
   <g id="patch_12">
    <path d="M 141.2225 178.090997 
L 637.525292 178.090997 
L 637.525292 159.701807 
L 141.2225 159.701807 
z
" clip-path="url(#p8cafbc673a)" style="fill: #1b5e20; stroke: #000000; stroke-width: 0.4; stroke-linejoin: miter"/>
   </g>
   <g id="patch_13">
    <path d="M 141.2225 155.10451 
L 640.831894 155.10451 
L 640.831894 136.715321 
L 141.2225 136.715321 
z
" clip-path="url(#p8cafbc673a)" style="fill: #1b5e20; stroke: #000000; stroke-width: 0.4; stroke-linejoin: miter"/>
   </g>
   <g id="patch_14">
    <path d="M 141.2225 132.118024 
L 646.143287 132.118024 
L 646.143287 113.728834 
L 141.2225 113.728834 
z
" clip-path="url(#p8cafbc673a)" style="fill: #1b5e20; stroke: #000000; stroke-width: 0.4; stroke-linejoin: miter"/>
   </g>
   <g id="patch_15">
    <path d="M 141.2225 109.131537 
L 649.267636 109.131537 
L 649.267636 90.742348 
L 141.2225 90.742348 
z
" clip-path="url(#p8cafbc673a)" style="fill: #1b5e20; stroke: #000000; stroke-width: 0.4; stroke-linejoin: miter"/>
   </g>
   <g id="patch_16">
    <path d="M 141.2225 86.145051 
L 680.537159 86.145051 
L 680.537159 67.755861 
L 141.2225 67.755861 
z
" clip-path="url(#p8cafbc673a)" style="fill: #1b5e20; stroke: #000000; stroke-width: 0.4; stroke-linejoin: miter"/>
   </g>
   <g id="patch_17">
    <path d="M 141.2225 63.158564 
L 727.688788 63.158564 
L 727.688788 44.769375 
L 141.2225 44.769375 
z
" clip-path="url(#p8cafbc673a)" style="fill: #1b5e20; stroke: #000000; stroke-width: 0.4; stroke-linejoin: miter"/>
   </g>
   <g id="patch_18">
    <path d="M 487.79088 384.969375 
L 528.641739 384.969375 
L 528.641739 366.580186 
L 487.79088 366.580186 
z
" clip-path="url(#p8cafbc673a)" style="fill: #f9a825; stroke: #000000; stroke-width: 0.4; stroke-linejoin: miter"/>
   </g>
   <g id="patch_19">
    <path d="M 516.066236 361.982889 
L 558.244943 361.982889 
L 558.244943 343.593699 
L 516.066236 343.593699 
z
" clip-path="url(#p8cafbc673a)" style="fill: #f9a825; stroke: #000000; stroke-width: 0.4; stroke-linejoin: miter"/>
   </g>
   <g id="patch_20">
    <path d="M 533.744842 338.996402 
L 575.012281 338.996402 
L 575.012281 320.607213 
L 533.744842 320.607213 
z
" clip-path="url(#p8cafbc673a)" style="fill: #f9a825; stroke: #000000; stroke-width: 0.4; stroke-linejoin: miter"/>
   </g>
   <g id="patch_21">
    <path d="M 536.999372 316.009916 
L 583.135588 316.009916 
L 583.135588 297.620726 
L 536.999372 297.620726 
z
" clip-path="url(#p8cafbc673a)" style="fill: #f9a825; stroke: #000000; stroke-width: 0.4; stroke-linejoin: miter"/>
   </g>
   <g id="patch_22">
    <path d="M 539.472815 293.023429 
L 583.708385 293.023429 
L 583.708385 274.63424 
L 539.472815 274.63424 
z
" clip-path="url(#p8cafbc673a)" style="fill: #f9a825; stroke: #000000; stroke-width: 0.4; stroke-linejoin: miter"/>
   </g>
   <g id="patch_23">
    <path d="M 539.733177 270.036943 
L 580.323674 270.036943 
L 580.323674 251.647753 
L 539.733177 251.647753 
z
" clip-path="url(#p8cafbc673a)" style="fill: #f9a825; stroke: #000000; stroke-width: 0.4; stroke-linejoin: miter"/>
   </g>
   <g id="patch_24">
    <path d="M 553.688602 247.050456 
L 592.118091 247.050456 
L 592.118091 228.661267 
L 553.688602 228.661267 
z
" clip-path="url(#p8cafbc673a)" style="fill: #f9a825; stroke: #000000; stroke-width: 0.4; stroke-linejoin: miter"/>
   </g>
   <g id="patch_25">
    <path d="M 593.081431 224.06397 
L 632.812733 224.06397 
L 632.812733 205.67478 
L 593.081431 205.67478 
z
" clip-path="url(#p8cafbc673a)" style="fill: #f9a825; stroke: #000000; stroke-width: 0.4; stroke-linejoin: miter"/>
   </g>
   <g id="patch_26">
    <path d="M 636.093299 201.077483 
L 671.762946 201.077483 
L 671.762946 182.688294 
L 636.093299 182.688294 
z
" clip-path="url(#p8cafbc673a)" style="fill: #f9a825; stroke: #000000; stroke-width: 0.4; stroke-linejoin: miter"/>
   </g>
   <g id="patch_27">
    <path d="M 637.525292 178.090997 
L 685.822516 178.090997 
L 685.822516 159.701807 
L 637.525292 159.701807 
z
" clip-path="url(#p8cafbc673a)" style="fill: #f9a825; stroke: #000000; stroke-width: 0.4; stroke-linejoin: miter"/>
   </g>
   <g id="patch_28">
    <path d="M 640.831894 155.10451 
L 680.276797 155.10451 
L 680.276797 136.715321 
L 640.831894 136.715321 
z
" clip-path="url(#p8cafbc673a)" style="fill: #f9a825; stroke: #000000; stroke-width: 0.4; stroke-linejoin: miter"/>
   </g>
   <g id="patch_29">
    <path d="M 646.143287 132.118024 
L 696.210975 132.118024 
L 696.210975 113.728834 
L 646.143287 113.728834 
z
" clip-path="url(#p8cafbc673a)" style="fill: #f9a825; stroke: #000000; stroke-width: 0.4; stroke-linejoin: miter"/>
   </g>
   <g id="patch_30">
    <path d="M 649.267636 109.131537 
L 686.004769 109.131537 
L 686.004769 90.742348 
L 649.267636 90.742348 
z
" clip-path="url(#p8cafbc673a)" style="fill: #f9a825; stroke: #000000; stroke-width: 0.4; stroke-linejoin: miter"/>
   </g>
   <g id="patch_31">
    <path d="M 680.537159 86.145051 
L 725.137237 86.145051 
L 725.137237 67.755861 
L 680.537159 67.755861 
z
" clip-path="url(#p8cafbc673a)" style="fill: #f9a825; stroke: #000000; stroke-width: 0.4; stroke-linejoin: miter"/>
   </g>
   <g id="patch_32">
    <path d="M 727.688788 63.158564 
L 762.759602 63.158564 
L 762.759602 44.769375 
L 727.688788 44.769375 
z
" clip-path="url(#p8cafbc673a)" style="fill: #f9a825; stroke: #000000; stroke-width: 0.4; stroke-linejoin: miter"/>
   </g>
   <g id="patch_33">
    <path d="M 528.641739 384.969375 
L 571.940005 384.969375 
L 571.940005 366.580186 
L 528.641739 366.580186 
z
" clip-path="url(#p8cafbc673a)" style="fill: #e65100; stroke: #000000; stroke-width: 0.4; stroke-linejoin: miter"/>
   </g>
   <g id="patch_34">
    <path d="M 558.244943 361.982889 
L 598.757332 361.982889 
L 598.757332 343.593699 
L 558.244943 343.593699 
z
" clip-path="url(#p8cafbc673a)" style="fill: #e65100; stroke: #000000; stroke-width: 0.4; stroke-linejoin: miter"/>
   </g>
   <g id="patch_35">
    <path d="M 575.012281 338.996402 
L 620.99228 338.996402 
L 620.99228 320.607213 
L 575.012281 320.607213 
z
" clip-path="url(#p8cafbc673a)" style="fill: #e65100; stroke: #000000; stroke-width: 0.4; stroke-linejoin: miter"/>
   </g>
   <g id="patch_36">
    <path d="M 583.135588 316.009916 
L 625.704839 316.009916 
L 625.704839 297.620726 
L 583.135588 297.620726 
z
" clip-path="url(#p8cafbc673a)" style="fill: #e65100; stroke: #000000; stroke-width: 0.4; stroke-linejoin: miter"/>
   </g>
   <g id="patch_37">
    <path d="M 583.708385 293.023429 
L 628.959369 293.023429 
L 628.959369 274.63424 
L 583.708385 274.63424 
z
" clip-path="url(#p8cafbc673a)" style="fill: #e65100; stroke: #000000; stroke-width: 0.4; stroke-linejoin: miter"/>
   </g>
   <g id="patch_38">
    <path d="M 580.323674 270.036943 
L 622.033729 270.036943 
L 622.033729 251.647753 
L 580.323674 251.647753 
z
" clip-path="url(#p8cafbc673a)" style="fill: #e65100; stroke: #000000; stroke-width: 0.4; stroke-linejoin: miter"/>
   </g>
   <g id="patch_39">
    <path d="M 592.118091 247.050456 
L 628.464681 247.050456 
L 628.464681 228.661267 
L 592.118091 228.661267 
z
" clip-path="url(#p8cafbc673a)" style="fill: #e65100; stroke: #000000; stroke-width: 0.4; stroke-linejoin: miter"/>
   </g>
   <g id="patch_40">
    <path d="M 632.812733 224.06397 
L 670.747533 224.06397 
L 670.747533 205.67478 
L 632.812733 205.67478 
z
" clip-path="url(#p8cafbc673a)" style="fill: #e65100; stroke: #000000; stroke-width: 0.4; stroke-linejoin: miter"/>
   </g>
   <g id="patch_41">
    <path d="M 671.762946 201.077483 
L 696.601519 201.077483 
L 696.601519 182.688294 
L 671.762946 182.688294 
z
" clip-path="url(#p8cafbc673a)" style="fill: #e65100; stroke: #000000; stroke-width: 0.4; stroke-linejoin: miter"/>
   </g>
   <g id="patch_42">
    <path d="M 685.822516 178.090997 
L 721.934779 178.090997 
L 721.934779 159.701807 
L 685.822516 159.701807 
z
" clip-path="url(#p8cafbc673a)" style="fill: #e65100; stroke: #000000; stroke-width: 0.4; stroke-linejoin: miter"/>
   </g>
   <g id="patch_43">
    <path d="M 680.276797 155.10451 
L 707.120159 155.10451 
L 707.120159 136.715321 
L 680.276797 136.715321 
z
" clip-path="url(#p8cafbc673a)" style="fill: #e65100; stroke: #000000; stroke-width: 0.4; stroke-linejoin: miter"/>
   </g>
   <g id="patch_44">
    <path d="M 696.210975 132.118024 
L 734.119739 132.118024 
L 734.119739 113.728834 
L 696.210975 113.728834 
z
" clip-path="url(#p8cafbc673a)" style="fill: #e65100; stroke: #000000; stroke-width: 0.4; stroke-linejoin: miter"/>
   </g>
   <g id="patch_45">
    <path d="M 686.004769 109.131537 
L 711.884791 109.131537 
L 711.884791 90.742348 
L 686.004769 90.742348 
z
" clip-path="url(#p8cafbc673a)" style="fill: #e65100; stroke: #000000; stroke-width: 0.4; stroke-linejoin: miter"/>
   </g>
   <g id="patch_46">
    <path d="M 725.137237 86.145051 
L 748.882287 86.145051 
L 748.882287 67.755861 
L 725.137237 67.755861 
z
" clip-path="url(#p8cafbc673a)" style="fill: #e65100; stroke: #000000; stroke-width: 0.4; stroke-linejoin: miter"/>
   </g>
   <g id="patch_47">
    <path d="M 762.759602 63.158564 
L 777.339896 63.158564 
L 777.339896 44.769375 
L 762.759602 44.769375 
z
" clip-path="url(#p8cafbc673a)" style="fill: #e65100; stroke: #000000; stroke-width: 0.4; stroke-linejoin: miter"/>
   </g>
   <g id="patch_48">
    <path d="M 571.940005 384.969375 
L 781.141187 384.969375 
L 781.141187 366.580186 
L 571.940005 366.580186 
z
" clip-path="url(#p8cafbc673a)" style="fill: #c62828; stroke: #000000; stroke-width: 0.4; stroke-linejoin: miter"/>
   </g>
   <g id="patch_49">
    <path d="M 598.757332 361.982889 
L 791.451538 361.982889 
L 791.451538 343.593699 
L 598.757332 343.593699 
z
" clip-path="url(#p8cafbc673a)" style="fill: #c62828; stroke: #000000; stroke-width: 0.4; stroke-linejoin: miter"/>
   </g>
   <g id="patch_50">
    <path d="M 620.99228 338.996402 
L 783.796884 338.996402 
L 783.796884 320.607213 
L 620.99228 320.607213 
z
" clip-path="url(#p8cafbc673a)" style="fill: #c62828; stroke: #000000; stroke-width: 0.4; stroke-linejoin: miter"/>
   </g>
   <g id="patch_51">
    <path d="M 625.704839 316.009916 
L 796.268242 316.009916 
L 796.268242 297.620726 
L 625.704839 297.620726 
z
" clip-path="url(#p8cafbc673a)" style="fill: #c62828; stroke: #000000; stroke-width: 0.4; stroke-linejoin: miter"/>
   </g>
   <g id="patch_52">
    <path d="M 628.959369 293.023429 
L 785.463203 293.023429 
L 785.463203 274.63424 
L 628.959369 274.63424 
z
" clip-path="url(#p8cafbc673a)" style="fill: #c62828; stroke: #000000; stroke-width: 0.4; stroke-linejoin: miter"/>
   </g>
   <g id="patch_53">
    <path d="M 622.033729 270.036943 
L 784.291572 270.036943 
L 784.291572 251.647753 
L 622.033729 251.647753 
z
" clip-path="url(#p8cafbc673a)" style="fill: #c62828; stroke: #000000; stroke-width: 0.4; stroke-linejoin: miter"/>
   </g>
   <g id="patch_54">
    <path d="M 628.464681 247.050456 
L 774.736272 247.050456 
L 774.736272 228.661267 
L 628.464681 228.661267 
z
" clip-path="url(#p8cafbc673a)" style="fill: #c62828; stroke: #000000; stroke-width: 0.4; stroke-linejoin: miter"/>
   </g>
   <g id="patch_55">
    <path d="M 670.747533 224.06397 
L 792.779386 224.06397 
L 792.779386 205.67478 
L 670.747533 205.67478 
z
" clip-path="url(#p8cafbc673a)" style="fill: #c62828; stroke: #000000; stroke-width: 0.4; stroke-linejoin: miter"/>
   </g>
   <g id="patch_56">
    <path d="M 696.601519 201.077483 
L 792.96164 201.077483 
L 792.96164 182.688294 
L 696.601519 182.688294 
z
" clip-path="url(#p8cafbc673a)" style="fill: #c62828; stroke: #000000; stroke-width: 0.4; stroke-linejoin: miter"/>
   </g>
   <g id="patch_57">
    <path d="M 721.934779 178.090997 
L 803.636498 178.090997 
L 803.636498 159.701807 
L 721.934779 159.701807 
z
" clip-path="url(#p8cafbc673a)" style="fill: #c62828; stroke: #000000; stroke-width: 0.4; stroke-linejoin: miter"/>
   </g>
   <g id="patch_58">
    <path d="M 707.120159 155.10451 
L 794.055162 155.10451 
L 794.055162 136.715321 
L 707.120159 136.715321 
z
" clip-path="url(#p8cafbc673a)" style="fill: #c62828; stroke: #000000; stroke-width: 0.4; stroke-linejoin: miter"/>
   </g>
   <g id="patch_59">
    <path d="M 734.119739 132.118024 
L 806.344267 132.118024 
L 806.344267 113.728834 
L 734.119739 113.728834 
z
" clip-path="url(#p8cafbc673a)" style="fill: #c62828; stroke: #000000; stroke-width: 0.4; stroke-linejoin: miter"/>
   </g>
   <g id="patch_60">
    <path d="M 711.884791 109.131537 
L 793.924981 109.131537 
L 793.924981 90.742348 
L 711.884791 90.742348 
z
" clip-path="url(#p8cafbc673a)" style="fill: #c62828; stroke: #000000; stroke-width: 0.4; stroke-linejoin: miter"/>
   </g>
   <g id="patch_61">
    <path d="M 748.882287 86.145051 
L 801.189091 86.145051 
L 801.189091 67.755861 
L 748.882287 67.755861 
z
" clip-path="url(#p8cafbc673a)" style="fill: #c62828; stroke: #000000; stroke-width: 0.4; stroke-linejoin: miter"/>
   </g>
   <g id="patch_62">
    <path d="M 777.339896 63.158564 
L 806.135977 63.158564 
L 806.135977 44.769375 
L 777.339896 44.769375 
z
" clip-path="url(#p8cafbc673a)" style="fill: #c62828; stroke: #000000; stroke-width: 0.4; stroke-linejoin: miter"/>
   </g>
   <g id="patch_63">
    <path d="M 781.141187 384.969375 
L 810.8225 384.969375 
L 810.8225 366.580186 
L 781.141187 366.580186 
z
" clip-path="url(#p8cafbc673a)" style="fill: #922b21; stroke: #000000; stroke-width: 0.4; stroke-linejoin: miter"/>
   </g>
   <g id="patch_64">
    <path d="M 791.451538 361.982889 
L 810.8225 361.982889 
L 810.8225 343.593699 
L 791.451538 343.593699 
z
" clip-path="url(#p8cafbc673a)" style="fill: #922b21; stroke: #000000; stroke-width: 0.4; stroke-linejoin: miter"/>
   </g>
   <g id="patch_65">
    <path d="M 783.796884 338.996402 
L 810.8225 338.996402 
L 810.8225 320.607213 
L 783.796884 320.607213 
z
" clip-path="url(#p8cafbc673a)" style="fill: #922b21; stroke: #000000; stroke-width: 0.4; stroke-linejoin: miter"/>
   </g>
   <g id="patch_66">
    <path d="M 796.268242 316.009916 
L 810.8225 316.009916 
L 810.8225 297.620726 
L 796.268242 297.620726 
z
" clip-path="url(#p8cafbc673a)" style="fill: #922b21; stroke: #000000; stroke-width: 0.4; stroke-linejoin: miter"/>
   </g>
   <g id="patch_67">
    <path d="M 785.463203 293.023429 
L 810.8225 293.023429 
L 810.8225 274.63424 
L 785.463203 274.63424 
z
" clip-path="url(#p8cafbc673a)" style="fill: #922b21; stroke: #000000; stroke-width: 0.4; stroke-linejoin: miter"/>
   </g>
   <g id="patch_68">
    <path d="M 784.291572 270.036943 
L 810.8225 270.036943 
L 810.8225 251.647753 
L 784.291572 251.647753 
z
" clip-path="url(#p8cafbc673a)" style="fill: #922b21; stroke: #000000; stroke-width: 0.4; stroke-linejoin: miter"/>
   </g>
   <g id="patch_69">
    <path d="M 774.736272 247.050456 
L 810.8225 247.050456 
L 810.8225 228.661267 
L 774.736272 228.661267 
z
" clip-path="url(#p8cafbc673a)" style="fill: #922b21; stroke: #000000; stroke-width: 0.4; stroke-linejoin: miter"/>
   </g>
   <g id="patch_70">
    <path d="M 792.779386 224.06397 
L 810.8225 224.06397 
L 810.8225 205.67478 
L 792.779386 205.67478 
z
" clip-path="url(#p8cafbc673a)" style="fill: #922b21; stroke: #000000; stroke-width: 0.4; stroke-linejoin: miter"/>
   </g>
   <g id="patch_71">
    <path d="M 792.96164 201.077483 
L 810.8225 201.077483 
L 810.8225 182.688294 
L 792.96164 182.688294 
z
" clip-path="url(#p8cafbc673a)" style="fill: #922b21; stroke: #000000; stroke-width: 0.4; stroke-linejoin: miter"/>
   </g>
   <g id="patch_72">
    <path d="M 803.636498 178.090997 
L 810.8225 178.090997 
L 810.8225 159.701807 
L 803.636498 159.701807 
z
" clip-path="url(#p8cafbc673a)" style="fill: #922b21; stroke: #000000; stroke-width: 0.4; stroke-linejoin: miter"/>
   </g>
   <g id="patch_73">
    <path d="M 794.055162 155.10451 
L 810.8225 155.10451 
L 810.8225 136.715321 
L 794.055162 136.715321 
z
" clip-path="url(#p8cafbc673a)" style="fill: #922b21; stroke: #000000; stroke-width: 0.4; stroke-linejoin: miter"/>
   </g>
   <g id="patch_74">
    <path d="M 806.344267 132.118024 
L 810.8225 132.118024 
L 810.8225 113.728834 
L 806.344267 113.728834 
z
" clip-path="url(#p8cafbc673a)" style="fill: #922b21; stroke: #000000; stroke-width: 0.4; stroke-linejoin: miter"/>
   </g>
   <g id="patch_75">
    <path d="M 793.924981 109.131537 
L 810.8225 109.131537 
L 810.8225 90.742348 
L 793.924981 90.742348 
z
" clip-path="url(#p8cafbc673a)" style="fill: #922b21; stroke: #000000; stroke-width: 0.4; stroke-linejoin: miter"/>
   </g>
   <g id="patch_76">
    <path d="M 801.189091 86.145051 
L 810.8225 86.145051 
L 810.8225 67.755861 
L 801.189091 67.755861 
z
" clip-path="url(#p8cafbc673a)" style="fill: #922b21; stroke: #000000; stroke-width: 0.4; stroke-linejoin: miter"/>
   </g>
   <g id="patch_77">
    <path d="M 806.135977 63.158564 
L 810.8225 63.158564 
L 810.8225 44.769375 
L 806.135977 44.769375 
z
" clip-path="url(#p8cafbc673a)" style="fill: #922b21; stroke: #000000; stroke-width: 0.4; stroke-linejoin: miter"/>
   </g>
   <g id="patch_78">
    <path d="M 141.2225 401.979375 
L 141.2225 27.759375 
" style="fill: none; stroke: #cccccc; stroke-width: 1.25; stroke-linejoin: miter; stroke-linecap: square"/>
   </g>
   <g id="patch_79">
    <path d="M 810.8225 401.979375 
L 810.8225 27.759375 
" style="fill: none; stroke: #cccccc; stroke-width: 1.25; stroke-linejoin: miter; stroke-linecap: square"/>
   </g>
   <g id="patch_80">
    <path d="M 141.2225 401.979375 
L 810.8225 401.979375 
" style="fill: none; stroke: #cccccc; stroke-width: 1.25; stroke-linejoin: miter; stroke-linecap: square"/>
   </g>
   <g id="patch_81">
    <path d="M 141.2225 27.759375 
L 810.8225 27.759375 
" style="fill: none; stroke: #cccccc; stroke-width: 1.25; stroke-linejoin: miter; stroke-linecap: square"/>
   </g>
   <g id="text_23">
    <!-- Ranking de Errores Taxonómicos por Backbone -->
    <g style="fill: #1b4f25" transform="translate(247.82875 21.759375) scale(0.2 -0.2)">
     <defs>
      <path id="Arial-BoldMT-52" d="M 469 0 
L 469 4581 
L 2416 4581 
Q 3150 4581 3483 4457 
Q 3816 4334 4016 4018 
Q 4216 3703 4216 3297 
Q 4216 2781 3912 2445 
Q 3609 2109 3006 2022 
Q 3306 1847 3501 1637 
Q 3697 1428 4028 894 
L 4588 0 
L 3481 0 
L 2813 997 
Q 2456 1531 2325 1670 
Q 2194 1809 2047 1861 
Q 1900 1913 1581 1913 
L 1394 1913 
L 1394 0 
L 469 0 
z
M 1394 2644 
L 2078 2644 
Q 2744 2644 2909 2700 
Q 3075 2756 3169 2893 
Q 3263 3031 3263 3238 
Q 3263 3469 3139 3611 
Q 3016 3753 2791 3791 
Q 2678 3806 2116 3806 
L 1394 3806 
L 1394 2644 
z
" transform="scale(0.015625)"/>
      <path id="Arial-BoldMT-61" d="M 1116 2306 
L 319 2450 
Q 453 2931 781 3162 
Q 1109 3394 1756 3394 
Q 2344 3394 2631 3255 
Q 2919 3116 3036 2902 
Q 3153 2688 3153 2116 
L 3144 1091 
Q 3144 653 3186 445 
Q 3228 238 3344 0 
L 2475 0 
Q 2441 88 2391 259 
Q 2369 338 2359 363 
Q 2134 144 1878 34 
Q 1622 -75 1331 -75 
Q 819 -75 523 203 
Q 228 481 228 906 
Q 228 1188 362 1408 
Q 497 1628 739 1745 
Q 981 1863 1438 1950 
Q 2053 2066 2291 2166 
L 2291 2253 
Q 2291 2506 2166 2614 
Q 2041 2722 1694 2722 
Q 1459 2722 1328 2630 
Q 1197 2538 1116 2306 
z
M 2291 1594 
Q 2122 1538 1756 1459 
Q 1391 1381 1278 1306 
Q 1106 1184 1106 997 
Q 1106 813 1243 678 
Q 1381 544 1594 544 
Q 1831 544 2047 700 
Q 2206 819 2256 991 
Q 2291 1103 2291 1419 
L 2291 1594 
z
" transform="scale(0.015625)"/>
      <path id="Arial-BoldMT-6e" d="M 3478 0 
L 2600 0 
L 2600 1694 
Q 2600 2231 2544 2389 
Q 2488 2547 2361 2634 
Q 2234 2722 2056 2722 
Q 1828 2722 1647 2597 
Q 1466 2472 1398 2265 
Q 1331 2059 1331 1503 
L 1331 0 
L 453 0 
L 453 3319 
L 1269 3319 
L 1269 2831 
Q 1703 3394 2363 3394 
Q 2653 3394 2893 3289 
Q 3134 3184 3257 3021 
Q 3381 2859 3429 2653 
Q 3478 2447 3478 2063 
L 3478 0 
z
" transform="scale(0.015625)"/>
      <path id="Arial-BoldMT-6b" d="M 428 0 
L 428 4581 
L 1306 4581 
L 1306 2150 
L 2334 3319 
L 3416 3319 
L 2281 2106 
L 3497 0 
L 2550 0 
L 1716 1491 
L 1306 1063 
L 1306 0 
L 428 0 
z
" transform="scale(0.015625)"/>
      <path id="Arial-BoldMT-69" d="M 459 3769 
L 459 4581 
L 1338 4581 
L 1338 3769 
L 459 3769 
z
M 459 0 
L 459 3319 
L 1338 3319 
L 1338 0 
L 459 0 
z
" transform="scale(0.015625)"/>
      <path id="Arial-BoldMT-67" d="M 378 -219 
L 1381 -341 
Q 1406 -516 1497 -581 
Q 1622 -675 1891 -675 
Q 2234 -675 2406 -572 
Q 2522 -503 2581 -350 
Q 2622 -241 2622 53 
L 2622 538 
Q 2228 0 1628 0 
Q 959 0 569 566 
Q 263 1013 263 1678 
Q 263 2513 664 2953 
Q 1066 3394 1663 3394 
Q 2278 3394 2678 2853 
L 2678 3319 
L 3500 3319 
L 3500 341 
Q 3500 -247 3403 -537 
Q 3306 -828 3131 -993 
Q 2956 -1159 2664 -1253 
Q 2372 -1347 1925 -1347 
Q 1081 -1347 728 -1058 
Q 375 -769 375 -325 
Q 375 -281 378 -219 
z
M 1163 1728 
Q 1163 1200 1367 954 
Q 1572 709 1872 709 
Q 2194 709 2416 961 
Q 2638 1213 2638 1706 
Q 2638 2222 2425 2472 
Q 2213 2722 1888 2722 
Q 1572 2722 1367 2476 
Q 1163 2231 1163 1728 
z
" transform="scale(0.015625)"/>
      <path id="Arial-BoldMT-20" transform="scale(0.015625)"/>
      <path id="Arial-BoldMT-64" d="M 3503 0 
L 2688 0 
L 2688 488 
Q 2484 203 2207 64 
Q 1931 -75 1650 -75 
Q 1078 -75 670 386 
Q 263 847 263 1672 
Q 263 2516 659 2955 
Q 1056 3394 1663 3394 
Q 2219 3394 2625 2931 
L 2625 4581 
L 3503 4581 
L 3503 0 
z
M 1159 1731 
Q 1159 1200 1306 963 
Q 1519 619 1900 619 
Q 2203 619 2415 876 
Q 2628 1134 2628 1647 
Q 2628 2219 2422 2470 
Q 2216 2722 1894 2722 
Q 1581 2722 1370 2473 
Q 1159 2225 1159 1731 
z
" transform="scale(0.015625)"/>
      <path id="Arial-BoldMT-65" d="M 2381 1056 
L 3256 909 
Q 3088 428 2723 176 
Q 2359 -75 1813 -75 
Q 947 -75 531 491 
Q 203 944 203 1634 
Q 203 2459 634 2926 
Q 1066 3394 1725 3394 
Q 2466 3394 2894 2905 
Q 3322 2416 3303 1406 
L 1103 1406 
Q 1113 1016 1316 798 
Q 1519 581 1822 581 
Q 2028 581 2168 693 
Q 2309 806 2381 1056 
z
M 2431 1944 
Q 2422 2325 2234 2523 
Q 2047 2722 1778 2722 
Q 1491 2722 1303 2513 
Q 1116 2303 1119 1944 
L 2431 1944 
z
" transform="scale(0.015625)"/>
      <path id="Arial-BoldMT-45" d="M 466 0 
L 466 4581 
L 3863 4581 
L 3863 3806 
L 1391 3806 
L 1391 2791 
L 3691 2791 
L 3691 2019 
L 1391 2019 
L 1391 772 
L 3950 772 
L 3950 0 
L 466 0 
z
" transform="scale(0.015625)"/>
      <path id="Arial-BoldMT-72" d="M 1300 0 
L 422 0 
L 422 3319 
L 1238 3319 
L 1238 2847 
Q 1447 3181 1614 3287 
Q 1781 3394 1994 3394 
Q 2294 3394 2572 3228 
L 2300 2463 
Q 2078 2606 1888 2606 
Q 1703 2606 1575 2504 
Q 1447 2403 1373 2137 
Q 1300 1872 1300 1025 
L 1300 0 
z
" transform="scale(0.015625)"/>
      <path id="Arial-BoldMT-6f" d="M 256 1706 
Q 256 2144 472 2553 
Q 688 2963 1083 3178 
Q 1478 3394 1966 3394 
Q 2719 3394 3200 2905 
Q 3681 2416 3681 1669 
Q 3681 916 3195 420 
Q 2709 -75 1972 -75 
Q 1516 -75 1102 131 
Q 688 338 472 736 
Q 256 1134 256 1706 
z
M 1156 1659 
Q 1156 1166 1390 903 
Q 1625 641 1969 641 
Q 2313 641 2545 903 
Q 2778 1166 2778 1666 
Q 2778 2153 2545 2415 
Q 2313 2678 1969 2678 
Q 1625 2678 1390 2415 
Q 1156 2153 1156 1659 
z
" transform="scale(0.015625)"/>
      <path id="Arial-BoldMT-73" d="M 150 947 
L 1031 1081 
Q 1088 825 1259 692 
Q 1431 559 1741 559 
Q 2081 559 2253 684 
Q 2369 772 2369 919 
Q 2369 1019 2306 1084 
Q 2241 1147 2013 1200 
Q 950 1434 666 1628 
Q 272 1897 272 2375 
Q 272 2806 612 3100 
Q 953 3394 1669 3394 
Q 2350 3394 2681 3172 
Q 3013 2950 3138 2516 
L 2309 2363 
Q 2256 2556 2107 2659 
Q 1959 2763 1684 2763 
Q 1338 2763 1188 2666 
Q 1088 2597 1088 2488 
Q 1088 2394 1175 2328 
Q 1294 2241 1995 2081 
Q 2697 1922 2975 1691 
Q 3250 1456 3250 1038 
Q 3250 581 2869 253 
Q 2488 -75 1741 -75 
Q 1063 -75 667 200 
Q 272 475 150 947 
z
" transform="scale(0.015625)"/>
      <path id="Arial-BoldMT-54" d="M 1497 0 
L 1497 3806 
L 138 3806 
L 138 4581 
L 3778 4581 
L 3778 3806 
L 2422 3806 
L 2422 0 
L 1497 0 
z
" transform="scale(0.015625)"/>
      <path id="Arial-BoldMT-78" d="M 38 0 
L 1234 1709 
L 88 3319 
L 1159 3319 
L 1747 2406 
L 2366 3319 
L 3397 3319 
L 2272 1747 
L 3500 0 
L 2422 0 
L 1747 1028 
L 1066 0 
L 38 0 
z
" transform="scale(0.015625)"/>
      <path id="Arial-BoldMT-f3" d="M 256 1706 
Q 256 2144 472 2553 
Q 688 2963 1083 3178 
Q 1478 3394 1966 3394 
Q 2719 3394 3200 2905 
Q 3681 2416 3681 1669 
Q 3681 916 3195 420 
Q 2709 -75 1972 -75 
Q 1516 -75 1102 131 
Q 688 338 472 736 
Q 256 1134 256 1706 
z
M 1156 1659 
Q 1156 1166 1390 903 
Q 1625 641 1969 641 
Q 2313 641 2545 903 
Q 2778 1166 2778 1666 
Q 2778 2153 2545 2415 
Q 2313 2678 1969 2678 
Q 1625 2678 1390 2415 
Q 1156 2153 1156 1659 
z
M 1528 3725 
L 1960 4659 
L 2944 4659 
L 2085 3725 
L 1528 3725 
z
" transform="scale(0.015625)"/>
      <path id="Arial-BoldMT-6d" d="M 394 3319 
L 1203 3319 
L 1203 2866 
Q 1638 3394 2238 3394 
Q 2556 3394 2790 3262 
Q 3025 3131 3175 2866 
Q 3394 3131 3647 3262 
Q 3900 3394 4188 3394 
Q 4553 3394 4806 3245 
Q 5059 3097 5184 2809 
Q 5275 2597 5275 2122 
L 5275 0 
L 4397 0 
L 4397 1897 
Q 4397 2391 4306 2534 
Q 4184 2722 3931 2722 
Q 3747 2722 3584 2609 
Q 3422 2497 3350 2280 
Q 3278 2063 3278 1594 
L 3278 0 
L 2400 0 
L 2400 1819 
Q 2400 2303 2353 2443 
Q 2306 2584 2207 2653 
Q 2109 2722 1941 2722 
Q 1738 2722 1575 2612 
Q 1413 2503 1342 2297 
Q 1272 2091 1272 1613 
L 1272 0 
L 394 0 
L 394 3319 
z
" transform="scale(0.015625)"/>
      <path id="Arial-BoldMT-63" d="M 3353 2338 
L 2488 2181 
Q 2444 2441 2289 2572 
Q 2134 2703 1888 2703 
Q 1559 2703 1364 2476 
Q 1169 2250 1169 1719 
Q 1169 1128 1367 884 
Q 1566 641 1900 641 
Q 2150 641 2309 783 
Q 2469 925 2534 1272 
L 3397 1125 
Q 3263 531 2881 228 
Q 2500 -75 1859 -75 
Q 1131 -75 698 384 
Q 266 844 266 1656 
Q 266 2478 700 2936 
Q 1134 3394 1875 3394 
Q 2481 3394 2839 3133 
Q 3197 2872 3353 2338 
z
" transform="scale(0.015625)"/>
      <path id="Arial-BoldMT-70" d="M 434 3319 
L 1253 3319 
L 1253 2831 
Q 1413 3081 1684 3237 
Q 1956 3394 2288 3394 
Q 2866 3394 3269 2941 
Q 3672 2488 3672 1678 
Q 3672 847 3265 386 
Q 2859 -75 2281 -75 
Q 2006 -75 1782 34 
Q 1559 144 1313 409 
L 1313 -1263 
L 434 -1263 
L 434 3319 
z
M 1303 1716 
Q 1303 1156 1525 889 
Q 1747 622 2066 622 
Q 2372 622 2575 867 
Q 2778 1113 2778 1672 
Q 2778 2194 2568 2447 
Q 2359 2700 2050 2700 
Q 1728 2700 1515 2451 
Q 1303 2203 1303 1716 
z
" transform="scale(0.015625)"/>
      <path id="Arial-BoldMT-42" d="M 469 4581 
L 2300 4581 
Q 2844 4581 3111 4536 
Q 3378 4491 3589 4347 
Q 3800 4203 3940 3964 
Q 4081 3725 4081 3428 
Q 4081 3106 3907 2837 
Q 3734 2569 3438 2434 
Q 3856 2313 4081 2019 
Q 4306 1725 4306 1328 
Q 4306 1016 4161 720 
Q 4016 425 3764 248 
Q 3513 72 3144 31 
Q 2913 6 2028 0 
L 469 0 
L 469 4581 
z
M 1394 3819 
L 1394 2759 
L 2000 2759 
Q 2541 2759 2672 2775 
Q 2909 2803 3045 2939 
Q 3181 3075 3181 3297 
Q 3181 3509 3064 3642 
Q 2947 3775 2716 3803 
Q 2578 3819 1925 3819 
L 1394 3819 
z
M 1394 1997 
L 1394 772 
L 2250 772 
Q 2750 772 2884 800 
Q 3091 838 3220 983 
Q 3350 1128 3350 1372 
Q 3350 1578 3250 1722 
Q 3150 1866 2961 1931 
Q 2772 1997 2141 1997 
L 1394 1997 
z
" transform="scale(0.015625)"/>
      <path id="Arial-BoldMT-62" d="M 422 0 
L 422 4581 
L 1300 4581 
L 1300 2931 
Q 1706 3394 2263 3394 
Q 2869 3394 3266 2955 
Q 3663 2516 3663 1694 
Q 3663 844 3258 384 
Q 2853 -75 2275 -75 
Q 1991 -75 1714 67 
Q 1438 209 1238 488 
L 1238 0 
L 422 0 
z
M 1294 1731 
Q 1294 1216 1456 969 
Q 1684 619 2063 619 
Q 2353 619 2558 867 
Q 2763 1116 2763 1650 
Q 2763 2219 2556 2470 
Q 2350 2722 2028 2722 
Q 1713 2722 1503 2476 
Q 1294 2231 1294 1731 
z
" transform="scale(0.015625)"/>
     </defs>
     <use xlink:href="#Arial-BoldMT-52"/>
     <use xlink:href="#Arial-BoldMT-61" transform="translate(72.216797 0)"/>
     <use xlink:href="#Arial-BoldMT-6e" transform="translate(127.832031 0)"/>
     <use xlink:href="#Arial-BoldMT-6b" transform="translate(188.916016 0)"/>
     <use xlink:href="#Arial-BoldMT-69" transform="translate(244.53125 0)"/>
     <use xlink:href="#Arial-BoldMT-6e" transform="translate(272.314453 0)"/>
     <use xlink:href="#Arial-BoldMT-67" transform="translate(333.398438 0)"/>
     <use xlink:href="#Arial-BoldMT-20" transform="translate(394.482422 0)"/>
     <use xlink:href="#Arial-BoldMT-64" transform="translate(422.265625 0)"/>
     <use xlink:href="#Arial-BoldMT-65" transform="translate(483.349609 0)"/>
     <use xlink:href="#Arial-BoldMT-20" transform="translate(538.964844 0)"/>
     <use xlink:href="#Arial-BoldMT-45" transform="translate(566.748047 0)"/>
     <use xlink:href="#Arial-BoldMT-72" transform="translate(633.447266 0)"/>
     <use xlink:href="#Arial-BoldMT-72" transform="translate(672.363281 0)"/>
     <use xlink:href="#Arial-BoldMT-6f" transform="translate(711.279297 0)"/>
     <use xlink:href="#Arial-BoldMT-72" transform="translate(772.363281 0)"/>
     <use xlink:href="#Arial-BoldMT-65" transform="translate(811.279297 0)"/>
     <use xlink:href="#Arial-BoldMT-73" transform="translate(866.894531 0)"/>
     <use xlink:href="#Arial-BoldMT-20" transform="translate(922.509766 0)"/>
     <use xlink:href="#Arial-BoldMT-54" transform="translate(950.292969 0)"/>
     <use xlink:href="#Arial-BoldMT-61" transform="translate(1004.001953 0)"/>
     <use xlink:href="#Arial-BoldMT-78" transform="translate(1059.617188 0)"/>
     <use xlink:href="#Arial-BoldMT-6f" transform="translate(1115.232422 0)"/>
     <use xlink:href="#Arial-BoldMT-6e" transform="translate(1176.316406 0)"/>
     <use xlink:href="#Arial-BoldMT-f3" transform="translate(1237.400391 0)"/>
     <use xlink:href="#Arial-BoldMT-6d" transform="translate(1298.484375 0)"/>
     <use xlink:href="#Arial-BoldMT-69" transform="translate(1387.400391 0)"/>
     <use xlink:href="#Arial-BoldMT-63" transform="translate(1415.183594 0)"/>
     <use xlink:href="#Arial-BoldMT-6f" transform="translate(1470.798828 0)"/>
     <use xlink:href="#Arial-BoldMT-73" transform="translate(1531.882812 0)"/>
     <use xlink:href="#Arial-BoldMT-20" transform="translate(1587.498047 0)"/>
     <use xlink:href="#Arial-BoldMT-70" transform="translate(1615.28125 0)"/>
     <use xlink:href="#Arial-BoldMT-6f" transform="translate(1676.365234 0)"/>
     <use xlink:href="#Arial-BoldMT-72" transform="translate(1737.449219 0)"/>
     <use xlink:href="#Arial-BoldMT-20" transform="translate(1776.365234 0)"/>
     <use xlink:href="#Arial-BoldMT-42" transform="translate(1804.148438 0)"/>
     <use xlink:href="#Arial-BoldMT-61" transform="translate(1876.365234 0)"/>
     <use xlink:href="#Arial-BoldMT-63" transform="translate(1931.980469 0)"/>
     <use xlink:href="#Arial-BoldMT-6b" transform="translate(1987.595703 0)"/>
     <use xlink:href="#Arial-BoldMT-62" transform="translate(2043.210938 0)"/>
     <use xlink:href="#Arial-BoldMT-6f" transform="translate(2104.294922 0)"/>
     <use xlink:href="#Arial-BoldMT-6e" transform="translate(2165.378906 0)"/>
     <use xlink:href="#Arial-BoldMT-65" transform="translate(2226.462891 0)"/>
    </g>
   </g>
   <g id="legend_1">
    <g id="patch_82">
     <path d="M 833.3145 149.108281 
L 1055.521063 149.108281 
Q 1058.121063 149.108281 1058.121063 146.508281 
L 1058.121063 36.859375 
Q 1058.121063 34.259375 1055.521063 34.259375 
L 833.3145 34.259375 
Q 830.7145 34.259375 830.7145 36.859375 
L 830.7145 146.508281 
Q 830.7145 149.108281 833.3145 149.108281 
z
" style="fill: #ffffff; opacity: 0.8; stroke: #cccccc; stroke-linejoin: miter"/>
    </g>
    <g id="text_24">
     <!-- Categoría -->
     <g style="fill: #262626" transform="translate(918.070281 48.195) scale(0.12 -0.12)">
      <defs>
       <path id="ArialMT-43" d="M 3763 1606 
L 4369 1453 
Q 4178 706 3683 314 
Q 3188 -78 2472 -78 
Q 1731 -78 1267 223 
Q 803 525 561 1097 
Q 319 1669 319 2325 
Q 319 3041 592 3573 
Q 866 4106 1370 4382 
Q 1875 4659 2481 4659 
Q 3169 4659 3637 4309 
Q 4106 3959 4291 3325 
L 3694 3184 
Q 3534 3684 3231 3912 
Q 2928 4141 2469 4141 
Q 1941 4141 1586 3887 
Q 1231 3634 1087 3207 
Q 944 2781 944 2328 
Q 944 1744 1114 1308 
Q 1284 872 1643 656 
Q 2003 441 2422 441 
Q 2931 441 3284 734 
Q 3638 1028 3763 1606 
z
" transform="scale(0.015625)"/>
       <path id="ArialMT-ed" d="M 619 0 
L 619 3319 
L 1181 3319 
L 1181 0 
L 619 0 
z
M 590 3731 
L 1005 4606 
L 1743 4606 
L 1055 3731 
L 590 3731 
z
" transform="scale(0.015625)"/>
      </defs>
      <use xlink:href="#ArialMT-43"/>
      <use xlink:href="#ArialMT-61" transform="translate(72.216797 0)"/>
      <use xlink:href="#ArialMT-74" transform="translate(127.832031 0)"/>
      <use xlink:href="#ArialMT-65" transform="translate(155.615234 0)"/>
      <use xlink:href="#ArialMT-67" transform="translate(211.230469 0)"/>
      <use xlink:href="#ArialMT-6f" transform="translate(266.845703 0)"/>
      <use xlink:href="#ArialMT-72" transform="translate(322.460938 0)"/>
      <use xlink:href="#ArialMT-ed" transform="translate(355.761719 0)"/>
      <use xlink:href="#ArialMT-61" transform="translate(383.544922 0)"/>
     </g>
    </g>
    <g id="patch_83">
     <path d="M 835.9145 66.525781 
L 861.9145 66.525781 
L 861.9145 57.425781 
L 835.9145 57.425781 
z
" style="fill: #1b5e20; stroke: #000000; stroke-width: 0.4; stroke-linejoin: miter"/>
    </g>
    <g id="text_25">
     <!-- Correcto -->
     <g style="fill: #262626" transform="translate(872.3145 66.525781) scale(0.13 -0.13)">
      <use xlink:href="#ArialMT-43"/>
      <use xlink:href="#ArialMT-6f" transform="translate(72.216797 0)"/>
      <use xlink:href="#ArialMT-72" transform="translate(127.832031 0)"/>
      <use xlink:href="#ArialMT-72" transform="translate(161.132812 0)"/>
      <use xlink:href="#ArialMT-65" transform="translate(194.433594 0)"/>
      <use xlink:href="#ArialMT-63" transform="translate(250.048828 0)"/>
      <use xlink:href="#ArialMT-74" transform="translate(300.048828 0)"/>
      <use xlink:href="#ArialMT-6f" transform="translate(327.832031 0)"/>
     </g>
    </g>
    <g id="patch_84">
     <path d="M 835.9145 85.073125 
L 861.9145 85.073125 
L 861.9145 75.973125 
L 835.9145 75.973125 
z
" style="fill: #f9a825; stroke: #000000; stroke-width: 0.4; stroke-linejoin: miter"/>
    </g>
    <g id="text_26">
     <!-- Leve (Género) -->
     <g style="fill: #262626" transform="translate(872.3145 85.073125) scale(0.13 -0.13)">
      <defs>
       <path id="ArialMT-4c" d="M 469 0 
L 469 4581 
L 1075 4581 
L 1075 541 
L 3331 541 
L 3331 0 
L 469 0 
z
" transform="scale(0.015625)"/>
       <path id="ArialMT-47" d="M 2638 1797 
L 2638 2334 
L 4578 2338 
L 4578 638 
Q 4131 281 3656 101 
Q 3181 -78 2681 -78 
Q 2006 -78 1454 211 
Q 903 500 622 1047 
Q 341 1594 341 2269 
Q 341 2938 620 3517 
Q 900 4097 1425 4378 
Q 1950 4659 2634 4659 
Q 3131 4659 3532 4498 
Q 3934 4338 4162 4050 
Q 4391 3763 4509 3300 
L 3963 3150 
Q 3859 3500 3706 3700 
Q 3553 3900 3268 4020 
Q 2984 4141 2638 4141 
Q 2222 4141 1919 4014 
Q 1616 3888 1430 3681 
Q 1244 3475 1141 3228 
Q 966 2803 966 2306 
Q 966 1694 1177 1281 
Q 1388 869 1791 669 
Q 2194 469 2647 469 
Q 3041 469 3416 620 
Q 3791 772 3984 944 
L 3984 1797 
L 2638 1797 
z
" transform="scale(0.015625)"/>
       <path id="ArialMT-e9" d="M 2694 1069 
L 3275 997 
Q 3138 488 2766 206 
Q 2394 -75 1816 -75 
Q 1088 -75 661 373 
Q 234 822 234 1631 
Q 234 2469 665 2931 
Q 1097 3394 1784 3394 
Q 2450 3394 2872 2941 
Q 3294 2488 3294 1666 
Q 3294 1616 3291 1516 
L 816 1516 
Q 847 969 1125 678 
Q 1403 388 1819 388 
Q 2128 388 2347 550 
Q 2566 713 2694 1069 
z
M 847 1978 
L 2700 1978 
Q 2663 2397 2488 2606 
Q 2219 2931 1791 2931 
Q 1403 2931 1139 2672 
Q 875 2413 847 1978 
z
M 1454 3731 
L 1869 4606 
L 2607 4606 
L 1919 3731 
L 1454 3731 
z
" transform="scale(0.015625)"/>
      </defs>
      <use xlink:href="#ArialMT-4c"/>
      <use xlink:href="#ArialMT-65" transform="translate(55.615234 0)"/>
      <use xlink:href="#ArialMT-76" transform="translate(111.230469 0)"/>
      <use xlink:href="#ArialMT-65" transform="translate(161.230469 0)"/>
      <use xlink:href="#ArialMT-20" transform="translate(216.845703 0)"/>
      <use xlink:href="#ArialMT-28" transform="translate(244.628906 0)"/>
      <use xlink:href="#ArialMT-47" transform="translate(277.929688 0)"/>
      <use xlink:href="#ArialMT-e9" transform="translate(355.712891 0)"/>
      <use xlink:href="#ArialMT-6e" transform="translate(411.328125 0)"/>
      <use xlink:href="#ArialMT-65" transform="translate(466.943359 0)"/>
      <use xlink:href="#ArialMT-72" transform="translate(522.558594 0)"/>
      <use xlink:href="#ArialMT-6f" transform="translate(555.859375 0)"/>
      <use xlink:href="#ArialMT-29" transform="translate(611.474609 0)"/>
     </g>
    </g>
    <g id="patch_85">
     <path d="M 835.9145 103.772812 
L 861.9145 103.772812 
L 861.9145 94.672812 
L 835.9145 94.672812 
z
" style="fill: #e65100; stroke: #000000; stroke-width: 0.4; stroke-linejoin: miter"/>
    </g>
    <g id="text_27">
     <!-- Medio (Familia) -->
     <g style="fill: #262626" transform="translate(872.3145 103.772812) scale(0.13 -0.13)">
      <defs>
       <path id="ArialMT-4d" d="M 475 0 
L 475 4581 
L 1388 4581 
L 2472 1338 
Q 2622 884 2691 659 
Q 2769 909 2934 1394 
L 4031 4581 
L 4847 4581 
L 4847 0 
L 4263 0 
L 4263 3834 
L 2931 0 
L 2384 0 
L 1059 3900 
L 1059 0 
L 475 0 
z
" transform="scale(0.015625)"/>
       <path id="ArialMT-46" d="M 525 0 
L 525 4581 
L 3616 4581 
L 3616 4041 
L 1131 4041 
L 1131 2622 
L 3281 2622 
L 3281 2081 
L 1131 2081 
L 1131 0 
L 525 0 
z
" transform="scale(0.015625)"/>
      </defs>
      <use xlink:href="#ArialMT-4d"/>
      <use xlink:href="#ArialMT-65" transform="translate(83.300781 0)"/>
      <use xlink:href="#ArialMT-64" transform="translate(138.916016 0)"/>
      <use xlink:href="#ArialMT-69" transform="translate(194.53125 0)"/>
      <use xlink:href="#ArialMT-6f" transform="translate(216.748047 0)"/>
      <use xlink:href="#ArialMT-20" transform="translate(272.363281 0)"/>
      <use xlink:href="#ArialMT-28" transform="translate(300.146484 0)"/>
      <use xlink:href="#ArialMT-46" transform="translate(333.447266 0)"/>
      <use xlink:href="#ArialMT-61" transform="translate(394.53125 0)"/>
      <use xlink:href="#ArialMT-6d" transform="translate(450.146484 0)"/>
      <use xlink:href="#ArialMT-69" transform="translate(533.447266 0)"/>
      <use xlink:href="#ArialMT-6c" transform="translate(555.664062 0)"/>
      <use xlink:href="#ArialMT-69" transform="translate(577.880859 0)"/>
      <use xlink:href="#ArialMT-61" transform="translate(600.097656 0)"/>
      <use xlink:href="#ArialMT-29" transform="translate(655.712891 0)"/>
     </g>
    </g>
    <g id="patch_86">
     <path d="M 835.9145 122.4725 
L 861.9145 122.4725 
L 861.9145 113.3725 
L 835.9145 113.3725 
z
" style="fill: #c62828; stroke: #000000; stroke-width: 0.4; stroke-linejoin: miter"/>
    </g>
    <g id="text_28">
     <!-- Severo (Clase, Familia distinta) -->
     <g style="fill: #262626" transform="translate(872.3145 122.4725) scale(0.13 -0.13)">
      <defs>
       <path id="ArialMT-53" d="M 288 1472 
L 859 1522 
Q 900 1178 1048 958 
Q 1197 738 1509 602 
Q 1822 466 2213 466 
Q 2559 466 2825 569 
Q 3091 672 3220 851 
Q 3350 1031 3350 1244 
Q 3350 1459 3225 1620 
Q 3100 1781 2813 1891 
Q 2628 1963 1997 2114 
Q 1366 2266 1113 2400 
Q 784 2572 623 2826 
Q 463 3081 463 3397 
Q 463 3744 659 4045 
Q 856 4347 1234 4503 
Q 1613 4659 2075 4659 
Q 2584 4659 2973 4495 
Q 3363 4331 3572 4012 
Q 3781 3694 3797 3291 
L 3216 3247 
Q 3169 3681 2898 3903 
Q 2628 4125 2100 4125 
Q 1550 4125 1298 3923 
Q 1047 3722 1047 3438 
Q 1047 3191 1225 3031 
Q 1400 2872 2139 2705 
Q 2878 2538 3153 2413 
Q 3553 2228 3743 1945 
Q 3934 1663 3934 1294 
Q 3934 928 3725 604 
Q 3516 281 3123 101 
Q 2731 -78 2241 -78 
Q 1619 -78 1198 103 
Q 778 284 539 648 
Q 300 1013 288 1472 
z
" transform="scale(0.015625)"/>
       <path id="ArialMT-2c" d="M 569 0 
L 569 641 
L 1209 641 
L 1209 0 
Q 1209 -353 1084 -570 
Q 959 -788 688 -906 
L 531 -666 
Q 709 -588 793 -436 
Q 878 -284 888 0 
L 569 0 
z
" transform="scale(0.015625)"/>
      </defs>
      <use xlink:href="#ArialMT-53"/>
      <use xlink:href="#ArialMT-65" transform="translate(66.699219 0)"/>
      <use xlink:href="#ArialMT-76" transform="translate(122.314453 0)"/>
      <use xlink:href="#ArialMT-65" transform="translate(172.314453 0)"/>
      <use xlink:href="#ArialMT-72" transform="translate(227.929688 0)"/>
      <use xlink:href="#ArialMT-6f" transform="translate(261.230469 0)"/>
      <use xlink:href="#ArialMT-20" transform="translate(316.845703 0)"/>
      <use xlink:href="#ArialMT-28" transform="translate(344.628906 0)"/>
      <use xlink:href="#ArialMT-43" transform="translate(377.929688 0)"/>
      <use xlink:href="#ArialMT-6c" transform="translate(450.146484 0)"/>
      <use xlink:href="#ArialMT-61" transform="translate(472.363281 0)"/>
      <use xlink:href="#ArialMT-73" transform="translate(527.978516 0)"/>
      <use xlink:href="#ArialMT-65" transform="translate(577.978516 0)"/>
      <use xlink:href="#ArialMT-2c" transform="translate(633.59375 0)"/>
      <use xlink:href="#ArialMT-20" transform="translate(661.376953 0)"/>
      <use xlink:href="#ArialMT-46" transform="translate(689.160156 0)"/>
      <use xlink:href="#ArialMT-61" transform="translate(750.244141 0)"/>
      <use xlink:href="#ArialMT-6d" transform="translate(805.859375 0)"/>
      <use xlink:href="#ArialMT-69" transform="translate(889.160156 0)"/>
      <use xlink:href="#ArialMT-6c" transform="translate(911.376953 0)"/>
      <use xlink:href="#ArialMT-69" transform="translate(933.59375 0)"/>
      <use xlink:href="#ArialMT-61" transform="translate(955.810547 0)"/>
      <use xlink:href="#ArialMT-20" transform="translate(1011.425781 0)"/>
      <use xlink:href="#ArialMT-64" transform="translate(1039.208984 0)"/>
      <use xlink:href="#ArialMT-69" transform="translate(1094.824219 0)"/>
      <use xlink:href="#ArialMT-73" transform="translate(1117.041016 0)"/>
      <use xlink:href="#ArialMT-74" transform="translate(1167.041016 0)"/>
      <use xlink:href="#ArialMT-69" transform="translate(1194.824219 0)"/>
      <use xlink:href="#ArialMT-6e" transform="translate(1217.041016 0)"/>
      <use xlink:href="#ArialMT-74" transform="translate(1272.65625 0)"/>
      <use xlink:href="#ArialMT-61" transform="translate(1300.439453 0)"/>
      <use xlink:href="#ArialMT-29" transform="translate(1356.054688 0)"/>
     </g>
    </g>
    <g id="patch_87">
     <path d="M 835.9145 141.172187 
L 861.9145 141.172187 
L 861.9145 132.072187 
L 835.9145 132.072187 
z
" style="fill: #922b21; stroke: #000000; stroke-width: 0.4; stroke-linejoin: miter"/>
    </g>
    <g id="text_29">
     <!-- Crítico (Clase distinta) -->
     <g style="fill: #262626" transform="translate(872.3145 141.172187) scale(0.13 -0.13)">
      <use xlink:href="#ArialMT-43"/>
      <use xlink:href="#ArialMT-72" transform="translate(72.216797 0)"/>
      <use xlink:href="#ArialMT-ed" transform="translate(105.517578 0)"/>
      <use xlink:href="#ArialMT-74" transform="translate(133.300781 0)"/>
      <use xlink:href="#ArialMT-69" transform="translate(161.083984 0)"/>
      <use xlink:href="#ArialMT-63" transform="translate(183.300781 0)"/>
      <use xlink:href="#ArialMT-6f" transform="translate(233.300781 0)"/>
      <use xlink:href="#ArialMT-20" transform="translate(288.916016 0)"/>
      <use xlink:href="#ArialMT-28" transform="translate(316.699219 0)"/>
      <use xlink:href="#ArialMT-43" transform="translate(350 0)"/>
      <use xlink:href="#ArialMT-6c" transform="translate(422.216797 0)"/>
      <use xlink:href="#ArialMT-61" transform="translate(444.433594 0)"/>
      <use xlink:href="#ArialMT-73" transform="translate(500.048828 0)"/>
      <use xlink:href="#ArialMT-65" transform="translate(550.048828 0)"/>
      <use xlink:href="#ArialMT-20" transform="translate(605.664062 0)"/>
      <use xlink:href="#ArialMT-64" transform="translate(633.447266 0)"/>
      <use xlink:href="#ArialMT-69" transform="translate(689.0625 0)"/>
      <use xlink:href="#ArialMT-73" transform="translate(711.279297 0)"/>
      <use xlink:href="#ArialMT-74" transform="translate(761.279297 0)"/>
      <use xlink:href="#ArialMT-69" transform="translate(789.0625 0)"/>
      <use xlink:href="#ArialMT-6e" transform="translate(811.279297 0)"/>
      <use xlink:href="#ArialMT-74" transform="translate(866.894531 0)"/>
      <use xlink:href="#ArialMT-61" transform="translate(894.677734 0)"/>
      <use xlink:href="#ArialMT-29" transform="translate(950.292969 0)"/>
     </g>
    </g>
   </g>
  </g>
 </g>
 <defs>
  <clipPath id="p8cafbc673a">
   <rect x="141.2225" y="27.759375" width="669.6" height="374.22"/>
  </clipPath>
 </defs>
</svg>
