<?xml version="1.0" encoding="utf-8" standalone="no"?>
<!DOCTYPE svg PUBLIC "-//W3C//DTD SVG 1.1//EN"
  "http://www.w3.org/Graphics/SVG/1.1/DTD/svg11.dtd">
<svg xmlns:xlink="http://www.w3.org/1999/xlink" width="712.660625pt" height="352.288125pt" viewBox="0 0 712.660625 352.288125" xmlns="http://www.w3.org/2000/svg" version="1.1">
 <metadata>
  <rdf:RDF xmlns:dc="http://purl.org/dc/elements/1.1/" xmlns:cc="http://creativecommons.org/ns#" xmlns:rdf="http://www.w3.org/1999/02/22-rdf-syntax-ns#">
   <cc:Work>
    <dc:type rdf:resource="http://purl.org/dc/dcmitype/StillImage"/>
    <dc:date>2026-06-16T23:22:54.639384</dc:date>
    <dc:format>image/svg+xml</dc:format>
    <dc:creator>
     <cc:Agent>
      <dc:title>Matplotlib v3.10.8, https://matplotlib.org/</dc:title>
     </cc:Agent>
    </dc:creator>
   </cc:Work>
  </rdf:RDF>
 </metadata>
 <defs>
  <style type="text/css">*{stroke-linejoin: round; stroke-linecap: butt}</style>
 </defs>
 <g id="figure_1">
  <g id="patch_1">
   <path d="M -0 352.288125 
L 712.660625 352.288125 
L 712.660625 0 
L -0 0 
z
" style="fill: #ffffff"/>
  </g>
  <g id="axes_1">
   <g id="patch_2">
    <path d="M 40.020625 307.957187 
L 705.460625 307.957187 
L 705.460625 26.877187 
L 40.020625 26.877187 
z
" style="fill: #ffffff"/>
   </g>
   <g id="patch_3">
    <path d="M 70.267898 307.957187 
L 77.829716 307.957187 
L 77.829716 302.413059 
L 70.267898 302.413059 
z
" clip-path="url(#pc964a69939)" style="fill: #2d6a4f; opacity: 0.65"/>
   </g>
   <g id="patch_4">
    <path d="M 77.829716 307.957187 
L 85.391534 307.957187 
L 85.391534 306.571155 
L 77.829716 306.571155 
z
" clip-path="url(#pc964a69939)" style="fill: #2d6a4f; opacity: 0.65"/>
   </g>
   <g id="patch_5">
    <path d="M 85.391534 307.957187 
L 92.953352 307.957187 
L 92.953352 307.957187 
L 85.391534 307.957187 
z
" clip-path="url(#pc964a69939)" style="fill: #2d6a4f; opacity: 0.65"/>
   </g>
   <g id="patch_6">
    <path d="M 92.953352 307.957187 
L 100.51517 307.957187 
L 100.51517 306.571155 
L 92.953352 306.571155 
z
" clip-path="url(#pc964a69939)" style="fill: #2d6a4f; opacity: 0.65"/>
   </g>
   <g id="patch_7">
    <path d="M 100.51517 307.957187 
L 108.076989 307.957187 
L 108.076989 306.571155 
L 100.51517 306.571155 
z
" clip-path="url(#pc964a69939)" style="fill: #2d6a4f; opacity: 0.65"/>
   </g>
   <g id="patch_8">
    <path d="M 108.076989 307.957187 
L 115.638807 307.957187 
L 115.638807 307.957187 
L 108.076989 307.957187 
z
" clip-path="url(#pc964a69939)" style="fill: #2d6a4f; opacity: 0.65"/>
   </g>
   <g id="patch_9">
    <path d="M 115.638807 307.957187 
L 123.200625 307.957187 
L 123.200625 307.957187 
L 115.638807 307.957187 
z
" clip-path="url(#pc964a69939)" style="fill: #2d6a4f; opacity: 0.65"/>
   </g>
   <g id="patch_10">
    <path d="M 123.200625 307.957187 
L 130.762443 307.957187 
L 130.762443 303.799091 
L 123.200625 303.799091 
z
" clip-path="url(#pc964a69939)" style="fill: #2d6a4f; opacity: 0.65"/>
   </g>
   <g id="patch_11">
    <path d="M 130.762443 307.957187 
L 138.324261 307.957187 
L 138.324261 306.571155 
L 130.762443 306.571155 
z
" clip-path="url(#pc964a69939)" style="fill: #2d6a4f; opacity: 0.65"/>
   </g>
   <g id="patch_12">
    <path d="M 138.324261 307.957187 
L 145.88608 307.957187 
L 145.88608 303.799091 
L 138.324261 303.799091 
z
" clip-path="url(#pc964a69939)" style="fill: #2d6a4f; opacity: 0.65"/>
   </g>
   <g id="patch_13">
    <path d="M 145.88608 307.957187 
L 153.447898 307.957187 
L 153.447898 301.027027 
L 145.88608 301.027027 
z
" clip-path="url(#pc964a69939)" style="fill: #2d6a4f; opacity: 0.65"/>
   </g>
   <g id="patch_14">
    <path d="M 153.447898 307.957187 
L 161.009716 307.957187 
L 161.009716 292.710833 
L 153.447898 292.710833 
z
" clip-path="url(#pc964a69939)" style="fill: #2d6a4f; opacity: 0.65"/>
   </g>
   <g id="patch_15">
    <path d="M 161.009716 307.957187 
L 168.571534 307.957187 
L 168.571534 289.938769 
L 161.009716 289.938769 
z
" clip-path="url(#pc964a69939)" style="fill: #2d6a4f; opacity: 0.65"/>
   </g>
   <g id="patch_16">
    <path d="M 168.571534 307.957187 
L 176.133352 307.957187 
L 176.133352 292.710833 
L 168.571534 292.710833 
z
" clip-path="url(#pc964a69939)" style="fill: #2d6a4f; opacity: 0.65"/>
   </g>
   <g id="patch_17">
    <path d="M 176.133352 307.957187 
L 183.69517 307.957187 
L 183.69517 270.534319 
L 176.133352 270.534319 
z
" clip-path="url(#pc964a69939)" style="fill: #2d6a4f; opacity: 0.65"/>
   </g>
   <g id="patch_18">
    <path d="M 183.69517 307.957187 
L 191.256989 307.957187 
L 191.256989 263.604158 
L 183.69517 263.604158 
z
" clip-path="url(#pc964a69939)" style="fill: #2d6a4f; opacity: 0.65"/>
   </g>
   <g id="patch_19">
    <path d="M 191.256989 307.957187 
L 198.818807 307.957187 
L 198.818807 253.901932 
L 191.256989 253.901932 
z
" clip-path="url(#pc964a69939)" style="fill: #2d6a4f; opacity: 0.65"/>
   </g>
   <g id="patch_20">
    <path d="M 198.818807 307.957187 
L 206.380625 307.957187 
L 206.380625 240.041611 
L 198.818807 240.041611 
z
" clip-path="url(#pc964a69939)" style="fill: #2d6a4f; opacity: 0.65"/>
   </g>
   <g id="patch_21">
    <path d="M 206.380625 307.957187 
L 213.942443 307.957187 
L 213.942443 222.023192 
L 206.380625 222.023192 
z
" clip-path="url(#pc964a69939)" style="fill: #2d6a4f; opacity: 0.65"/>
   </g>
   <g id="patch_22">
    <path d="M 213.942443 307.957187 
L 221.504261 307.957187 
L 221.504261 201.232709 
L 213.942443 201.232709 
z
" clip-path="url(#pc964a69939)" style="fill: #2d6a4f; opacity: 0.65"/>
   </g>
   <g id="patch_23">
    <path d="M 221.504261 307.957187 
L 229.06608 307.957187 
L 229.06608 187.372388 
L 221.504261 187.372388 
z
" clip-path="url(#pc964a69939)" style="fill: #2d6a4f; opacity: 0.65"/>
   </g>
   <g id="patch_24">
    <path d="M 229.06608 307.957187 
L 236.627898 307.957187 
L 236.627898 151.335551 
L 229.06608 151.335551 
z
" clip-path="url(#pc964a69939)" style="fill: #2d6a4f; opacity: 0.65"/>
   </g>
   <g id="patch_25">
    <path d="M 236.627898 307.957187 
L 244.189716 307.957187 
L 244.189716 151.335551 
L 236.627898 151.335551 
z
" clip-path="url(#pc964a69939)" style="fill: #2d6a4f; opacity: 0.65"/>
   </g>
   <g id="patch_26">
    <path d="M 244.189716 307.957187 
L 251.751534 307.957187 
L 251.751534 134.703165 
L 244.189716 134.703165 
z
" clip-path="url(#pc964a69939)" style="fill: #2d6a4f; opacity: 0.65"/>
   </g>
   <g id="patch_27">
    <path d="M 251.751534 307.957187 
L 259.313352 307.957187 
L 259.313352 113.912682 
L 251.751534 113.912682 
z
" clip-path="url(#pc964a69939)" style="fill: #2d6a4f; opacity: 0.65"/>
   </g>
   <g id="patch_28">
    <path d="M 259.313352 307.957187 
L 266.87517 307.957187 
L 266.87517 100.05236 
L 259.313352 100.05236 
z
" clip-path="url(#pc964a69939)" style="fill: #2d6a4f; opacity: 0.65"/>
   </g>
   <g id="patch_29">
    <path d="M 266.87517 307.957187 
L 274.436989 307.957187 
L 274.436989 136.089197 
L 266.87517 136.089197 
z
" clip-path="url(#pc964a69939)" style="fill: #2d6a4f; opacity: 0.65"/>
   </g>
   <g id="patch_30">
    <path d="M 274.436989 307.957187 
L 281.998807 307.957187 
L 281.998807 79.261877 
L 274.436989 79.261877 
z
" clip-path="url(#pc964a69939)" style="fill: #2d6a4f; opacity: 0.65"/>
   </g>
   <g id="patch_31">
    <path d="M 281.998807 307.957187 
L 289.560625 307.957187 
L 289.560625 108.368553 
L 281.998807 108.368553 
z
" clip-path="url(#pc964a69939)" style="fill: #2d6a4f; opacity: 0.65"/>
   </g>
   <g id="patch_32">
    <path d="M 289.560625 307.957187 
L 297.122443 307.957187 
L 297.122443 91.736167 
L 289.560625 91.736167 
z
" clip-path="url(#pc964a69939)" style="fill: #2d6a4f; opacity: 0.65"/>
   </g>
   <g id="patch_33">
    <path d="M 297.122443 307.957187 
L 304.684261 307.957187 
L 304.684261 94.508231 
L 297.122443 94.508231 
z
" clip-path="url(#pc964a69939)" style="fill: #2d6a4f; opacity: 0.65"/>
   </g>
   <g id="patch_34">
    <path d="M 304.684261 307.957187 
L 312.24608 307.957187 
L 312.24608 95.894263 
L 304.684261 95.894263 
z
" clip-path="url(#pc964a69939)" style="fill: #2d6a4f; opacity: 0.65"/>
   </g>
   <g id="patch_35">
    <path d="M 312.24608 307.957187 
L 319.807898 307.957187 
L 319.807898 97.280296 
L 312.24608 97.280296 
z
" clip-path="url(#pc964a69939)" style="fill: #2d6a4f; opacity: 0.65"/>
   </g>
   <g id="patch_36">
    <path d="M 319.807898 307.957187 
L 327.369716 307.957187 
L 327.369716 138.861261 
L 319.807898 138.861261 
z
" clip-path="url(#pc964a69939)" style="fill: #2d6a4f; opacity: 0.65"/>
   </g>
   <g id="patch_37">
    <path d="M 327.369716 307.957187 
L 334.931534 307.957187 
L 334.931534 144.40539 
L 327.369716 144.40539 
z
" clip-path="url(#pc964a69939)" style="fill: #2d6a4f; opacity: 0.65"/>
   </g>
   <g id="patch_38">
    <path d="M 334.931534 307.957187 
L 342.493352 307.957187 
L 342.493352 122.228875 
L 334.931534 122.228875 
z
" clip-path="url(#pc964a69939)" style="fill: #2d6a4f; opacity: 0.65"/>
   </g>
   <g id="patch_39">
    <path d="M 342.493352 307.957187 
L 350.05517 307.957187 
L 350.05517 152.721583 
L 342.493352 152.721583 
z
" clip-path="url(#pc964a69939)" style="fill: #2d6a4f; opacity: 0.65"/>
   </g>
   <g id="patch_40">
    <path d="M 350.05517 307.957187 
L 357.616989 307.957187 
L 357.616989 165.195873 
L 350.05517 165.195873 
z
" clip-path="url(#pc964a69939)" style="fill: #2d6a4f; opacity: 0.65"/>
   </g>
   <g id="patch_41">
    <path d="M 357.616989 307.957187 
L 365.178807 307.957187 
L 365.178807 187.372388 
L 357.616989 187.372388 
z
" clip-path="url(#pc964a69939)" style="fill: #2d6a4f; opacity: 0.65"/>
   </g>
   <g id="patch_42">
    <path d="M 365.178807 307.957187 
L 372.740625 307.957187 
L 372.740625 190.144452 
L 365.178807 190.144452 
z
" clip-path="url(#pc964a69939)" style="fill: #2d6a4f; opacity: 0.65"/>
   </g>
   <g id="patch_43">
    <path d="M 372.740625 307.957187 
L 380.302443 307.957187 
L 380.302443 201.232709 
L 372.740625 201.232709 
z
" clip-path="url(#pc964a69939)" style="fill: #2d6a4f; opacity: 0.65"/>
   </g>
   <g id="patch_44">
    <path d="M 380.302443 307.957187 
L 387.864261 307.957187 
L 387.864261 199.846677 
L 380.302443 199.846677 
z
" clip-path="url(#pc964a69939)" style="fill: #2d6a4f; opacity: 0.65"/>
   </g>
   <g id="patch_45">
    <path d="M 387.864261 307.957187 
L 395.42608 307.957187 
L 395.42608 210.934935 
L 387.864261 210.934935 
z
" clip-path="url(#pc964a69939)" style="fill: #2d6a4f; opacity: 0.65"/>
   </g>
   <g id="patch_46">
    <path d="M 395.42608 307.957187 
L 402.987898 307.957187 
L 402.987898 235.883514 
L 395.42608 235.883514 
z
" clip-path="url(#pc964a69939)" style="fill: #2d6a4f; opacity: 0.65"/>
   </g>
   <g id="patch_47">
    <path d="M 402.987898 307.957187 
L 410.549716 307.957187 
L 410.549716 233.11145 
L 402.987898 233.11145 
z
" clip-path="url(#pc964a69939)" style="fill: #2d6a4f; opacity: 0.65"/>
   </g>
   <g id="patch_48">
    <path d="M 410.549716 307.957187 
L 418.111534 307.957187 
L 418.111534 249.743836 
L 410.549716 249.743836 
z
" clip-path="url(#pc964a69939)" style="fill: #2d6a4f; opacity: 0.65"/>
   </g>
   <g id="patch_49">
    <path d="M 418.111534 307.957187 
L 425.673352 307.957187 
L 425.673352 244.199707 
L 418.111534 244.199707 
z
" clip-path="url(#pc964a69939)" style="fill: #2d6a4f; opacity: 0.65"/>
   </g>
   <g id="patch_50">
    <path d="M 425.673352 307.957187 
L 433.23517 307.957187 
L 433.23517 266.376222 
L 425.673352 266.376222 
z
" clip-path="url(#pc964a69939)" style="fill: #2d6a4f; opacity: 0.65"/>
   </g>
   <g id="patch_51">
    <path d="M 433.23517 307.957187 
L 440.796989 307.957187 
L 440.796989 258.060029 
L 433.23517 258.060029 
z
" clip-path="url(#pc964a69939)" style="fill: #2d6a4f; opacity: 0.65"/>
   </g>
   <g id="patch_52">
    <path d="M 440.796989 307.957187 
L 448.358807 307.957187 
L 448.358807 264.99019 
L 440.796989 264.99019 
z
" clip-path="url(#pc964a69939)" style="fill: #2d6a4f; opacity: 0.65"/>
   </g>
   <g id="patch_53">
    <path d="M 448.358807 307.957187 
L 455.920625 307.957187 
L 455.920625 256.673997 
L 448.358807 256.673997 
z
" clip-path="url(#pc964a69939)" style="fill: #2d6a4f; opacity: 0.65"/>
   </g>
   <g id="patch_54">
    <path d="M 455.920625 307.957187 
L 463.482443 307.957187 
L 463.482443 263.604158 
L 455.920625 263.604158 
z
" clip-path="url(#pc964a69939)" style="fill: #2d6a4f; opacity: 0.65"/>
   </g>
   <g id="patch_55">
    <path d="M 463.482443 307.957187 
L 471.044261 307.957187 
L 471.044261 278.850512 
L 463.482443 278.850512 
z
" clip-path="url(#pc964a69939)" style="fill: #2d6a4f; opacity: 0.65"/>
   </g>
   <g id="patch_56">
    <path d="M 471.044261 307.957187 
L 478.60608 307.957187 
L 478.60608 285.780673 
L 471.044261 285.780673 
z
" clip-path="url(#pc964a69939)" style="fill: #2d6a4f; opacity: 0.65"/>
   </g>
   <g id="patch_57">
    <path d="M 478.60608 307.957187 
L 486.167898 307.957187 
L 486.167898 274.692415 
L 478.60608 274.692415 
z
" clip-path="url(#pc964a69939)" style="fill: #2d6a4f; opacity: 0.65"/>
   </g>
   <g id="patch_58">
    <path d="M 486.167898 307.957187 
L 493.729716 307.957187 
L 493.729716 280.236544 
L 486.167898 280.236544 
z
" clip-path="url(#pc964a69939)" style="fill: #2d6a4f; opacity: 0.65"/>
   </g>
   <g id="patch_59">
    <path d="M 493.729716 307.957187 
L 501.291534 307.957187 
L 501.291534 292.710833 
L 493.729716 292.710833 
z
" clip-path="url(#pc964a69939)" style="fill: #2d6a4f; opacity: 0.65"/>
   </g>
   <g id="patch_60">
    <path d="M 501.291534 307.957187 
L 508.853352 307.957187 
L 508.853352 292.710833 
L 501.291534 292.710833 
z
" clip-path="url(#pc964a69939)" style="fill: #2d6a4f; opacity: 0.65"/>
   </g>
   <g id="patch_61">
    <path d="M 508.853352 307.957187 
L 516.41517 307.957187 
L 516.41517 289.938769 
L 508.853352 289.938769 
z
" clip-path="url(#pc964a69939)" style="fill: #2d6a4f; opacity: 0.65"/>
   </g>
   <g id="patch_62">
    <path d="M 516.41517 307.957187 
L 523.976989 307.957187 
L 523.976989 291.324801 
L 516.41517 291.324801 
z
" clip-path="url(#pc964a69939)" style="fill: #2d6a4f; opacity: 0.65"/>
   </g>
   <g id="patch_63">
    <path d="M 523.976989 307.957187 
L 531.538807 307.957187 
L 531.538807 289.938769 
L 523.976989 289.938769 
z
" clip-path="url(#pc964a69939)" style="fill: #2d6a4f; opacity: 0.65"/>
   </g>
   <g id="patch_64">
    <path d="M 531.538807 307.957187 
L 539.100625 307.957187 
L 539.100625 298.254962 
L 531.538807 298.254962 
z
" clip-path="url(#pc964a69939)" style="fill: #2d6a4f; opacity: 0.65"/>
   </g>
   <g id="patch_65">
    <path d="M 539.100625 307.957187 
L 546.662443 307.957187 
L 546.662443 298.254962 
L 539.100625 298.254962 
z
" clip-path="url(#pc964a69939)" style="fill: #2d6a4f; opacity: 0.65"/>
   </g>
   <g id="patch_66">
    <path d="M 546.662443 307.957187 
L 554.224261 307.957187 
L 554.224261 294.096866 
L 546.662443 294.096866 
z
" clip-path="url(#pc964a69939)" style="fill: #2d6a4f; opacity: 0.65"/>
   </g>
   <g id="patch_67">
    <path d="M 554.224261 307.957187 
L 561.78608 307.957187 
L 561.78608 299.640994 
L 554.224261 299.640994 
z
" clip-path="url(#pc964a69939)" style="fill: #2d6a4f; opacity: 0.65"/>
   </g>
   <g id="patch_68">
    <path d="M 561.78608 307.957187 
L 569.347898 307.957187 
L 569.347898 302.413059 
L 561.78608 302.413059 
z
" clip-path="url(#pc964a69939)" style="fill: #2d6a4f; opacity: 0.65"/>
   </g>
   <g id="patch_69">
    <path d="M 569.347898 307.957187 
L 576.909716 307.957187 
L 576.909716 305.185123 
L 569.347898 305.185123 
z
" clip-path="url(#pc964a69939)" style="fill: #2d6a4f; opacity: 0.65"/>
   </g>
   <g id="patch_70">
    <path d="M 576.909716 307.957187 
L 584.471534 307.957187 
L 584.471534 302.413059 
L 576.909716 302.413059 
z
" clip-path="url(#pc964a69939)" style="fill: #2d6a4f; opacity: 0.65"/>
   </g>
   <g id="patch_71">
    <path d="M 584.471534 307.957187 
L 592.033352 307.957187 
L 592.033352 301.027027 
L 584.471534 301.027027 
z
" clip-path="url(#pc964a69939)" style="fill: #2d6a4f; opacity: 0.65"/>
   </g>
   <g id="patch_72">
    <path d="M 592.033352 307.957187 
L 599.59517 307.957187 
L 599.59517 301.027027 
L 592.033352 301.027027 
z
" clip-path="url(#pc964a69939)" style="fill: #2d6a4f; opacity: 0.65"/>
   </g>
   <g id="patch_73">
    <path d="M 599.59517 307.957187 
L 607.156989 307.957187 
L 607.156989 307.957187 
L 599.59517 307.957187 
z
" clip-path="url(#pc964a69939)" style="fill: #2d6a4f; opacity: 0.65"/>
   </g>
   <g id="patch_74">
    <path d="M 607.156989 307.957187 
L 614.718807 307.957187 
L 614.718807 303.799091 
L 607.156989 303.799091 
z
" clip-path="url(#pc964a69939)" style="fill: #2d6a4f; opacity: 0.65"/>
   </g>
   <g id="patch_75">
    <path d="M 614.718807 307.957187 
L 622.280625 307.957187 
L 622.280625 303.799091 
L 614.718807 303.799091 
z
" clip-path="url(#pc964a69939)" style="fill: #2d6a4f; opacity: 0.65"/>
   </g>
   <g id="patch_76">
    <path d="M 622.280625 307.957187 
L 629.842443 307.957187 
L 629.842443 302.413059 
L 622.280625 302.413059 
z
" clip-path="url(#pc964a69939)" style="fill: #2d6a4f; opacity: 0.65"/>
   </g>
   <g id="patch_77">
    <path d="M 629.842443 307.957187 
L 637.404261 307.957187 
L 637.404261 305.185123 
L 629.842443 305.185123 
z
" clip-path="url(#pc964a69939)" style="fill: #2d6a4f; opacity: 0.65"/>
   </g>
   <g id="patch_78">
    <path d="M 637.404261 307.957187 
L 644.96608 307.957187 
L 644.96608 305.185123 
L 637.404261 305.185123 
z
" clip-path="url(#pc964a69939)" style="fill: #2d6a4f; opacity: 0.65"/>
   </g>
   <g id="patch_79">
    <path d="M 644.96608 307.957187 
L 652.527898 307.957187 
L 652.527898 305.185123 
L 644.96608 305.185123 
z
" clip-path="url(#pc964a69939)" style="fill: #2d6a4f; opacity: 0.65"/>
   </g>
   <g id="patch_80">
    <path d="M 652.527898 307.957187 
L 660.089716 307.957187 
L 660.089716 306.571155 
L 652.527898 306.571155 
z
" clip-path="url(#pc964a69939)" style="fill: #2d6a4f; opacity: 0.65"/>
   </g>
   <g id="patch_81">
    <path d="M 660.089716 307.957187 
L 667.651534 307.957187 
L 667.651534 305.185123 
L 660.089716 305.185123 
z
" clip-path="url(#pc964a69939)" style="fill: #2d6a4f; opacity: 0.65"/>
   </g>
   <g id="patch_82">
    <path d="M 667.651534 307.957187 
L 675.213352 307.957187 
L 675.213352 305.185123 
L 667.651534 305.185123 
z
" clip-path="url(#pc964a69939)" style="fill: #2d6a4f; opacity: 0.65"/>
   </g>
   <g id="patch_83">
    <path d="M 96.482698 307.957187 
L 103.295224 307.957187 
L 103.295224 306.418709 
L 96.482698 306.418709 
z
" clip-path="url(#pc964a69939)" style="fill: #95d5b2; opacity: 0.65"/>
   </g>
   <g id="patch_84">
    <path d="M 103.295224 307.957187 
L 110.107749 307.957187 
L 110.107749 307.957187 
L 103.295224 307.957187 
z
" clip-path="url(#pc964a69939)" style="fill: #95d5b2; opacity: 0.65"/>
   </g>
   <g id="patch_85">
    <path d="M 110.107749 307.957187 
L 116.920275 307.957187 
L 116.920275 307.957187 
L 110.107749 307.957187 
z
" clip-path="url(#pc964a69939)" style="fill: #95d5b2; opacity: 0.65"/>
   </g>
   <g id="patch_86">
    <path d="M 116.920275 307.957187 
L 123.732801 307.957187 
L 123.732801 306.418709 
L 116.920275 306.418709 
z
" clip-path="url(#pc964a69939)" style="fill: #95d5b2; opacity: 0.65"/>
   </g>
   <g id="patch_87">
    <path d="M 123.732801 307.957187 
L 130.545326 307.957187 
L 130.545326 307.957187 
L 123.732801 307.957187 
z
" clip-path="url(#pc964a69939)" style="fill: #95d5b2; opacity: 0.65"/>
   </g>
   <g id="patch_88">
    <path d="M 130.545326 307.957187 
L 137.357852 307.957187 
L 137.357852 307.957187 
L 130.545326 307.957187 
z
" clip-path="url(#pc964a69939)" style="fill: #95d5b2; opacity: 0.65"/>
   </g>
   <g id="patch_89">
    <path d="M 137.357852 307.957187 
L 144.170378 307.957187 
L 144.170378 307.957187 
L 137.357852 307.957187 
z
" clip-path="url(#pc964a69939)" style="fill: #95d5b2; opacity: 0.65"/>
   </g>
   <g id="patch_90">
    <path d="M 144.170378 307.957187 
L 150.982903 307.957187 
L 150.982903 307.957187 
L 144.170378 307.957187 
z
" clip-path="url(#pc964a69939)" style="fill: #95d5b2; opacity: 0.65"/>
   </g>
   <g id="patch_91">
    <path d="M 150.982903 307.957187 
L 157.795429 307.957187 
L 157.795429 306.418709 
L 150.982903 306.418709 
z
" clip-path="url(#pc964a69939)" style="fill: #95d5b2; opacity: 0.65"/>
   </g>
   <g id="patch_92">
    <path d="M 157.795429 307.957187 
L 164.607954 307.957187 
L 164.607954 304.880231 
L 157.795429 304.880231 
z
" clip-path="url(#pc964a69939)" style="fill: #95d5b2; opacity: 0.65"/>
   </g>
   <g id="patch_93">
    <path d="M 164.607954 307.957187 
L 171.42048 307.957187 
L 171.42048 307.957187 
L 164.607954 307.957187 
z
" clip-path="url(#pc964a69939)" style="fill: #95d5b2; opacity: 0.65"/>
   </g>
   <g id="patch_94">
    <path d="M 171.42048 307.957187 
L 178.233006 307.957187 
L 178.233006 307.957187 
L 171.42048 307.957187 
z
" clip-path="url(#pc964a69939)" style="fill: #95d5b2; opacity: 0.65"/>
   </g>
   <g id="patch_95">
    <path d="M 178.233006 307.957187 
L 185.045531 307.957187 
L 185.045531 304.880231 
L 178.233006 304.880231 
z
" clip-path="url(#pc964a69939)" style="fill: #95d5b2; opacity: 0.65"/>
   </g>
   <g id="patch_96">
    <path d="M 185.045531 307.957187 
L 191.858057 307.957187 
L 191.858057 306.418709 
L 185.045531 306.418709 
z
" clip-path="url(#pc964a69939)" style="fill: #95d5b2; opacity: 0.65"/>
   </g>
   <g id="patch_97">
    <path d="M 191.858057 307.957187 
L 198.670582 307.957187 
L 198.670582 300.264796 
L 191.858057 300.264796 
z
" clip-path="url(#pc964a69939)" style="fill: #95d5b2; opacity: 0.65"/>
   </g>
   <g id="patch_98">
    <path d="M 198.670582 307.957187 
L 205.483108 307.957187 
L 205.483108 303.341752 
L 198.670582 303.341752 
z
" clip-path="url(#pc964a69939)" style="fill: #95d5b2; opacity: 0.65"/>
   </g>
   <g id="patch_99">
    <path d="M 205.483108 307.957187 
L 212.295634 307.957187 
L 212.295634 301.803274 
L 205.483108 301.803274 
z
" clip-path="url(#pc964a69939)" style="fill: #95d5b2; opacity: 0.65"/>
   </g>
   <g id="patch_100">
    <path d="M 212.295634 307.957187 
L 219.108159 307.957187 
L 219.108159 294.110882 
L 212.295634 294.110882 
z
" clip-path="url(#pc964a69939)" style="fill: #95d5b2; opacity: 0.65"/>
   </g>
   <g id="patch_101">
    <path d="M 219.108159 307.957187 
L 225.920685 307.957187 
L 225.920685 274.110663 
L 219.108159 274.110663 
z
" clip-path="url(#pc964a69939)" style="fill: #95d5b2; opacity: 0.65"/>
   </g>
   <g id="patch_102">
    <path d="M 225.920685 307.957187 
L 232.73321 307.957187 
L 232.73321 275.649142 
L 225.920685 275.649142 
z
" clip-path="url(#pc964a69939)" style="fill: #95d5b2; opacity: 0.65"/>
   </g>
   <g id="patch_103">
    <path d="M 232.73321 307.957187 
L 239.545736 307.957187 
L 239.545736 266.418271 
L 232.73321 266.418271 
z
" clip-path="url(#pc964a69939)" style="fill: #95d5b2; opacity: 0.65"/>
   </g>
   <g id="patch_104">
    <path d="M 239.545736 307.957187 
L 246.358262 307.957187 
L 246.358262 278.726098 
L 239.545736 278.726098 
z
" clip-path="url(#pc964a69939)" style="fill: #95d5b2; opacity: 0.65"/>
   </g>
   <g id="patch_105">
    <path d="M 246.358262 307.957187 
L 253.170787 307.957187 
L 253.170787 244.879574 
L 246.358262 244.879574 
z
" clip-path="url(#pc964a69939)" style="fill: #95d5b2; opacity: 0.65"/>
   </g>
   <g id="patch_106">
    <path d="M 253.170787 307.957187 
L 259.983313 307.957187 
L 259.983313 255.648923 
L 253.170787 255.648923 
z
" clip-path="url(#pc964a69939)" style="fill: #95d5b2; opacity: 0.65"/>
   </g>
   <g id="patch_107">
    <path d="M 259.983313 307.957187 
L 266.795838 307.957187 
L 266.795838 235.648704 
L 259.983313 235.648704 
z
" clip-path="url(#pc964a69939)" style="fill: #95d5b2; opacity: 0.65"/>
   </g>
   <g id="patch_108">
    <path d="M 266.795838 307.957187 
L 273.608364 307.957187 
L 273.608364 209.494571 
L 266.795838 209.494571 
z
" clip-path="url(#pc964a69939)" style="fill: #95d5b2; opacity: 0.65"/>
   </g>
   <g id="patch_109">
    <path d="M 273.608364 307.957187 
L 280.42089 307.957187 
L 280.42089 207.956093 
L 273.608364 207.956093 
z
" clip-path="url(#pc964a69939)" style="fill: #95d5b2; opacity: 0.65"/>
   </g>
   <g id="patch_110">
    <path d="M 280.42089 307.957187 
L 287.233415 307.957187 
L 287.233415 174.109568 
L 280.42089 174.109568 
z
" clip-path="url(#pc964a69939)" style="fill: #95d5b2; opacity: 0.65"/>
   </g>
   <g id="patch_111">
    <path d="M 287.233415 307.957187 
L 294.045941 307.957187 
L 294.045941 211.03305 
L 287.233415 211.03305 
z
" clip-path="url(#pc964a69939)" style="fill: #95d5b2; opacity: 0.65"/>
   </g>
   <g id="patch_112">
    <path d="M 294.045941 307.957187 
L 300.858467 307.957187 
L 300.858467 174.109568 
L 294.045941 174.109568 
z
" clip-path="url(#pc964a69939)" style="fill: #95d5b2; opacity: 0.65"/>
   </g>
   <g id="patch_113">
    <path d="M 300.858467 307.957187 
L 307.670992 307.957187 
L 307.670992 169.494133 
L 300.858467 169.494133 
z
" clip-path="url(#pc964a69939)" style="fill: #95d5b2; opacity: 0.65"/>
   </g>
   <g id="patch_114">
    <path d="M 307.670992 307.957187 
L 314.483518 307.957187 
L 314.483518 171.032612 
L 307.670992 171.032612 
z
" clip-path="url(#pc964a69939)" style="fill: #95d5b2; opacity: 0.65"/>
   </g>
   <g id="patch_115">
    <path d="M 314.483518 307.957187 
L 321.296043 307.957187 
L 321.296043 132.570652 
L 314.483518 132.570652 
z
" clip-path="url(#pc964a69939)" style="fill: #95d5b2; opacity: 0.65"/>
   </g>
   <g id="patch_116">
    <path d="M 321.296043 307.957187 
L 328.108569 307.957187 
L 328.108569 118.724347 
L 321.296043 118.724347 
z
" clip-path="url(#pc964a69939)" style="fill: #95d5b2; opacity: 0.65"/>
   </g>
   <g id="patch_117">
    <path d="M 328.108569 307.957187 
L 334.921095 307.957187 
L 334.921095 127.955217 
L 328.108569 127.955217 
z
" clip-path="url(#pc964a69939)" style="fill: #95d5b2; opacity: 0.65"/>
   </g>
   <g id="patch_118">
    <path d="M 334.921095 307.957187 
L 341.73362 307.957187 
L 341.73362 87.954779 
L 334.921095 87.954779 
z
" clip-path="url(#pc964a69939)" style="fill: #95d5b2; opacity: 0.65"/>
   </g>
   <g id="patch_119">
    <path d="M 341.73362 307.957187 
L 348.546146 307.957187 
L 348.546146 92.570214 
L 341.73362 92.570214 
z
" clip-path="url(#pc964a69939)" style="fill: #95d5b2; opacity: 0.65"/>
   </g>
   <g id="patch_120">
    <path d="M 348.546146 307.957187 
L 355.358671 307.957187 
L 355.358671 74.108474 
L 348.546146 74.108474 
z
" clip-path="url(#pc964a69939)" style="fill: #95d5b2; opacity: 0.65"/>
   </g>
   <g id="patch_121">
    <path d="M 355.358671 307.957187 
L 362.171197 307.957187 
L 362.171197 103.339563 
L 355.358671 103.339563 
z
" clip-path="url(#pc964a69939)" style="fill: #95d5b2; opacity: 0.65"/>
   </g>
   <g id="patch_122">
    <path d="M 362.171197 307.957187 
L 368.983723 307.957187 
L 368.983723 84.877822 
L 362.171197 84.877822 
z
" clip-path="url(#pc964a69939)" style="fill: #95d5b2; opacity: 0.65"/>
   </g>
   <g id="patch_123">
    <path d="M 368.983723 307.957187 
L 375.796248 307.957187 
L 375.796248 84.877822 
L 368.983723 84.877822 
z
" clip-path="url(#pc964a69939)" style="fill: #95d5b2; opacity: 0.65"/>
   </g>
   <g id="patch_124">
    <path d="M 375.796248 307.957187 
L 382.608774 307.957187 
L 382.608774 91.031736 
L 375.796248 91.031736 
z
" clip-path="url(#pc964a69939)" style="fill: #95d5b2; opacity: 0.65"/>
   </g>
   <g id="patch_125">
    <path d="M 382.608774 307.957187 
L 389.421299 307.957187 
L 389.421299 74.108474 
L 382.608774 74.108474 
z
" clip-path="url(#pc964a69939)" style="fill: #95d5b2; opacity: 0.65"/>
   </g>
   <g id="patch_126">
    <path d="M 389.421299 307.957187 
L 396.233825 307.957187 
L 396.233825 40.261949 
L 389.421299 40.261949 
z
" clip-path="url(#pc964a69939)" style="fill: #95d5b2; opacity: 0.65"/>
   </g>
   <g id="patch_127">
    <path d="M 396.233825 307.957187 
L 403.046351 307.957187 
L 403.046351 80.262387 
L 396.233825 80.262387 
z
" clip-path="url(#pc964a69939)" style="fill: #95d5b2; opacity: 0.65"/>
   </g>
   <g id="patch_128">
    <path d="M 403.046351 307.957187 
L 409.858876 307.957187 
L 409.858876 81.800866 
L 403.046351 81.800866 
z
" clip-path="url(#pc964a69939)" style="fill: #95d5b2; opacity: 0.65"/>
   </g>
   <g id="patch_129">
    <path d="M 409.858876 307.957187 
L 416.671402 307.957187 
L 416.671402 94.108693 
L 409.858876 94.108693 
z
" clip-path="url(#pc964a69939)" style="fill: #95d5b2; opacity: 0.65"/>
   </g>
   <g id="patch_130">
    <path d="M 416.671402 307.957187 
L 423.483928 307.957187 
L 423.483928 115.64739 
L 416.671402 115.64739 
z
" clip-path="url(#pc964a69939)" style="fill: #95d5b2; opacity: 0.65"/>
   </g>
   <g id="patch_131">
    <path d="M 423.483928 307.957187 
L 430.296453 307.957187 
L 430.296453 164.878698 
L 423.483928 164.878698 
z
" clip-path="url(#pc964a69939)" style="fill: #95d5b2; opacity: 0.65"/>
   </g>
   <g id="patch_132">
    <path d="M 430.296453 307.957187 
L 437.108979 307.957187 
L 437.108979 175.648047 
L 430.296453 175.648047 
z
" clip-path="url(#pc964a69939)" style="fill: #95d5b2; opacity: 0.65"/>
   </g>
   <g id="patch_133">
    <path d="M 437.108979 307.957187 
L 443.921504 307.957187 
L 443.921504 194.109787 
L 437.108979 194.109787 
z
" clip-path="url(#pc964a69939)" style="fill: #95d5b2; opacity: 0.65"/>
   </g>
   <g id="patch_134">
    <path d="M 443.921504 307.957187 
L 450.73403 307.957187 
L 450.73403 217.186963 
L 443.921504 217.186963 
z
" clip-path="url(#pc964a69939)" style="fill: #95d5b2; opacity: 0.65"/>
   </g>
   <g id="patch_135">
    <path d="M 450.73403 307.957187 
L 457.546556 307.957187 
L 457.546556 231.033269 
L 450.73403 231.033269 
z
" clip-path="url(#pc964a69939)" style="fill: #95d5b2; opacity: 0.65"/>
   </g>
   <g id="patch_136">
    <path d="M 457.546556 307.957187 
L 464.359081 307.957187 
L 464.359081 240.264139 
L 457.546556 240.264139 
z
" clip-path="url(#pc964a69939)" style="fill: #95d5b2; opacity: 0.65"/>
   </g>
   <g id="patch_137">
    <path d="M 464.359081 307.957187 
L 471.171607 307.957187 
L 471.171607 247.956531 
L 464.359081 247.956531 
z
" clip-path="url(#pc964a69939)" style="fill: #95d5b2; opacity: 0.65"/>
   </g>
   <g id="patch_138">
    <path d="M 471.171607 307.957187 
L 477.984132 307.957187 
L 477.984132 261.802836 
L 471.171607 261.802836 
z
" clip-path="url(#pc964a69939)" style="fill: #95d5b2; opacity: 0.65"/>
   </g>
   <g id="patch_139">
    <path d="M 477.984132 307.957187 
L 484.796658 307.957187 
L 484.796658 269.495228 
L 477.984132 269.495228 
z
" clip-path="url(#pc964a69939)" style="fill: #95d5b2; opacity: 0.65"/>
   </g>
   <g id="patch_140">
    <path d="M 484.796658 307.957187 
L 491.609184 307.957187 
L 491.609184 281.803055 
L 484.796658 281.803055 
z
" clip-path="url(#pc964a69939)" style="fill: #95d5b2; opacity: 0.65"/>
   </g>
   <g id="patch_141">
    <path d="M 491.609184 307.957187 
L 498.421709 307.957187 
L 498.421709 283.341533 
L 491.609184 283.341533 
z
" clip-path="url(#pc964a69939)" style="fill: #95d5b2; opacity: 0.65"/>
   </g>
   <g id="patch_142">
    <path d="M 498.421709 307.957187 
L 505.234235 307.957187 
L 505.234235 284.880012 
L 498.421709 284.880012 
z
" clip-path="url(#pc964a69939)" style="fill: #95d5b2; opacity: 0.65"/>
   </g>
   <g id="patch_143">
    <path d="M 505.234235 307.957187 
L 512.04676 307.957187 
L 512.04676 280.264577 
L 505.234235 280.264577 
z
" clip-path="url(#pc964a69939)" style="fill: #95d5b2; opacity: 0.65"/>
   </g>
   <g id="patch_144">
    <path d="M 512.04676 307.957187 
L 518.859286 307.957187 
L 518.859286 286.41849 
L 512.04676 286.41849 
z
" clip-path="url(#pc964a69939)" style="fill: #95d5b2; opacity: 0.65"/>
   </g>
   <g id="patch_145">
    <path d="M 518.859286 307.957187 
L 525.671812 307.957187 
L 525.671812 294.110882 
L 518.859286 294.110882 
z
" clip-path="url(#pc964a69939)" style="fill: #95d5b2; opacity: 0.65"/>
   </g>
   <g id="patch_146">
    <path d="M 525.671812 307.957187 
L 532.484337 307.957187 
L 532.484337 298.726317 
L 525.671812 298.726317 
z
" clip-path="url(#pc964a69939)" style="fill: #95d5b2; opacity: 0.65"/>
   </g>
   <g id="patch_147">
    <path d="M 532.484337 307.957187 
L 539.296863 307.957187 
L 539.296863 294.110882 
L 532.484337 294.110882 
z
" clip-path="url(#pc964a69939)" style="fill: #95d5b2; opacity: 0.65"/>
   </g>
   <g id="patch_148">
    <path d="M 539.296863 307.957187 
L 546.109389 307.957187 
L 546.109389 291.033925 
L 539.296863 291.033925 
z
" clip-path="url(#pc964a69939)" style="fill: #95d5b2; opacity: 0.65"/>
   </g>
   <g id="patch_149">
    <path d="M 546.109389 307.957187 
L 552.921914 307.957187 
L 552.921914 303.341752 
L 546.109389 303.341752 
z
" clip-path="url(#pc964a69939)" style="fill: #95d5b2; opacity: 0.65"/>
   </g>
   <g id="patch_150">
    <path d="M 552.921914 307.957187 
L 559.73444 307.957187 
L 559.73444 298.726317 
L 552.921914 298.726317 
z
" clip-path="url(#pc964a69939)" style="fill: #95d5b2; opacity: 0.65"/>
   </g>
   <g id="patch_151">
    <path d="M 559.73444 307.957187 
L 566.546965 307.957187 
L 566.546965 297.187839 
L 559.73444 297.187839 
z
" clip-path="url(#pc964a69939)" style="fill: #95d5b2; opacity: 0.65"/>
   </g>
   <g id="patch_152">
    <path d="M 566.546965 307.957187 
L 573.359491 307.957187 
L 573.359491 300.264796 
L 566.546965 300.264796 
z
" clip-path="url(#pc964a69939)" style="fill: #95d5b2; opacity: 0.65"/>
   </g>
   <g id="patch_153">
    <path d="M 573.359491 307.957187 
L 580.172017 307.957187 
L 580.172017 300.264796 
L 573.359491 300.264796 
z
" clip-path="url(#pc964a69939)" style="fill: #95d5b2; opacity: 0.65"/>
   </g>
   <g id="patch_154">
    <path d="M 580.172017 307.957187 
L 586.984542 307.957187 
L 586.984542 303.341752 
L 580.172017 303.341752 
z
" clip-path="url(#pc964a69939)" style="fill: #95d5b2; opacity: 0.65"/>
   </g>
   <g id="patch_155">
    <path d="M 586.984542 307.957187 
L 593.797068 307.957187 
L 593.797068 304.880231 
L 586.984542 304.880231 
z
" clip-path="url(#pc964a69939)" style="fill: #95d5b2; opacity: 0.65"/>
   </g>
   <g id="patch_156">
    <path d="M 593.797068 307.957187 
L 600.609593 307.957187 
L 600.609593 303.341752 
L 593.797068 303.341752 
z
" clip-path="url(#pc964a69939)" style="fill: #95d5b2; opacity: 0.65"/>
   </g>
   <g id="patch_157">
    <path d="M 600.609593 307.957187 
L 607.422119 307.957187 
L 607.422119 306.418709 
L 600.609593 306.418709 
z
" clip-path="url(#pc964a69939)" style="fill: #95d5b2; opacity: 0.65"/>
   </g>
   <g id="patch_158">
    <path d="M 607.422119 307.957187 
L 614.234645 307.957187 
L 614.234645 307.957187 
L 607.422119 307.957187 
z
" clip-path="url(#pc964a69939)" style="fill: #95d5b2; opacity: 0.65"/>
   </g>
   <g id="patch_159">
    <path d="M 614.234645 307.957187 
L 621.04717 307.957187 
L 621.04717 307.957187 
L 614.234645 307.957187 
z
" clip-path="url(#pc964a69939)" style="fill: #95d5b2; opacity: 0.65"/>
   </g>
   <g id="patch_160">
    <path d="M 621.04717 307.957187 
L 627.859696 307.957187 
L 627.859696 307.957187 
L 621.04717 307.957187 
z
" clip-path="url(#pc964a69939)" style="fill: #95d5b2; opacity: 0.65"/>
   </g>
   <g id="patch_161">
    <path d="M 627.859696 307.957187 
L 634.672221 307.957187 
L 634.672221 307.957187 
L 627.859696 307.957187 
z
" clip-path="url(#pc964a69939)" style="fill: #95d5b2; opacity: 0.65"/>
   </g>
   <g id="patch_162">
    <path d="M 634.672221 307.957187 
L 641.484747 307.957187 
L 641.484747 306.418709 
L 634.672221 306.418709 
z
" clip-path="url(#pc964a69939)" style="fill: #95d5b2; opacity: 0.65"/>
   </g>
   <g id="matplotlib.axis_1">
    <g id="xtick_1">
     <g id="line2d_1">
      <path d="M 70.26813 307.957187 
L 70.26813 26.877187 
" clip-path="url(#pc964a69939)" style="fill: none; stroke: #b0b0b0; stroke-opacity: 0.3; stroke-width: 0.8; stroke-linecap: square"/>
     </g>
     <g id="line2d_2">
      <defs>
       <path id="m6c4edbb42d" d="M 0 0 
L 0 3.5 
" style="stroke: #000000; stroke-width: 0.8"/>
      </defs>
      <g>
       <use xlink:href="#m6c4edbb42d" x="70.26813" y="307.957187" style="stroke: #000000; stroke-width: 0.8"/>
      </g>
     </g>
     <g id="text_1">
      <!-- 0.0 -->
      <g transform="translate(59.931099 324.835156) scale(0.13 -0.13)">
       <defs>
        <path id="DejaVuSans-30" d="M 2034 4250 
Q 1547 4250 1301 3770 
Q 1056 3291 1056 2328 
Q 1056 1369 1301 889 
Q 1547 409 2034 409 
Q 2525 409 2770 889 
Q 3016 1369 3016 2328 
Q 3016 3291 2770 3770 
Q 2525 4250 2034 4250 
z
M 2034 4750 
Q 2819 4750 3233 4129 
Q 3647 3509 3647 2328 
Q 3647 1150 3233 529 
Q 2819 -91 2034 -91 
Q 1250 -91 836 529 
Q 422 1150 422 2328 
Q 422 3509 836 4129 
Q 1250 4750 2034 4750 
z
" transform="scale(0.015625)"/>
        <path id="DejaVuSans-2e" d="M 684 794 
L 1344 794 
L 1344 0 
L 684 0 
L 684 794 
z
" transform="scale(0.015625)"/>
       </defs>
       <use xlink:href="#DejaVuSans-30"/>
       <use xlink:href="#DejaVuSans-2e" transform="translate(63.623047 0)"/>
       <use xlink:href="#DejaVuSans-30" transform="translate(95.410156 0)"/>
      </g>
     </g>
    </g>
    <g id="xtick_2">
     <g id="line2d_3">
      <path d="M 200.306736 307.957187 
L 200.306736 26.877187 
" clip-path="url(#pc964a69939)" style="fill: none; stroke: #b0b0b0; stroke-opacity: 0.3; stroke-width: 0.8; stroke-linecap: square"/>
     </g>
     <g id="line2d_4">
      <g>
       <use xlink:href="#m6c4edbb42d" x="200.306736" y="307.957187" style="stroke: #000000; stroke-width: 0.8"/>
      </g>
     </g>
     <g id="text_2">
      <!-- 0.2 -->
      <g transform="translate(189.969705 324.835156) scale(0.13 -0.13)">
       <defs>
        <path id="DejaVuSans-32" d="M 1228 531 
L 3431 531 
L 3431 0 
L 469 0 
L 469 531 
Q 828 903 1448 1529 
Q 2069 2156 2228 2338 
Q 2531 2678 2651 2914 
Q 2772 3150 2772 3378 
Q 2772 3750 2511 3984 
Q 2250 4219 1831 4219 
Q 1534 4219 1204 4116 
Q 875 4013 500 3803 
L 500 4441 
Q 881 4594 1212 4672 
Q 1544 4750 1819 4750 
Q 2544 4750 2975 4387 
Q 3406 4025 3406 3419 
Q 3406 3131 3298 2873 
Q 3191 2616 2906 2266 
Q 2828 2175 2409 1742 
Q 1991 1309 1228 531 
z
" transform="scale(0.015625)"/>
       </defs>
       <use xlink:href="#DejaVuSans-30"/>
       <use xlink:href="#DejaVuSans-2e" transform="translate(63.623047 0)"/>
       <use xlink:href="#DejaVuSans-32" transform="translate(95.410156 0)"/>
      </g>
     </g>
    </g>
    <g id="xtick_3">
     <g id="line2d_5">
      <path d="M 330.345342 307.957187 
L 330.345342 26.877187 
" clip-path="url(#pc964a69939)" style="fill: none; stroke: #b0b0b0; stroke-opacity: 0.3; stroke-width: 0.8; stroke-linecap: square"/>
     </g>
     <g id="line2d_6">
      <g>
       <use xlink:href="#m6c4edbb42d" x="330.345342" y="307.957187" style="stroke: #000000; stroke-width: 0.8"/>
      </g>
     </g>
     <g id="text_3">
      <!-- 0.4 -->
      <g transform="translate(320.00831 324.835156) scale(0.13 -0.13)">
       <defs>
        <path id="DejaVuSans-34" d="M 2419 4116 
L 825 1625 
L 2419 1625 
L 2419 4116 
z
M 2253 4666 
L 3047 4666 
L 3047 1625 
L 3713 1625 
L 3713 1100 
L 3047 1100 
L 3047 0 
L 2419 0 
L 2419 1100 
L 313 1100 
L 313 1709 
L 2253 4666 
z
" transform="scale(0.015625)"/>
       </defs>
       <use xlink:href="#DejaVuSans-30"/>
       <use xlink:href="#DejaVuSans-2e" transform="translate(63.623047 0)"/>
       <use xlink:href="#DejaVuSans-34" transform="translate(95.410156 0)"/>
      </g>
     </g>
    </g>
    <g id="xtick_4">
     <g id="line2d_7">
      <path d="M 460.383947 307.957187 
L 460.383947 26.877187 
" clip-path="url(#pc964a69939)" style="fill: none; stroke: #b0b0b0; stroke-opacity: 0.3; stroke-width: 0.8; stroke-linecap: square"/>
     </g>
     <g id="line2d_8">
      <g>
       <use xlink:href="#m6c4edbb42d" x="460.383947" y="307.957187" style="stroke: #000000; stroke-width: 0.8"/>
      </g>
     </g>
     <g id="text_4">
      <!-- 0.6 -->
      <g transform="translate(450.046916 324.835156) scale(0.13 -0.13)">
       <defs>
        <path id="DejaVuSans-36" d="M 2113 2584 
Q 1688 2584 1439 2293 
Q 1191 2003 1191 1497 
Q 1191 994 1439 701 
Q 1688 409 2113 409 
Q 2538 409 2786 701 
Q 3034 994 3034 1497 
Q 3034 2003 2786 2293 
Q 2538 2584 2113 2584 
z
M 3366 4563 
L 3366 3988 
Q 3128 4100 2886 4159 
Q 2644 4219 2406 4219 
Q 1781 4219 1451 3797 
Q 1122 3375 1075 2522 
Q 1259 2794 1537 2939 
Q 1816 3084 2150 3084 
Q 2853 3084 3261 2657 
Q 3669 2231 3669 1497 
Q 3669 778 3244 343 
Q 2819 -91 2113 -91 
Q 1303 -91 875 529 
Q 447 1150 447 2328 
Q 447 3434 972 4092 
Q 1497 4750 2381 4750 
Q 2619 4750 2861 4703 
Q 3103 4656 3366 4563 
z
" transform="scale(0.015625)"/>
       </defs>
       <use xlink:href="#DejaVuSans-30"/>
       <use xlink:href="#DejaVuSans-2e" transform="translate(63.623047 0)"/>
       <use xlink:href="#DejaVuSans-36" transform="translate(95.410156 0)"/>
      </g>
     </g>
    </g>
    <g id="xtick_5">
     <g id="line2d_9">
      <path d="M 590.422553 307.957187 
L 590.422553 26.877187 
" clip-path="url(#pc964a69939)" style="fill: none; stroke: #b0b0b0; stroke-opacity: 0.3; stroke-width: 0.8; stroke-linecap: square"/>
     </g>
     <g id="line2d_10">
      <g>
       <use xlink:href="#m6c4edbb42d" x="590.422553" y="307.957187" style="stroke: #000000; stroke-width: 0.8"/>
      </g>
     </g>
     <g id="text_5">
      <!-- 0.8 -->
      <g transform="translate(580.085522 324.835156) scale(0.13 -0.13)">
       <defs>
        <path id="DejaVuSans-38" d="M 2034 2216 
Q 1584 2216 1326 1975 
Q 1069 1734 1069 1313 
Q 1069 891 1326 650 
Q 1584 409 2034 409 
Q 2484 409 2743 651 
Q 3003 894 3003 1313 
Q 3003 1734 2745 1975 
Q 2488 2216 2034 2216 
z
M 1403 2484 
Q 997 2584 770 2862 
Q 544 3141 544 3541 
Q 544 4100 942 4425 
Q 1341 4750 2034 4750 
Q 2731 4750 3128 4425 
Q 3525 4100 3525 3541 
Q 3525 3141 3298 2862 
Q 3072 2584 2669 2484 
Q 3125 2378 3379 2068 
Q 3634 1759 3634 1313 
Q 3634 634 3220 271 
Q 2806 -91 2034 -91 
Q 1263 -91 848 271 
Q 434 634 434 1313 
Q 434 1759 690 2068 
Q 947 2378 1403 2484 
z
M 1172 3481 
Q 1172 3119 1398 2916 
Q 1625 2713 2034 2713 
Q 2441 2713 2670 2916 
Q 2900 3119 2900 3481 
Q 2900 3844 2670 4047 
Q 2441 4250 2034 4250 
Q 1625 4250 1398 4047 
Q 1172 3844 1172 3481 
z
" transform="scale(0.015625)"/>
       </defs>
       <use xlink:href="#DejaVuSans-30"/>
       <use xlink:href="#DejaVuSans-2e" transform="translate(63.623047 0)"/>
       <use xlink:href="#DejaVuSans-38" transform="translate(95.410156 0)"/>
      </g>
     </g>
    </g>
    <g id="text_6">
     <!-- Distancia coseno -->
     <g transform="translate(313.176094 342.176562) scale(0.14 -0.14)">
      <defs>
       <path id="DejaVuSans-44" d="M 1259 4147 
L 1259 519 
L 2022 519 
Q 2988 519 3436 956 
Q 3884 1394 3884 2338 
Q 3884 3275 3436 3711 
Q 2988 4147 2022 4147 
L 1259 4147 
z
M 628 4666 
L 1925 4666 
Q 3281 4666 3915 4102 
Q 4550 3538 4550 2338 
Q 4550 1131 3912 565 
Q 3275 0 1925 0 
L 628 0 
L 628 4666 
z
" transform="scale(0.015625)"/>
       <path id="DejaVuSans-69" d="M 603 3500 
L 1178 3500 
L 1178 0 
L 603 0 
L 603 3500 
z
M 603 4863 
L 1178 4863 
L 1178 4134 
L 603 4134 
L 603 4863 
z
" transform="scale(0.015625)"/>
       <path id="DejaVuSans-73" d="M 2834 3397 
L 2834 2853 
Q 2591 2978 2328 3040 
Q 2066 3103 1784 3103 
Q 1356 3103 1142 2972 
Q 928 2841 928 2578 
Q 928 2378 1081 2264 
Q 1234 2150 1697 2047 
L 1894 2003 
Q 2506 1872 2764 1633 
Q 3022 1394 3022 966 
Q 3022 478 2636 193 
Q 2250 -91 1575 -91 
Q 1294 -91 989 -36 
Q 684 19 347 128 
L 347 722 
Q 666 556 975 473 
Q 1284 391 1588 391 
Q 1994 391 2212 530 
Q 2431 669 2431 922 
Q 2431 1156 2273 1281 
Q 2116 1406 1581 1522 
L 1381 1569 
Q 847 1681 609 1914 
Q 372 2147 372 2553 
Q 372 3047 722 3315 
Q 1072 3584 1716 3584 
Q 2034 3584 2315 3537 
Q 2597 3491 2834 3397 
z
" transform="scale(0.015625)"/>
       <path id="DejaVuSans-74" d="M 1172 4494 
L 1172 3500 
L 2356 3500 
L 2356 3053 
L 1172 3053 
L 1172 1153 
Q 1172 725 1289 603 
Q 1406 481 1766 481 
L 2356 481 
L 2356 0 
L 1766 0 
Q 1100 0 847 248 
Q 594 497 594 1153 
L 594 3053 
L 172 3053 
L 172 3500 
L 594 3500 
L 594 4494 
L 1172 4494 
z
" transform="scale(0.015625)"/>
       <path id="DejaVuSans-61" d="M 2194 1759 
Q 1497 1759 1228 1600 
Q 959 1441 959 1056 
Q 959 750 1161 570 
Q 1363 391 1709 391 
Q 2188 391 2477 730 
Q 2766 1069 2766 1631 
L 2766 1759 
L 2194 1759 
z
M 3341 1997 
L 3341 0 
L 2766 0 
L 2766 531 
Q 2569 213 2275 61 
Q 1981 -91 1556 -91 
Q 1019 -91 701 211 
Q 384 513 384 1019 
Q 384 1609 779 1909 
Q 1175 2209 1959 2209 
L 2766 2209 
L 2766 2266 
Q 2766 2663 2505 2880 
Q 2244 3097 1772 3097 
Q 1472 3097 1187 3025 
Q 903 2953 641 2809 
L 641 3341 
Q 956 3463 1253 3523 
Q 1550 3584 1831 3584 
Q 2591 3584 2966 3190 
Q 3341 2797 3341 1997 
z
" transform="scale(0.015625)"/>
       <path id="DejaVuSans-6e" d="M 3513 2113 
L 3513 0 
L 2938 0 
L 2938 2094 
Q 2938 2591 2744 2837 
Q 2550 3084 2163 3084 
Q 1697 3084 1428 2787 
Q 1159 2491 1159 1978 
L 1159 0 
L 581 0 
L 581 3500 
L 1159 3500 
L 1159 2956 
Q 1366 3272 1645 3428 
Q 1925 3584 2291 3584 
Q 2894 3584 3203 3211 
Q 3513 2838 3513 2113 
z
" transform="scale(0.015625)"/>
       <path id="DejaVuSans-63" d="M 3122 3366 
L 3122 2828 
Q 2878 2963 2633 3030 
Q 2388 3097 2138 3097 
Q 1578 3097 1268 2742 
Q 959 2388 959 1747 
Q 959 1106 1268 751 
Q 1578 397 2138 397 
Q 2388 397 2633 464 
Q 2878 531 3122 666 
L 3122 134 
Q 2881 22 2623 -34 
Q 2366 -91 2075 -91 
Q 1284 -91 818 406 
Q 353 903 353 1747 
Q 353 2603 823 3093 
Q 1294 3584 2113 3584 
Q 2378 3584 2631 3529 
Q 2884 3475 3122 3366 
z
" transform="scale(0.015625)"/>
       <path id="DejaVuSans-20" transform="scale(0.015625)"/>
       <path id="DejaVuSans-6f" d="M 1959 3097 
Q 1497 3097 1228 2736 
Q 959 2375 959 1747 
Q 959 1119 1226 758 
Q 1494 397 1959 397 
Q 2419 397 2687 759 
Q 2956 1122 2956 1747 
Q 2956 2369 2687 2733 
Q 2419 3097 1959 3097 
z
M 1959 3584 
Q 2709 3584 3137 3096 
Q 3566 2609 3566 1747 
Q 3566 888 3137 398 
Q 2709 -91 1959 -91 
Q 1206 -91 779 398 
Q 353 888 353 1747 
Q 353 2609 779 3096 
Q 1206 3584 1959 3584 
z
" transform="scale(0.015625)"/>
       <path id="DejaVuSans-65" d="M 3597 1894 
L 3597 1613 
L 953 1613 
Q 991 1019 1311 708 
Q 1631 397 2203 397 
Q 2534 397 2845 478 
Q 3156 559 3463 722 
L 3463 178 
Q 3153 47 2828 -22 
Q 2503 -91 2169 -91 
Q 1331 -91 842 396 
Q 353 884 353 1716 
Q 353 2575 817 3079 
Q 1281 3584 2069 3584 
Q 2775 3584 3186 3129 
Q 3597 2675 3597 1894 
z
M 3022 2063 
Q 3016 2534 2758 2815 
Q 2500 3097 2075 3097 
Q 1594 3097 1305 2825 
Q 1016 2553 972 2059 
L 3022 2063 
z
" transform="scale(0.015625)"/>
      </defs>
      <use xlink:href="#DejaVuSans-44"/>
      <use xlink:href="#DejaVuSans-69" transform="translate(77.001953 0)"/>
      <use xlink:href="#DejaVuSans-73" transform="translate(104.785156 0)"/>
      <use xlink:href="#DejaVuSans-74" transform="translate(156.884766 0)"/>
      <use xlink:href="#DejaVuSans-61" transform="translate(196.09375 0)"/>
      <use xlink:href="#DejaVuSans-6e" transform="translate(257.373047 0)"/>
      <use xlink:href="#DejaVuSans-63" transform="translate(320.751953 0)"/>
      <use xlink:href="#DejaVuSans-69" transform="translate(375.732422 0)"/>
      <use xlink:href="#DejaVuSans-61" transform="translate(403.515625 0)"/>
      <use xlink:href="#DejaVuSans-20" transform="translate(464.794922 0)"/>
      <use xlink:href="#DejaVuSans-63" transform="translate(496.582031 0)"/>
      <use xlink:href="#DejaVuSans-6f" transform="translate(551.5625 0)"/>
      <use xlink:href="#DejaVuSans-73" transform="translate(612.744141 0)"/>
      <use xlink:href="#DejaVuSans-65" transform="translate(664.84375 0)"/>
      <use xlink:href="#DejaVuSans-6e" transform="translate(726.367188 0)"/>
      <use xlink:href="#DejaVuSans-6f" transform="translate(789.746094 0)"/>
     </g>
    </g>
   </g>
   <g id="matplotlib.axis_2">
    <g id="ytick_1">
     <g id="line2d_11">
      <path d="M 40.020625 307.957187 
L 705.460625 307.957187 
" clip-path="url(#pc964a69939)" style="fill: none; stroke: #b0b0b0; stroke-opacity: 0.3; stroke-width: 0.8; stroke-linecap: square"/>
     </g>
     <g id="line2d_12">
      <defs>
       <path id="mad720ffb77" d="M 0 0 
L -3.5 0 
" style="stroke: #000000; stroke-width: 0.8"/>
      </defs>
      <g>
       <use xlink:href="#mad720ffb77" x="40.020625" y="307.957187" style="stroke: #000000; stroke-width: 0.8"/>
      </g>
     </g>
     <g id="text_7">
      <!-- 0 -->
      <g transform="translate(24.749375 312.896172) scale(0.13 -0.13)">
       <use xlink:href="#DejaVuSans-30"/>
      </g>
     </g>
    </g>
    <g id="ytick_2">
     <g id="line2d_13">
      <path d="M 40.020625 248.733371 
L 705.460625 248.733371 
" clip-path="url(#pc964a69939)" style="fill: none; stroke: #b0b0b0; stroke-opacity: 0.3; stroke-width: 0.8; stroke-linecap: square"/>
     </g>
     <g id="line2d_14">
      <g>
       <use xlink:href="#mad720ffb77" x="40.020625" y="248.733371" style="stroke: #000000; stroke-width: 0.8"/>
      </g>
     </g>
     <g id="text_8">
      <!-- 1 -->
      <g transform="translate(24.749375 253.672356) scale(0.13 -0.13)">
       <defs>
        <path id="DejaVuSans-31" d="M 794 531 
L 1825 531 
L 1825 4091 
L 703 3866 
L 703 4441 
L 1819 4666 
L 2450 4666 
L 2450 531 
L 3481 531 
L 3481 0 
L 794 0 
L 794 531 
z
" transform="scale(0.015625)"/>
       </defs>
       <use xlink:href="#DejaVuSans-31"/>
      </g>
     </g>
    </g>
    <g id="ytick_3">
     <g id="line2d_15">
      <path d="M 40.020625 189.509555 
L 705.460625 189.509555 
" clip-path="url(#pc964a69939)" style="fill: none; stroke: #b0b0b0; stroke-opacity: 0.3; stroke-width: 0.8; stroke-linecap: square"/>
     </g>
     <g id="line2d_16">
      <g>
       <use xlink:href="#mad720ffb77" x="40.020625" y="189.509555" style="stroke: #000000; stroke-width: 0.8"/>
      </g>
     </g>
     <g id="text_9">
      <!-- 2 -->
      <g transform="translate(24.749375 194.448539) scale(0.13 -0.13)">
       <use xlink:href="#DejaVuSans-32"/>
      </g>
     </g>
    </g>
    <g id="ytick_4">
     <g id="line2d_17">
      <path d="M 40.020625 130.285739 
L 705.460625 130.285739 
" clip-path="url(#pc964a69939)" style="fill: none; stroke: #b0b0b0; stroke-opacity: 0.3; stroke-width: 0.8; stroke-linecap: square"/>
     </g>
     <g id="line2d_18">
      <g>
       <use xlink:href="#mad720ffb77" x="40.020625" y="130.285739" style="stroke: #000000; stroke-width: 0.8"/>
      </g>
     </g>
     <g id="text_10">
      <!-- 3 -->
      <g transform="translate(24.749375 135.224723) scale(0.13 -0.13)">
       <defs>
        <path id="DejaVuSans-33" d="M 2597 2516 
Q 3050 2419 3304 2112 
Q 3559 1806 3559 1356 
Q 3559 666 3084 287 
Q 2609 -91 1734 -91 
Q 1441 -91 1130 -33 
Q 819 25 488 141 
L 488 750 
Q 750 597 1062 519 
Q 1375 441 1716 441 
Q 2309 441 2620 675 
Q 2931 909 2931 1356 
Q 2931 1769 2642 2001 
Q 2353 2234 1838 2234 
L 1294 2234 
L 1294 2753 
L 1863 2753 
Q 2328 2753 2575 2939 
Q 2822 3125 2822 3475 
Q 2822 3834 2567 4026 
Q 2313 4219 1838 4219 
Q 1578 4219 1281 4162 
Q 984 4106 628 3988 
L 628 4550 
Q 988 4650 1302 4700 
Q 1616 4750 1894 4750 
Q 2613 4750 3031 4423 
Q 3450 4097 3450 3541 
Q 3450 3153 3228 2886 
Q 3006 2619 2597 2516 
z
" transform="scale(0.015625)"/>
       </defs>
       <use xlink:href="#DejaVuSans-33"/>
      </g>
     </g>
    </g>
    <g id="ytick_5">
     <g id="line2d_19">
      <path d="M 40.020625 71.061922 
L 705.460625 71.061922 
" clip-path="url(#pc964a69939)" style="fill: none; stroke: #b0b0b0; stroke-opacity: 0.3; stroke-width: 0.8; stroke-linecap: square"/>
     </g>
     <g id="line2d_20">
      <g>
       <use xlink:href="#mad720ffb77" x="40.020625" y="71.061922" style="stroke: #000000; stroke-width: 0.8"/>
      </g>
     </g>
     <g id="text_11">
      <!-- 4 -->
      <g transform="translate(24.749375 76.000907) scale(0.13 -0.13)">
       <use xlink:href="#DejaVuSans-34"/>
      </g>
     </g>
    </g>
    <g id="text_12">
     <!-- Densidad -->
     <g transform="translate(17.837813 200.319375) rotate(-90) scale(0.14 -0.14)">
      <defs>
       <path id="DejaVuSans-64" d="M 2906 2969 
L 2906 4863 
L 3481 4863 
L 3481 0 
L 2906 0 
L 2906 525 
Q 2725 213 2448 61 
Q 2172 -91 1784 -91 
Q 1150 -91 751 415 
Q 353 922 353 1747 
Q 353 2572 751 3078 
Q 1150 3584 1784 3584 
Q 2172 3584 2448 3432 
Q 2725 3281 2906 2969 
z
M 947 1747 
Q 947 1113 1208 752 
Q 1469 391 1925 391 
Q 2381 391 2643 752 
Q 2906 1113 2906 1747 
Q 2906 2381 2643 2742 
Q 2381 3103 1925 3103 
Q 1469 3103 1208 2742 
Q 947 2381 947 1747 
z
" transform="scale(0.015625)"/>
      </defs>
      <use xlink:href="#DejaVuSans-44"/>
      <use xlink:href="#DejaVuSans-65" transform="translate(77.001953 0)"/>
      <use xlink:href="#DejaVuSans-6e" transform="translate(138.525391 0)"/>
      <use xlink:href="#DejaVuSans-73" transform="translate(201.904297 0)"/>
      <use xlink:href="#DejaVuSans-69" transform="translate(254.003906 0)"/>
      <use xlink:href="#DejaVuSans-64" transform="translate(281.787109 0)"/>
      <use xlink:href="#DejaVuSans-61" transform="translate(345.263672 0)"/>
      <use xlink:href="#DejaVuSans-64" transform="translate(406.542969 0)"/>
     </g>
    </g>
   </g>
   <g id="line2d_21">
    <path d="M 425.551764 307.957187 
L 425.551764 26.877187 
" clip-path="url(#pc964a69939)" style="fill: none; stroke-dasharray: 6.66,2.88; stroke-dashoffset: 0; stroke: #98d594; stroke-width: 1.8"/>
   </g>
   <g id="line2d_22">
    <path d="M 471.100171 307.957187 
L 471.100171 26.877187 
" clip-path="url(#pc964a69939)" style="fill: none; stroke-dasharray: 6.66,2.88; stroke-dashoffset: 0; stroke: #60ba6c; stroke-width: 1.8"/>
   </g>
   <g id="line2d_23">
    <path d="M 506.158179 307.957187 
L 506.158179 26.877187 
" clip-path="url(#pc964a69939)" style="fill: none; stroke-dasharray: 6.66,2.88; stroke-dashoffset: 0; stroke: #2f974e; stroke-width: 1.8"/>
   </g>
   <g id="line2d_24">
    <path d="M 564.007143 307.957187 
L 564.007143 26.877187 
" clip-path="url(#pc964a69939)" style="fill: none; stroke-dasharray: 6.66,2.88; stroke-dashoffset: 0; stroke: #006428; stroke-width: 1.8"/>
   </g>
   <g id="patch_163">
    <path d="M 40.020625 307.957187 
L 40.020625 26.877187 
" style="fill: none; stroke: #000000; stroke-width: 0.8; stroke-linejoin: miter; stroke-linecap: square"/>
   </g>
   <g id="patch_164">
    <path d="M 705.460625 307.957187 
L 705.460625 26.877187 
" style="fill: none; stroke: #000000; stroke-width: 0.8; stroke-linejoin: miter; stroke-linecap: square"/>
   </g>
   <g id="patch_165">
    <path d="M 40.020625 307.957187 
L 705.460625 307.957187 
" style="fill: none; stroke: #000000; stroke-width: 0.8; stroke-linejoin: miter; stroke-linecap: square"/>
   </g>
   <g id="patch_166">
    <path d="M 40.020625 26.877187 
L 705.460625 26.877187 
" style="fill: none; stroke: #000000; stroke-width: 0.8; stroke-linejoin: miter; stroke-linecap: square"/>
   </g>
   <g id="text_13">
    <!-- Distribuciones de distancia intra vs inter-clase — DINOv2 Small -->
    <g transform="translate(51.118594 20.877187) scale(0.18 -0.18)">
     <defs>
      <path id="DejaVuSans-Bold-44" d="M 1791 3756 
L 1791 909 
L 2222 909 
Q 2959 909 3348 1275 
Q 3738 1641 3738 2338 
Q 3738 3031 3350 3393 
Q 2963 3756 2222 3756 
L 1791 3756 
z
M 588 4666 
L 1856 4666 
Q 2919 4666 3439 4514 
Q 3959 4363 4331 4000 
Q 4659 3684 4818 3271 
Q 4978 2859 4978 2338 
Q 4978 1809 4818 1395 
Q 4659 981 4331 666 
Q 3956 303 3431 151 
Q 2906 0 1856 0 
L 588 0 
L 588 4666 
z
" transform="scale(0.015625)"/>
      <path id="DejaVuSans-Bold-69" d="M 538 3500 
L 1656 3500 
L 1656 0 
L 538 0 
L 538 3500 
z
M 538 4863 
L 1656 4863 
L 1656 3950 
L 538 3950 
L 538 4863 
z
" transform="scale(0.015625)"/>
      <path id="DejaVuSans-Bold-73" d="M 3272 3391 
L 3272 2541 
Q 2913 2691 2578 2766 
Q 2244 2841 1947 2841 
Q 1628 2841 1473 2761 
Q 1319 2681 1319 2516 
Q 1319 2381 1436 2309 
Q 1553 2238 1856 2203 
L 2053 2175 
Q 2913 2066 3209 1816 
Q 3506 1566 3506 1031 
Q 3506 472 3093 190 
Q 2681 -91 1863 -91 
Q 1516 -91 1145 -36 
Q 775 19 384 128 
L 384 978 
Q 719 816 1070 734 
Q 1422 653 1784 653 
Q 2113 653 2278 743 
Q 2444 834 2444 1013 
Q 2444 1163 2330 1236 
Q 2216 1309 1875 1350 
L 1678 1375 
Q 931 1469 631 1722 
Q 331 1975 331 2491 
Q 331 3047 712 3315 
Q 1094 3584 1881 3584 
Q 2191 3584 2531 3537 
Q 2872 3491 3272 3391 
z
" transform="scale(0.015625)"/>
      <path id="DejaVuSans-Bold-74" d="M 1759 4494 
L 1759 3500 
L 2913 3500 
L 2913 2700 
L 1759 2700 
L 1759 1216 
Q 1759 972 1856 886 
Q 1953 800 2241 800 
L 2816 800 
L 2816 0 
L 1856 0 
Q 1194 0 917 276 
Q 641 553 641 1216 
L 641 2700 
L 84 2700 
L 84 3500 
L 641 3500 
L 641 4494 
L 1759 4494 
z
" transform="scale(0.015625)"/>
      <path id="DejaVuSans-Bold-72" d="M 3138 2547 
Q 2991 2616 2845 2648 
Q 2700 2681 2553 2681 
Q 2122 2681 1889 2404 
Q 1656 2128 1656 1613 
L 1656 0 
L 538 0 
L 538 3500 
L 1656 3500 
L 1656 2925 
Q 1872 3269 2151 3426 
Q 2431 3584 2822 3584 
Q 2878 3584 2943 3579 
Q 3009 3575 3134 3559 
L 3138 2547 
z
" transform="scale(0.015625)"/>
      <path id="DejaVuSans-Bold-62" d="M 2400 722 
Q 2759 722 2948 984 
Q 3138 1247 3138 1747 
Q 3138 2247 2948 2509 
Q 2759 2772 2400 2772 
Q 2041 2772 1848 2508 
Q 1656 2244 1656 1747 
Q 1656 1250 1848 986 
Q 2041 722 2400 722 
z
M 1656 2988 
Q 1888 3294 2169 3439 
Q 2450 3584 2816 3584 
Q 3463 3584 3878 3070 
Q 4294 2556 4294 1747 
Q 4294 938 3878 423 
Q 3463 -91 2816 -91 
Q 2450 -91 2169 54 
Q 1888 200 1656 506 
L 1656 0 
L 538 0 
L 538 4863 
L 1656 4863 
L 1656 2988 
z
" transform="scale(0.015625)"/>
      <path id="DejaVuSans-Bold-75" d="M 500 1363 
L 500 3500 
L 1625 3500 
L 1625 3150 
Q 1625 2866 1622 2436 
Q 1619 2006 1619 1863 
Q 1619 1441 1641 1255 
Q 1663 1069 1716 984 
Q 1784 875 1895 815 
Q 2006 756 2150 756 
Q 2500 756 2700 1025 
Q 2900 1294 2900 1772 
L 2900 3500 
L 4019 3500 
L 4019 0 
L 2900 0 
L 2900 506 
Q 2647 200 2364 54 
Q 2081 -91 1741 -91 
Q 1134 -91 817 281 
Q 500 653 500 1363 
z
" transform="scale(0.015625)"/>
      <path id="DejaVuSans-Bold-63" d="M 3366 3391 
L 3366 2478 
Q 3138 2634 2908 2709 
Q 2678 2784 2431 2784 
Q 1963 2784 1702 2511 
Q 1441 2238 1441 1747 
Q 1441 1256 1702 982 
Q 1963 709 2431 709 
Q 2694 709 2930 787 
Q 3166 866 3366 1019 
L 3366 103 
Q 3103 6 2833 -42 
Q 2563 -91 2291 -91 
Q 1344 -91 809 395 
Q 275 881 275 1747 
Q 275 2613 809 3098 
Q 1344 3584 2291 3584 
Q 2566 3584 2833 3536 
Q 3100 3488 3366 3391 
z
" transform="scale(0.015625)"/>
      <path id="DejaVuSans-Bold-6f" d="M 2203 2784 
Q 1831 2784 1636 2517 
Q 1441 2250 1441 1747 
Q 1441 1244 1636 976 
Q 1831 709 2203 709 
Q 2569 709 2762 976 
Q 2956 1244 2956 1747 
Q 2956 2250 2762 2517 
Q 2569 2784 2203 2784 
z
M 2203 3584 
Q 3106 3584 3614 3096 
Q 4122 2609 4122 1747 
Q 4122 884 3614 396 
Q 3106 -91 2203 -91 
Q 1297 -91 786 396 
Q 275 884 275 1747 
Q 275 2609 786 3096 
Q 1297 3584 2203 3584 
z
" transform="scale(0.015625)"/>
      <path id="DejaVuSans-Bold-6e" d="M 4056 2131 
L 4056 0 
L 2931 0 
L 2931 347 
L 2931 1631 
Q 2931 2084 2911 2256 
Q 2891 2428 2841 2509 
Q 2775 2619 2662 2680 
Q 2550 2741 2406 2741 
Q 2056 2741 1856 2470 
Q 1656 2200 1656 1722 
L 1656 0 
L 538 0 
L 538 3500 
L 1656 3500 
L 1656 2988 
Q 1909 3294 2193 3439 
Q 2478 3584 2822 3584 
Q 3428 3584 3742 3212 
Q 4056 2841 4056 2131 
z
" transform="scale(0.015625)"/>
      <path id="DejaVuSans-Bold-65" d="M 4031 1759 
L 4031 1441 
L 1416 1441 
Q 1456 1047 1700 850 
Q 1944 653 2381 653 
Q 2734 653 3104 758 
Q 3475 863 3866 1075 
L 3866 213 
Q 3469 63 3072 -14 
Q 2675 -91 2278 -91 
Q 1328 -91 801 392 
Q 275 875 275 1747 
Q 275 2603 792 3093 
Q 1309 3584 2216 3584 
Q 3041 3584 3536 3087 
Q 4031 2591 4031 1759 
z
M 2881 2131 
Q 2881 2450 2695 2645 
Q 2509 2841 2209 2841 
Q 1884 2841 1681 2658 
Q 1478 2475 1428 2131 
L 2881 2131 
z
" transform="scale(0.015625)"/>
      <path id="DejaVuSans-Bold-20" transform="scale(0.015625)"/>
      <path id="DejaVuSans-Bold-64" d="M 2919 2988 
L 2919 4863 
L 4044 4863 
L 4044 0 
L 2919 0 
L 2919 506 
Q 2688 197 2409 53 
Q 2131 -91 1766 -91 
Q 1119 -91 703 423 
Q 288 938 288 1747 
Q 288 2556 703 3070 
Q 1119 3584 1766 3584 
Q 2128 3584 2408 3439 
Q 2688 3294 2919 2988 
z
M 2181 722 
Q 2541 722 2730 984 
Q 2919 1247 2919 1747 
Q 2919 2247 2730 2509 
Q 2541 2772 2181 2772 
Q 1825 2772 1636 2509 
Q 1447 2247 1447 1747 
Q 1447 1247 1636 984 
Q 1825 722 2181 722 
z
" transform="scale(0.015625)"/>
      <path id="DejaVuSans-Bold-61" d="M 2106 1575 
Q 1756 1575 1579 1456 
Q 1403 1338 1403 1106 
Q 1403 894 1545 773 
Q 1688 653 1941 653 
Q 2256 653 2472 879 
Q 2688 1106 2688 1447 
L 2688 1575 
L 2106 1575 
z
M 3816 1997 
L 3816 0 
L 2688 0 
L 2688 519 
Q 2463 200 2181 54 
Q 1900 -91 1497 -91 
Q 953 -91 614 226 
Q 275 544 275 1050 
Q 275 1666 698 1953 
Q 1122 2241 2028 2241 
L 2688 2241 
L 2688 2328 
Q 2688 2594 2478 2717 
Q 2269 2841 1825 2841 
Q 1466 2841 1156 2769 
Q 847 2697 581 2553 
L 581 3406 
Q 941 3494 1303 3539 
Q 1666 3584 2028 3584 
Q 2975 3584 3395 3211 
Q 3816 2838 3816 1997 
z
" transform="scale(0.015625)"/>
      <path id="DejaVuSans-Bold-76" d="M 97 3500 
L 1216 3500 
L 2088 1081 
L 2956 3500 
L 4078 3500 
L 2700 0 
L 1472 0 
L 97 3500 
z
" transform="scale(0.015625)"/>
      <path id="DejaVuSans-Bold-2d" d="M 347 2297 
L 2309 2297 
L 2309 1388 
L 347 1388 
L 347 2297 
z
" transform="scale(0.015625)"/>
      <path id="DejaVuSans-Bold-6c" d="M 538 4863 
L 1656 4863 
L 1656 0 
L 538 0 
L 538 4863 
z
" transform="scale(0.015625)"/>
      <path id="DejaVuSans-Bold-2014" d="M 344 2156 
L 6056 2156 
L 6056 1350 
L 344 1350 
L 344 2156 
z
" transform="scale(0.015625)"/>
      <path id="DejaVuSans-Bold-49" d="M 588 4666 
L 1791 4666 
L 1791 0 
L 588 0 
L 588 4666 
z
" transform="scale(0.015625)"/>
      <path id="DejaVuSans-Bold-4e" d="M 588 4666 
L 1931 4666 
L 3628 1466 
L 3628 4666 
L 4769 4666 
L 4769 0 
L 3425 0 
L 1728 3200 
L 1728 0 
L 588 0 
L 588 4666 
z
" transform="scale(0.015625)"/>
      <path id="DejaVuSans-Bold-4f" d="M 2719 3878 
Q 2169 3878 1866 3472 
Q 1563 3066 1563 2328 
Q 1563 1594 1866 1187 
Q 2169 781 2719 781 
Q 3272 781 3575 1187 
Q 3878 1594 3878 2328 
Q 3878 3066 3575 3472 
Q 3272 3878 2719 3878 
z
M 2719 4750 
Q 3844 4750 4481 4106 
Q 5119 3463 5119 2328 
Q 5119 1197 4481 553 
Q 3844 -91 2719 -91 
Q 1597 -91 958 553 
Q 319 1197 319 2328 
Q 319 3463 958 4106 
Q 1597 4750 2719 4750 
z
" transform="scale(0.015625)"/>
      <path id="DejaVuSans-Bold-32" d="M 1844 884 
L 3897 884 
L 3897 0 
L 506 0 
L 506 884 
L 2209 2388 
Q 2438 2594 2547 2791 
Q 2656 2988 2656 3200 
Q 2656 3528 2436 3728 
Q 2216 3928 1850 3928 
Q 1569 3928 1234 3808 
Q 900 3688 519 3450 
L 519 4475 
Q 925 4609 1322 4679 
Q 1719 4750 2100 4750 
Q 2938 4750 3402 4381 
Q 3866 4013 3866 3353 
Q 3866 2972 3669 2642 
Q 3472 2313 2841 1759 
L 1844 884 
z
" transform="scale(0.015625)"/>
      <path id="DejaVuSans-Bold-53" d="M 3834 4519 
L 3834 3531 
Q 3450 3703 3084 3790 
Q 2719 3878 2394 3878 
Q 1963 3878 1756 3759 
Q 1550 3641 1550 3391 
Q 1550 3203 1689 3098 
Q 1828 2994 2194 2919 
L 2706 2816 
Q 3484 2659 3812 2340 
Q 4141 2022 4141 1434 
Q 4141 663 3683 286 
Q 3225 -91 2284 -91 
Q 1841 -91 1394 -6 
Q 947 78 500 244 
L 500 1259 
Q 947 1022 1364 901 
Q 1781 781 2169 781 
Q 2563 781 2772 912 
Q 2981 1044 2981 1288 
Q 2981 1506 2839 1625 
Q 2697 1744 2272 1838 
L 1806 1941 
Q 1106 2091 782 2419 
Q 459 2747 459 3303 
Q 459 4000 909 4375 
Q 1359 4750 2203 4750 
Q 2588 4750 2994 4692 
Q 3400 4634 3834 4519 
z
" transform="scale(0.015625)"/>
      <path id="DejaVuSans-Bold-6d" d="M 3781 2919 
Q 3994 3244 4286 3414 
Q 4578 3584 4928 3584 
Q 5531 3584 5847 3212 
Q 6163 2841 6163 2131 
L 6163 0 
L 5038 0 
L 5038 1825 
Q 5041 1866 5042 1909 
Q 5044 1953 5044 2034 
Q 5044 2406 4934 2573 
Q 4825 2741 4581 2741 
Q 4263 2741 4089 2478 
Q 3916 2216 3909 1719 
L 3909 0 
L 2784 0 
L 2784 1825 
Q 2784 2406 2684 2573 
Q 2584 2741 2328 2741 
Q 2006 2741 1831 2477 
Q 1656 2213 1656 1722 
L 1656 0 
L 531 0 
L 531 3500 
L 1656 3500 
L 1656 2988 
Q 1863 3284 2130 3434 
Q 2397 3584 2719 3584 
Q 3081 3584 3359 3409 
Q 3638 3234 3781 2919 
z
" transform="scale(0.015625)"/>
     </defs>
     <use xlink:href="#DejaVuSans-Bold-44"/>
     <use xlink:href="#DejaVuSans-Bold-69" transform="translate(83.007812 0)"/>
     <use xlink:href="#DejaVuSans-Bold-73" transform="translate(117.285156 0)"/>
     <use xlink:href="#DejaVuSans-Bold-74" transform="translate(176.806641 0)"/>
     <use xlink:href="#DejaVuSans-Bold-72" transform="translate(224.609375 0)"/>
     <use xlink:href="#DejaVuSans-Bold-69" transform="translate(273.925781 0)"/>
     <use xlink:href="#DejaVuSans-Bold-62" transform="translate(308.203125 0)"/>
     <use xlink:href="#DejaVuSans-Bold-75" transform="translate(379.785156 0)"/>
     <use xlink:href="#DejaVuSans-Bold-63" transform="translate(450.976562 0)"/>
     <use xlink:href="#DejaVuSans-Bold-69" transform="translate(510.253906 0)"/>
     <use xlink:href="#DejaVuSans-Bold-6f" transform="translate(544.53125 0)"/>
     <use xlink:href="#DejaVuSans-Bold-6e" transform="translate(613.232422 0)"/>
     <use xlink:href="#DejaVuSans-Bold-65" transform="translate(684.423828 0)"/>
     <use xlink:href="#DejaVuSans-Bold-73" transform="translate(752.246094 0)"/>
     <use xlink:href="#DejaVuSans-Bold-20" transform="translate(811.767578 0)"/>
     <use xlink:href="#DejaVuSans-Bold-64" transform="translate(846.582031 0)"/>
     <use xlink:href="#DejaVuSans-Bold-65" transform="translate(918.164062 0)"/>
     <use xlink:href="#DejaVuSans-Bold-20" transform="translate(985.986328 0)"/>
     <use xlink:href="#DejaVuSans-Bold-64" transform="translate(1020.800781 0)"/>
     <use xlink:href="#DejaVuSans-Bold-69" transform="translate(1092.382812 0)"/>
     <use xlink:href="#DejaVuSans-Bold-73" transform="translate(1126.660156 0)"/>
     <use xlink:href="#DejaVuSans-Bold-74" transform="translate(1186.181641 0)"/>
     <use xlink:href="#DejaVuSans-Bold-61" transform="translate(1233.984375 0)"/>
     <use xlink:href="#DejaVuSans-Bold-6e" transform="translate(1301.464844 0)"/>
     <use xlink:href="#DejaVuSans-Bold-63" transform="translate(1372.65625 0)"/>
     <use xlink:href="#DejaVuSans-Bold-69" transform="translate(1431.933594 0)"/>
     <use xlink:href="#DejaVuSans-Bold-61" transform="translate(1466.210938 0)"/>
     <use xlink:href="#DejaVuSans-Bold-20" transform="translate(1533.691406 0)"/>
     <use xlink:href="#DejaVuSans-Bold-69" transform="translate(1568.505859 0)"/>
     <use xlink:href="#DejaVuSans-Bold-6e" transform="translate(1602.783203 0)"/>
     <use xlink:href="#DejaVuSans-Bold-74" transform="translate(1673.974609 0)"/>
     <use xlink:href="#DejaVuSans-Bold-72" transform="translate(1721.777344 0)"/>
     <use xlink:href="#DejaVuSans-Bold-61" transform="translate(1771.09375 0)"/>
     <use xlink:href="#DejaVuSans-Bold-20" transform="translate(1838.574219 0)"/>
     <use xlink:href="#DejaVuSans-Bold-76" transform="translate(1873.388672 0)"/>
     <use xlink:href="#DejaVuSans-Bold-73" transform="translate(1938.574219 0)"/>
     <use xlink:href="#DejaVuSans-Bold-20" transform="translate(1998.095703 0)"/>
     <use xlink:href="#DejaVuSans-Bold-69" transform="translate(2032.910156 0)"/>
     <use xlink:href="#DejaVuSans-Bold-6e" transform="translate(2067.1875 0)"/>
     <use xlink:href="#DejaVuSans-Bold-74" transform="translate(2138.378906 0)"/>
     <use xlink:href="#DejaVuSans-Bold-65" transform="translate(2186.181641 0)"/>
     <use xlink:href="#DejaVuSans-Bold-72" transform="translate(2254.003906 0)"/>
     <use xlink:href="#DejaVuSans-Bold-2d" transform="translate(2303.320312 0)"/>
     <use xlink:href="#DejaVuSans-Bold-63" transform="translate(2344.824219 0)"/>
     <use xlink:href="#DejaVuSans-Bold-6c" transform="translate(2404.101562 0)"/>
     <use xlink:href="#DejaVuSans-Bold-61" transform="translate(2438.378906 0)"/>
     <use xlink:href="#DejaVuSans-Bold-73" transform="translate(2505.859375 0)"/>
     <use xlink:href="#DejaVuSans-Bold-65" transform="translate(2565.380859 0)"/>
     <use xlink:href="#DejaVuSans-Bold-20" transform="translate(2633.203125 0)"/>
     <use xlink:href="#DejaVuSans-Bold-2014" transform="translate(2668.017578 0)"/>
     <use xlink:href="#DejaVuSans-Bold-20" transform="translate(2768.017578 0)"/>
     <use xlink:href="#DejaVuSans-Bold-44" transform="translate(2802.832031 0)"/>
     <use xlink:href="#DejaVuSans-Bold-49" transform="translate(2885.839844 0)"/>
     <use xlink:href="#DejaVuSans-Bold-4e" transform="translate(2923.046875 0)"/>
     <use xlink:href="#DejaVuSans-Bold-4f" transform="translate(3006.738281 0)"/>
     <use xlink:href="#DejaVuSans-Bold-76" transform="translate(3091.748047 0)"/>
     <use xlink:href="#DejaVuSans-Bold-32" transform="translate(3156.933594 0)"/>
     <use xlink:href="#DejaVuSans-Bold-20" transform="translate(3226.513672 0)"/>
     <use xlink:href="#DejaVuSans-Bold-53" transform="translate(3261.328125 0)"/>
     <use xlink:href="#DejaVuSans-Bold-6d" transform="translate(3333.349609 0)"/>
     <use xlink:href="#DejaVuSans-Bold-61" transform="translate(3437.548828 0)"/>
     <use xlink:href="#DejaVuSans-Bold-6c" transform="translate(3505.029297 0)"/>
     <use xlink:href="#DejaVuSans-Bold-6c" transform="translate(3539.306641 0)"/>
    </g>
   </g>
   <g id="legend_1">
    <g id="patch_167">
     <path d="M 48.420625 142.159687 
L 211.585 142.159687 
Q 213.985 142.159687 213.985 139.759687 
L 213.985 35.277187 
Q 213.985 32.877187 211.585 32.877187 
L 48.420625 32.877187 
Q 46.020625 32.877187 46.020625 35.277187 
L 46.020625 139.759687 
Q 46.020625 142.159687 48.420625 142.159687 
z
" style="fill: #ffffff; opacity: 0.8; stroke: #cccccc; stroke-linejoin: miter"/>
    </g>
    <g id="patch_168">
     <path d="M 50.820625 46.795312 
L 74.820625 46.795312 
L 74.820625 38.395312 
L 50.820625 38.395312 
z
" style="fill: #2d6a4f; opacity: 0.65"/>
    </g>
    <g id="text_14">
     <!-- Intra-clase (n=3674) -->
     <g transform="translate(84.420625 46.795312) scale(0.12 -0.12)">
      <defs>
       <path id="DejaVuSans-49" d="M 628 4666 
L 1259 4666 
L 1259 0 
L 628 0 
L 628 4666 
z
" transform="scale(0.015625)"/>
       <path id="DejaVuSans-72" d="M 2631 2963 
Q 2534 3019 2420 3045 
Q 2306 3072 2169 3072 
Q 1681 3072 1420 2755 
Q 1159 2438 1159 1844 
L 1159 0 
L 581 0 
L 581 3500 
L 1159 3500 
L 1159 2956 
Q 1341 3275 1631 3429 
Q 1922 3584 2338 3584 
Q 2397 3584 2469 3576 
Q 2541 3569 2628 3553 
L 2631 2963 
z
" transform="scale(0.015625)"/>
       <path id="DejaVuSans-2d" d="M 313 2009 
L 1997 2009 
L 1997 1497 
L 313 1497 
L 313 2009 
z
" transform="scale(0.015625)"/>
       <path id="DejaVuSans-6c" d="M 603 4863 
L 1178 4863 
L 1178 0 
L 603 0 
L 603 4863 
z
" transform="scale(0.015625)"/>
       <path id="DejaVuSans-28" d="M 1984 4856 
Q 1566 4138 1362 3434 
Q 1159 2731 1159 2009 
Q 1159 1288 1364 580 
Q 1569 -128 1984 -844 
L 1484 -844 
Q 1016 -109 783 600 
Q 550 1309 550 2009 
Q 550 2706 781 3412 
Q 1013 4119 1484 4856 
L 1984 4856 
z
" transform="scale(0.015625)"/>
       <path id="DejaVuSans-3d" d="M 678 2906 
L 4684 2906 
L 4684 2381 
L 678 2381 
L 678 2906 
z
M 678 1631 
L 4684 1631 
L 4684 1100 
L 678 1100 
L 678 1631 
z
" transform="scale(0.015625)"/>
       <path id="DejaVuSans-37" d="M 525 4666 
L 3525 4666 
L 3525 4397 
L 1831 0 
L 1172 0 
L 2766 4134 
L 525 4134 
L 525 4666 
z
" transform="scale(0.015625)"/>
       <path id="DejaVuSans-29" d="M 513 4856 
L 1013 4856 
Q 1481 4119 1714 3412 
Q 1947 2706 1947 2009 
Q 1947 1309 1714 600 
Q 1481 -109 1013 -844 
L 513 -844 
Q 928 -128 1133 580 
Q 1338 1288 1338 2009 
Q 1338 2731 1133 3434 
Q 928 4138 513 4856 
z
" transform="scale(0.015625)"/>
      </defs>
      <use xlink:href="#DejaVuSans-49"/>
      <use xlink:href="#DejaVuSans-6e" transform="translate(29.492188 0)"/>
      <use xlink:href="#DejaVuSans-74" transform="translate(92.871094 0)"/>
      <use xlink:href="#DejaVuSans-72" transform="translate(132.080078 0)"/>
      <use xlink:href="#DejaVuSans-61" transform="translate(173.193359 0)"/>
      <use xlink:href="#DejaVuSans-2d" transform="translate(234.472656 0)"/>
      <use xlink:href="#DejaVuSans-63" transform="translate(270.556641 0)"/>
      <use xlink:href="#DejaVuSans-6c" transform="translate(325.537109 0)"/>
      <use xlink:href="#DejaVuSans-61" transform="translate(353.320312 0)"/>
      <use xlink:href="#DejaVuSans-73" transform="translate(414.599609 0)"/>
      <use xlink:href="#DejaVuSans-65" transform="translate(466.699219 0)"/>
      <use xlink:href="#DejaVuSans-20" transform="translate(528.222656 0)"/>
      <use xlink:href="#DejaVuSans-28" transform="translate(560.009766 0)"/>
      <use xlink:href="#DejaVuSans-6e" transform="translate(599.023438 0)"/>
      <use xlink:href="#DejaVuSans-3d" transform="translate(662.402344 0)"/>
      <use xlink:href="#DejaVuSans-33" transform="translate(746.191406 0)"/>
      <use xlink:href="#DejaVuSans-36" transform="translate(809.814453 0)"/>
      <use xlink:href="#DejaVuSans-37" transform="translate(873.4375 0)"/>
      <use xlink:href="#DejaVuSans-34" transform="translate(937.060547 0)"/>
      <use xlink:href="#DejaVuSans-29" transform="translate(1000.683594 0)"/>
     </g>
    </g>
    <g id="patch_169">
     <path d="M 50.820625 64.409062 
L 74.820625 64.409062 
L 74.820625 56.009062 
L 50.820625 56.009062 
z
" style="fill: #95d5b2; opacity: 0.65"/>
    </g>
    <g id="text_15">
     <!-- Inter-clase (n=3674) -->
     <g transform="translate(84.420625 64.409062) scale(0.12 -0.12)">
      <use xlink:href="#DejaVuSans-49"/>
      <use xlink:href="#DejaVuSans-6e" transform="translate(29.492188 0)"/>
      <use xlink:href="#DejaVuSans-74" transform="translate(92.871094 0)"/>
      <use xlink:href="#DejaVuSans-65" transform="translate(132.080078 0)"/>
      <use xlink:href="#DejaVuSans-72" transform="translate(193.603516 0)"/>
      <use xlink:href="#DejaVuSans-2d" transform="translate(228.341797 0)"/>
      <use xlink:href="#DejaVuSans-63" transform="translate(264.425781 0)"/>
      <use xlink:href="#DejaVuSans-6c" transform="translate(319.40625 0)"/>
      <use xlink:href="#DejaVuSans-61" transform="translate(347.189453 0)"/>
      <use xlink:href="#DejaVuSans-73" transform="translate(408.46875 0)"/>
      <use xlink:href="#DejaVuSans-65" transform="translate(460.568359 0)"/>
      <use xlink:href="#DejaVuSans-20" transform="translate(522.091797 0)"/>
      <use xlink:href="#DejaVuSans-28" transform="translate(553.878906 0)"/>
      <use xlink:href="#DejaVuSans-6e" transform="translate(592.892578 0)"/>
      <use xlink:href="#DejaVuSans-3d" transform="translate(656.271484 0)"/>
      <use xlink:href="#DejaVuSans-33" transform="translate(740.060547 0)"/>
      <use xlink:href="#DejaVuSans-36" transform="translate(803.683594 0)"/>
      <use xlink:href="#DejaVuSans-37" transform="translate(867.306641 0)"/>
      <use xlink:href="#DejaVuSans-34" transform="translate(930.929688 0)"/>
      <use xlink:href="#DejaVuSans-29" transform="translate(994.552734 0)"/>
     </g>
    </g>
    <g id="line2d_25">
     <path d="M 50.820625 77.822812 
L 62.820625 77.822812 
L 74.820625 77.822812 
" style="fill: none; stroke-dasharray: 6.66,2.88; stroke-dashoffset: 0; stroke: #98d594; stroke-width: 1.8"/>
    </g>
    <g id="text_16">
     <!-- p90 = 0.5464 -->
     <g transform="translate(84.420625 82.022812) scale(0.12 -0.12)">
      <defs>
       <path id="DejaVuSans-70" d="M 1159 525 
L 1159 -1331 
L 581 -1331 
L 581 3500 
L 1159 3500 
L 1159 2969 
Q 1341 3281 1617 3432 
Q 1894 3584 2278 3584 
Q 2916 3584 3314 3078 
Q 3713 2572 3713 1747 
Q 3713 922 3314 415 
Q 2916 -91 2278 -91 
Q 1894 -91 1617 61 
Q 1341 213 1159 525 
z
M 3116 1747 
Q 3116 2381 2855 2742 
Q 2594 3103 2138 3103 
Q 1681 3103 1420 2742 
Q 1159 2381 1159 1747 
Q 1159 1113 1420 752 
Q 1681 391 2138 391 
Q 2594 391 2855 752 
Q 3116 1113 3116 1747 
z
" transform="scale(0.015625)"/>
       <path id="DejaVuSans-39" d="M 703 97 
L 703 672 
Q 941 559 1184 500 
Q 1428 441 1663 441 
Q 2288 441 2617 861 
Q 2947 1281 2994 2138 
Q 2813 1869 2534 1725 
Q 2256 1581 1919 1581 
Q 1219 1581 811 2004 
Q 403 2428 403 3163 
Q 403 3881 828 4315 
Q 1253 4750 1959 4750 
Q 2769 4750 3195 4129 
Q 3622 3509 3622 2328 
Q 3622 1225 3098 567 
Q 2575 -91 1691 -91 
Q 1453 -91 1209 -44 
Q 966 3 703 97 
z
M 1959 2075 
Q 2384 2075 2632 2365 
Q 2881 2656 2881 3163 
Q 2881 3666 2632 3958 
Q 2384 4250 1959 4250 
Q 1534 4250 1286 3958 
Q 1038 3666 1038 3163 
Q 1038 2656 1286 2365 
Q 1534 2075 1959 2075 
z
" transform="scale(0.015625)"/>
       <path id="DejaVuSans-35" d="M 691 4666 
L 3169 4666 
L 3169 4134 
L 1269 4134 
L 1269 2991 
Q 1406 3038 1543 3061 
Q 1681 3084 1819 3084 
Q 2600 3084 3056 2656 
Q 3513 2228 3513 1497 
Q 3513 744 3044 326 
Q 2575 -91 1722 -91 
Q 1428 -91 1123 -41 
Q 819 9 494 109 
L 494 744 
Q 775 591 1075 516 
Q 1375 441 1709 441 
Q 2250 441 2565 725 
Q 2881 1009 2881 1497 
Q 2881 1984 2565 2268 
Q 2250 2553 1709 2553 
Q 1456 2553 1204 2497 
Q 953 2441 691 2322 
L 691 4666 
z
" transform="scale(0.015625)"/>
      </defs>
      <use xlink:href="#DejaVuSans-70"/>
      <use xlink:href="#DejaVuSans-39" transform="translate(63.476562 0)"/>
      <use xlink:href="#DejaVuSans-30" transform="translate(127.099609 0)"/>
      <use xlink:href="#DejaVuSans-20" transform="translate(190.722656 0)"/>
      <use xlink:href="#DejaVuSans-3d" transform="translate(222.509766 0)"/>
      <use xlink:href="#DejaVuSans-20" transform="translate(306.298828 0)"/>
      <use xlink:href="#DejaVuSans-30" transform="translate(338.085938 0)"/>
      <use xlink:href="#DejaVuSans-2e" transform="translate(401.708984 0)"/>
      <use xlink:href="#DejaVuSans-35" transform="translate(433.496094 0)"/>
      <use xlink:href="#DejaVuSans-34" transform="translate(497.119141 0)"/>
      <use xlink:href="#DejaVuSans-36" transform="translate(560.742188 0)"/>
      <use xlink:href="#DejaVuSans-34" transform="translate(624.365234 0)"/>
     </g>
    </g>
    <g id="line2d_26">
     <path d="M 50.820625 95.436562 
L 62.820625 95.436562 
L 74.820625 95.436562 
" style="fill: none; stroke-dasharray: 6.66,2.88; stroke-dashoffset: 0; stroke: #60ba6c; stroke-width: 1.8"/>
    </g>
    <g id="text_17">
     <!-- p95 = 0.6165 -->
     <g transform="translate(84.420625 99.636562) scale(0.12 -0.12)">
      <use xlink:href="#DejaVuSans-70"/>
      <use xlink:href="#DejaVuSans-39" transform="translate(63.476562 0)"/>
      <use xlink:href="#DejaVuSans-35" transform="translate(127.099609 0)"/>
      <use xlink:href="#DejaVuSans-20" transform="translate(190.722656 0)"/>
      <use xlink:href="#DejaVuSans-3d" transform="translate(222.509766 0)"/>
      <use xlink:href="#DejaVuSans-20" transform="translate(306.298828 0)"/>
      <use xlink:href="#DejaVuSans-30" transform="translate(338.085938 0)"/>
      <use xlink:href="#DejaVuSans-2e" transform="translate(401.708984 0)"/>
      <use xlink:href="#DejaVuSans-36" transform="translate(433.496094 0)"/>
      <use xlink:href="#DejaVuSans-31" transform="translate(497.119141 0)"/>
      <use xlink:href="#DejaVuSans-36" transform="translate(560.742188 0)"/>
      <use xlink:href="#DejaVuSans-35" transform="translate(624.365234 0)"/>
     </g>
    </g>
    <g id="line2d_27">
     <path d="M 50.820625 113.050312 
L 62.820625 113.050312 
L 74.820625 113.050312 
" style="fill: none; stroke-dasharray: 6.66,2.88; stroke-dashoffset: 0; stroke: #2f974e; stroke-width: 1.8"/>
    </g>
    <g id="text_18">
     <!-- p97 = 0.6704 -->
     <g transform="translate(84.420625 117.250312) scale(0.12 -0.12)">
      <use xlink:href="#DejaVuSans-70"/>
      <use xlink:href="#DejaVuSans-39" transform="translate(63.476562 0)"/>
      <use xlink:href="#DejaVuSans-37" transform="translate(127.099609 0)"/>
      <use xlink:href="#DejaVuSans-20" transform="translate(190.722656 0)"/>
      <use xlink:href="#DejaVuSans-3d" transform="translate(222.509766 0)"/>
      <use xlink:href="#DejaVuSans-20" transform="translate(306.298828 0)"/>
      <use xlink:href="#DejaVuSans-30" transform="translate(338.085938 0)"/>
      <use xlink:href="#DejaVuSans-2e" transform="translate(401.708984 0)"/>
      <use xlink:href="#DejaVuSans-36" transform="translate(433.496094 0)"/>
      <use xlink:href="#DejaVuSans-37" transform="translate(497.119141 0)"/>
      <use xlink:href="#DejaVuSans-30" transform="translate(560.742188 0)"/>
      <use xlink:href="#DejaVuSans-34" transform="translate(624.365234 0)"/>
     </g>
    </g>
    <g id="line2d_28">
     <path d="M 50.820625 130.664062 
L 62.820625 130.664062 
L 74.820625 130.664062 
" style="fill: none; stroke-dasharray: 6.66,2.88; stroke-dashoffset: 0; stroke: #006428; stroke-width: 1.8"/>
    </g>
    <g id="text_19">
     <!-- p99 = 0.7594 -->
     <g transform="translate(84.420625 134.864062) scale(0.12 -0.12)">
      <use xlink:href="#DejaVuSans-70"/>
      <use xlink:href="#DejaVuSans-39" transform="translate(63.476562 0)"/>
      <use xlink:href="#DejaVuSans-39" transform="translate(127.099609 0)"/>
      <use xlink:href="#DejaVuSans-20" transform="translate(190.722656 0)"/>
      <use xlink:href="#DejaVuSans-3d" transform="translate(222.509766 0)"/>
      <use xlink:href="#DejaVuSans-20" transform="translate(306.298828 0)"/>
      <use xlink:href="#DejaVuSans-30" transform="translate(338.085938 0)"/>
      <use xlink:href="#DejaVuSans-2e" transform="translate(401.708984 0)"/>
      <use xlink:href="#DejaVuSans-37" transform="translate(433.496094 0)"/>
      <use xlink:href="#DejaVuSans-35" transform="translate(497.119141 0)"/>
      <use xlink:href="#DejaVuSans-39" transform="translate(560.742188 0)"/>
      <use xlink:href="#DejaVuSans-34" transform="translate(624.365234 0)"/>
     </g>
    </g>
   </g>
  </g>
 </g>
 <defs>
  <clipPath id="pc964a69939">
   <rect x="40.020625" y="26.877187" width="665.44" height="281.08"/>
  </clipPath>
 </defs>
</svg>
